{"glyphs":{"0":{"ha":976,"x_min":97,"x_max":956,"o":"m 844 929 q 831 917 839 925 q 794 891 822 910 q 738 860 767 872 q 670 840 710 847 q 593 839 631 832 q 513 867 546 849 q 426 843 479 871 q 338 714 368 811 q 308 499 308 617 q 376 228 308 322 q 528 125 444 135 l 538 125 q 821 363 724 115 q 856 563 858 474 q 831 708 853 653 l 807 765 q 822 753 813 761 q 856 717 832 744 q 900 657 881 689 q 936 575 919 625 q 956 471 953 525 q 772 44 971 214 q 646 -22 718 -3 q 483 -36 561 -51 q 201 144 297 -4 q 113 352 139 240 q 97 564 88 464 q 144 751 107 664 q 242 910 188 851 q 396 1008 297 968 q 497 1044 443 1032 q 581 1056 550 1056 l 611 1056 q 703 965 644 996 q 803 931 761 933 l 844 929 z "},"1":{"ha":589,"x_min":7,"x_max":568,"o":"m 149 54 q 157 52 151 53 q 176 53 163 51 q 202 60 190 54 q 224 85 214 67 q 238 132 235 103 q 257 469 253 285 q 247 822 261 653 l 247 826 q 213 881 240 883 q 153 797 181 879 q 142 697 135 735 q 168 644 150 660 l 186 629 q 63 724 101 607 q 42 821 49 761 q 28 918 35 881 q 7 963 22 956 l 38 1007 q 206 994 138 996 q 326 997 229 994 q 463 997 424 999 q 519 994 503 996 q 549 983 536 992 q 565 953 563 974 q 556 955 561 954 q 535 952 550 956 q 507 940 519 949 q 483 907 494 931 q 467 849 471 883 q 461 490 456 686 q 482 142 467 293 q 509 68 488 90 q 550 49 531 46 l 568 51 q 527 3 553 15 q 456 -4 501 -10 q 348 9 381 8 q 235 1 315 10 q 149 54 171 -6 z "},"2":{"ha":767,"x_min":21,"x_max":746,"o":"m 76 976 q 102 970 86 974 q 163 963 118 967 q 244 962 207 958 q 322 985 282 965 q 381 1039 361 1004 q 401 1039 388 1039 q 453 1033 415 1039 q 526 1016 492 1028 q 605 978 561 1004 q 679 915 649 953 q 727 834 713 875 q 739 757 742 793 q 717 682 736 721 q 670 610 697 643 q 603 538 643 576 q 524 467 563 499 q 436 396 485 435 q 424 386 428 389 q 254 194 285 275 q 297 132 229 131 q 401 128 360 132 q 481 128 450 126 q 548 143 513 129 q 597 185 583 157 q 613 275 621 240 q 583 325 606 310 l 563 340 q 690 253 649 363 q 712 163 704 217 q 726 73 719 108 q 746 32 732 38 l 715 -10 q 640 0 676 -3 q 583 3 604 3 q 519 2 561 3 q 451 1 476 1 q 283 6 414 1 q 94 10 153 10 l 81 10 q 31 38 43 11 q 21 92 14 63 q 65 258 24 188 q 340 568 186 467 q 528 747 449 639 q 554 899 608 856 q 514 891 542 908 q 439 849 486 874 q 346 824 392 825 q 236 835 286 821 q 158 873 186 850 q 110 919 129 896 q 83 960 90 943 l 76 976 z "},"3":{"ha":819,"x_min":75,"x_max":799,"o":"m 406 94 q 578 292 576 125 q 555 424 578 371 q 479 471 532 476 q 399 458 440 461 q 278 492 324 456 q 242 600 232 529 q 307 667 249 644 q 364 667 354 683 q 365 658 367 664 q 373 581 350 607 q 438 557 396 556 q 478 563 457 557 q 494 568 489 565 q 547 642 535 586 q 553 761 560 697 q 492 883 543 850 q 367 921 442 915 q 356 922 363 922 q 272 907 301 925 q 222 844 243 889 q 205 780 208 814 q 206 726 201 746 l 208 707 q 138 804 150 753 q 131 834 135 817 q 124 861 126 851 q 119 884 122 871 q 113 905 115 897 q 108 922 111 913 q 101 938 104 932 q 94 949 97 943 q 85 959 90 956 q 75 965 81 963 l 104 1010 q 242 996 175 996 q 252 997 244 996 q 264 997 260 997 q 512 1006 426 1010 q 671 956 597 1003 q 758 842 735 914 q 772 708 782 771 q 732 604 761 644 q 615 515 689 543 q 753 417 690 490 q 798 245 811 353 q 700 71 785 138 q 622 26 664 42 q 521 8 581 11 q 416 7 461 6 q 282 15 371 8 q 246 18 258 17 q 107 6 171 18 l 78 49 q 88 55 83 51 q 97 64 93 58 q 103 75 100 69 q 110 90 107 81 q 116 107 114 100 q 122 127 118 114 q 127 149 125 140 q 133 176 129 158 q 140 206 138 194 q 213 300 154 258 q 225 167 193 232 q 285 101 249 118 q 393 93 321 83 q 406 94 397 94 z "},"4":{"ha":981,"x_min":-4,"x_max":960,"o":"m 117 493 q 114 544 111 513 q 88 840 108 713 q 56 915 79 886 q 14 949 33 943 l -4 954 q 25 991 6 981 q 86 996 44 1001 q 304 994 192 982 q 378 991 354 1001 q 404 950 401 981 q 395 952 401 951 q 374 949 389 953 q 347 937 360 946 q 323 905 335 928 q 307 847 311 882 q 306 544 292 701 q 374 502 322 510 q 466 523 426 494 q 489 606 506 551 q 504 621 485 619 q 586 596 543 626 q 621 547 617 575 q 585 428 632 472 q 449 382 538 383 q 291 397 372 379 q 151 451 210 415 q 117 493 122 465 m 542 53 q 550 51 544 51 q 569 51 556 50 q 595 59 583 53 q 617 83 607 65 q 631 131 628 101 q 650 482 646 286 q 639 843 654 678 q 610 919 633 890 q 567 953 588 947 l 547 958 q 576 995 557 985 q 638 1000 596 1006 q 856 999 743 986 q 930 995 907 1006 q 957 954 953 985 q 947 956 953 956 q 926 953 942 957 q 899 942 911 950 q 874 909 886 933 q 860 850 863 885 q 853 490 847 689 q 874 140 858 290 q 901 66 879 89 q 942 46 922 43 l 960 49 q 919 1 946 14 q 847 -6 893 -12 q 742 7 774 6 q 628 0 710 8 q 542 53 565 -7 z "},"5":{"ha":788,"x_min":104,"x_max":767,"o":"m 367 6 q 306 6 342 6 q 250 7 271 7 q 197 4 229 7 q 131 -6 165 1 l 104 33 q 123 74 117 40 q 135 161 129 108 q 154 249 142 214 q 268 333 190 353 q 260 328 265 332 q 243 312 254 325 q 226 283 232 299 q 221 240 219 267 q 236 182 222 213 q 265 148 246 161 q 313 131 285 135 q 363 126 342 126 q 418 126 383 125 q 464 128 453 128 l 507 128 q 510 138 508 131 q 511 147 511 144 q 528 378 531 267 l 517 378 q 207 438 333 375 q 156 489 160 451 q 154 531 150 511 q 146 831 146 717 q 150 864 146 847 q 176 907 150 881 q 301 990 228 960 q 421 1022 374 1019 l 468 1026 q 573 957 499 972 q 707 953 647 942 l 767 965 q 759 948 764 958 q 734 911 754 938 q 687 865 714 885 q 610 829 660 844 q 503 817 561 814 q 471 821 488 817 q 443 828 454 825 q 416 840 432 832 q 393 851 400 847 q 370 864 386 854 q 351 875 354 874 q 339 824 343 857 q 336 543 324 682 q 419 495 350 504 q 531 514 488 486 q 551 532 543 526 q 560 592 571 557 q 574 607 556 603 q 663 585 614 614 q 703 536 699 564 q 703 529 703 533 q 704 524 704 525 l 704 519 q 704 499 707 508 q 697 133 700 215 q 636 31 694 61 q 508 6 578 0 l 501 6 l 367 6 z "},"6":{"ha":908,"x_min":64,"x_max":889,"o":"m 889 958 q 881 941 886 951 q 851 903 875 931 q 799 858 828 876 q 717 826 769 839 q 603 818 664 813 q 529 840 567 822 q 503 853 524 843 q 475 865 483 864 q 445 864 467 867 q 396 847 424 861 q 305 731 339 821 q 265 528 271 640 q 322 260 256 353 q 468 163 388 167 q 482 161 472 161 q 640 222 590 165 l 642 224 q 678 304 671 267 q 678 313 678 307 q 679 319 679 318 q 619 435 683 386 q 538 467 586 461 q 445 462 490 472 q 360 438 400 451 q 297 411 321 424 l 272 397 q 388 508 332 474 q 514 547 443 542 q 743 465 642 557 q 801 362 786 425 q 797 228 815 299 q 732 116 788 174 q 583 26 676 58 q 396 18 490 -6 q 392 19 393 18 q 251 87 319 39 q 146 199 182 135 q 64 495 64 342 q 125 775 64 649 q 336 986 189 915 q 447 1028 386 1015 q 544 1040 508 1042 l 581 1039 q 619 992 592 1013 l 632 983 q 739 951 675 957 q 846 951 803 944 l 889 958 z "},"7":{"ha":906,"x_min":64,"x_max":885,"o":"m 185 129 q 392 503 285 300 q 536 804 500 706 q 554 864 550 838 q 432 871 517 865 q 395 872 425 871 q 356 874 365 874 q 322 872 346 874 q 286 865 297 871 q 259 851 275 860 q 233 828 243 843 q 217 794 224 814 q 208 694 200 732 q 233 640 215 656 l 251 625 q 126 721 168 603 q 106 818 113 758 q 92 915 99 878 q 72 960 86 953 l 101 1004 q 186 993 150 996 q 280 991 222 990 q 360 992 338 992 l 369 992 q 486 993 388 992 q 633 996 585 994 l 636 996 q 714 997 664 997 q 732 998 719 997 q 750 999 744 999 q 819 1003 782 1001 q 865 984 846 1006 q 885 938 885 963 q 868 928 879 935 q 828 888 857 921 q 774 808 799 854 q 647 565 715 701 q 508 277 579 428 q 418 89 436 126 q 428 45 408 56 q 474 42 449 35 l 499 47 q 489 24 492 29 q 477 8 486 19 q 455 -6 468 -3 q 422 -7 442 -8 q 126 -7 315 3 q 64 46 74 -11 q 70 46 65 47 q 88 49 75 44 q 114 60 100 53 q 147 85 128 67 q 185 129 167 104 z "},"8":{"ha":767,"x_min":39,"x_max":729,"o":"m 354 439 q 264 328 294 388 q 235 218 233 268 q 264 135 236 168 q 463 97 332 86 q 551 175 547 106 q 450 363 557 260 q 367 431 414 399 l 354 439 m 678 871 q 544 589 724 750 q 729 358 693 469 q 610 40 799 138 q 456 -9 536 0 q 309 -3 375 -18 q 185 43 243 11 q 67 146 107 79 q 39 206 46 176 q 42 356 13 292 q 233 531 90 461 q 115 653 156 594 q 72 781 74 711 q 128 918 71 851 q 244 1001 174 972 q 361 1031 314 1029 l 407 1032 q 506 967 435 981 q 635 964 578 953 l 692 975 q 685 959 689 969 q 660 924 681 949 q 615 879 640 899 q 542 845 589 860 q 439 833 494 831 q 352 858 396 835 q 282 896 308 881 q 244 903 256 911 q 226 870 226 889 q 240 830 225 851 q 276 785 254 808 q 328 738 297 763 q 390 694 360 714 q 453 653 419 674 q 454 651 454 653 q 566 749 510 694 q 650 838 622 804 l 678 871 z "},"9":{"ha":897,"x_min":81,"x_max":876,"o":"m 81 25 q 88 43 83 32 q 115 83 93 54 q 164 132 136 111 q 243 169 192 153 q 357 183 294 186 q 433 168 393 183 q 460 156 440 165 q 490 146 481 147 q 519 149 499 144 q 568 169 540 154 q 650 293 622 200 q 676 499 678 386 q 652 663 675 590 q 594 774 629 735 q 521 832 558 813 q 449 851 483 851 l 433 851 q 279 779 325 840 l 278 778 q 247 694 251 731 l 247 679 q 314 567 247 613 q 399 541 350 543 q 491 552 447 539 q 574 583 535 565 q 636 614 614 600 l 660 629 q 552 510 606 547 q 428 463 499 472 q 193 529 299 443 q 128 628 147 565 q 122 763 108 690 q 180 880 128 818 q 323 981 232 942 q 510 1001 414 1019 q 513 1001 511 1001 q 515 1000 514 1000 q 661 942 589 986 q 774 838 733 899 q 860 637 835 744 q 876 437 885 529 q 835 260 868 344 q 636 35 778 117 q 527 -16 588 1 q 431 -35 467 -33 l 396 -36 q 353 8 381 -8 q 339 17 344 14 q 230 41 294 39 q 122 33 165 43 l 81 25 z "}," ":{"ha":417,"x_min":0,"x_max":0,"o":""},"!":{"ha":418,"x_min":43,"x_max":390,"o":"m 186 -71 q 197 -111 178 -99 q 231 -61 206 -71 q 283 -69 257 -46 q 300 -121 308 -93 q 236 -164 289 -153 q 179 -148 201 -169 q 159 -94 157 -126 q 190 -40 161 -61 q 203 -42 199 -35 q 200 -54 208 -49 q 186 -69 194 -58 l 186 -71 m 240 78 l 243 76 q 267 69 260 72 q 283 57 278 65 q 285 54 283 56 q 286 49 286 53 l 286 47 q 288 24 290 38 l 288 21 q 278 14 285 14 l 275 14 q 233 24 247 19 q 239 15 236 18 q 261 6 246 11 l 263 6 q 286 -4 282 -1 l 288 -4 l 290 -10 q 282 -46 300 -35 q 247 -50 269 -54 q 188 -14 204 -43 q 186 -10 186 -12 q 175 65 178 15 q 178 107 174 89 q 200 128 185 128 q 247 124 226 131 q 281 83 282 113 q 276 76 281 81 q 268 75 271 74 q 240 78 260 78 m 104 178 q 164 179 121 172 q 199 193 183 182 q 219 214 214 204 l 226 222 q 314 190 240 194 q 383 156 353 189 q 390 100 413 124 q 332 89 361 68 q 321 133 306 107 q 324 138 322 135 q 300 149 331 146 q 147 133 224 157 q 44 158 76 113 q 43 208 24 189 q 54 215 47 213 q 93 215 81 224 q 106 192 106 206 l 104 178 m 156 242 q 160 731 153 564 q 181 965 167 897 q 228 1108 194 1032 q 235 1101 229 1111 q 247 1061 240 1090 q 263 988 254 1032 q 277 872 271 944 q 287 713 283 800 q 288 499 290 625 q 278 231 286 374 q 267 230 276 232 q 248 236 258 228 q 238 263 238 244 q 238 512 236 353 q 238 740 240 671 q 226 817 236 810 q 215 783 219 822 q 217 265 210 724 q 201 239 217 244 q 171 238 186 233 l 156 242 z "},"\"":{"ha":569,"x_min":74,"x_max":549,"o":"m 328 721 l 426 853 l 549 853 q 439 736 496 775 q 386 715 414 719 q 343 717 358 711 l 328 721 m 74 718 l 172 849 l 294 849 q 185 732 243 771 q 132 712 160 715 q 89 714 104 708 l 74 718 z "},"#":{"ha":957,"x_min":-14,"x_max":938,"o":"m 486 585 q 368 576 428 582 q 313 406 351 522 q 335 410 322 410 q 338 411 335 411 q 439 421 401 419 q 442 432 439 425 q 444 442 444 439 q 482 569 463 508 q 485 577 483 572 q 486 585 486 582 m 644 599 q 629 533 635 554 q 628 529 628 532 q 596 424 618 496 q 729 413 689 418 q 910 347 853 392 q 928 331 918 342 q 938 314 938 319 q 928 303 938 310 q 914 296 919 297 q 888 299 906 294 q 861 304 871 304 q 802 300 843 307 q 742 293 761 293 q 711 294 733 293 q 676 294 689 296 q 656 290 669 293 q 638 286 643 286 q 551 282 633 286 q 461 18 539 242 q 350 -290 385 -210 q 337 -320 346 -299 q 320 -358 328 -342 q 310 -375 313 -374 q 306 -373 308 -376 q 302 -364 304 -369 q 298 -351 300 -358 q 295 -335 296 -343 q 294 -322 294 -328 q 315 -194 294 -306 q 328 -90 321 -162 q 342 22 335 -17 q 354 72 344 39 q 367 122 364 106 q 369 151 368 132 q 374 181 371 171 q 394 267 381 217 q 378 264 389 267 q 361 261 367 261 q 316 253 346 260 q 271 246 286 247 q 257 244 263 246 q 229 164 238 189 q 126 -93 164 -26 q 115 -114 124 -99 q 100 -140 107 -129 q 90 -151 93 -150 q 83 -145 88 -151 q 76 -129 79 -139 q 74 -112 74 -119 q 76 -85 74 -100 q 83 -48 78 -69 q 90 -17 89 -26 q 99 71 94 8 q 110 169 103 133 q 128 243 114 197 q 100 261 106 254 q 88 286 90 275 q 83 321 79 308 q 101 336 83 325 q 149 361 125 353 q 176 462 157 396 q 203 554 196 528 q 160 547 171 549 q 127 546 147 546 q 96 546 107 546 q 74 542 90 546 q 51 540 58 539 q 15 565 33 543 q 8 575 14 567 q -1 588 1 583 q -14 619 -14 610 q 1 636 -8 631 q 74 676 24 657 q 153 693 88 682 q 182 701 157 694 q 225 711 207 708 q 229 713 228 711 q 253 715 236 713 q 289 815 275 785 q 339 906 294 829 q 388 988 375 972 q 424 1015 400 1000 q 457 1029 449 1031 q 485 1018 468 1029 q 504 989 504 1001 q 494 956 504 982 q 454 839 494 954 q 433 783 447 818 q 414 739 418 749 l 410 726 q 532 725 493 726 q 553 774 539 742 q 574 818 568 806 q 594 867 576 826 q 619 925 611 908 q 655 972 631 943 q 689 1003 679 1000 q 718 1000 701 1008 q 733 985 725 997 q 742 969 742 974 l 733 919 q 694 760 724 871 q 687 735 692 751 q 679 710 682 718 q 815 658 772 693 q 832 628 835 639 q 824 617 831 624 q 814 608 818 610 q 803 608 807 607 q 790 610 800 608 q 774 613 781 613 q 718 607 758 615 q 657 599 678 599 l 644 599 z "},"$":{"ha":604,"x_min":-261,"x_max":575,"o":"m 239 706 q 232 801 236 782 q 219 808 224 807 q 213 731 215 794 q 239 706 219 722 m 197 -111 q 214 -74 204 -85 l 185 -78 q 197 -111 181 -100 m 240 78 l 243 76 q 267 69 260 72 q 282 58 274 67 q 336 86 300 67 q 318 108 322 93 q 324 138 314 122 q 300 149 331 146 q 147 133 224 157 q 44 158 76 113 q 43 208 24 189 q 54 215 47 213 q 93 215 81 224 q 106 192 106 206 l 104 178 q 164 179 121 172 q 199 193 183 182 q 219 214 214 204 l 226 222 q 314 190 240 194 q 363 173 339 189 q 396 136 388 157 q 426 233 424 181 q 392 344 428 285 q 292 450 357 404 q 288 453 290 450 q 278 231 281 290 q 267 230 276 232 q 248 236 258 228 q 238 263 238 244 l 238 488 l 213 508 q 217 265 214 432 q 201 239 217 244 q 171 238 186 233 l 156 242 q 156 557 154 428 q 111 821 8 699 q 168 868 135 847 q 228 1108 181 997 q 232 1106 229 1111 q 240 1085 235 1100 q 251 1047 246 1069 q 263 986 257 1024 q 274 904 269 949 l 324 907 q 399 857 346 868 q 496 854 453 846 l 539 863 q 534 851 538 858 q 515 824 531 843 q 481 790 500 804 q 426 765 461 775 q 347 756 390 754 q 285 772 317 757 q 288 665 288 708 q 324 640 300 656 q 358 618 349 625 q 489 513 431 574 q 568 394 547 453 q 574 215 600 315 q 468 42 549 114 q 271 -61 388 -31 l 283 -69 q 300 -121 308 -93 q 236 -164 289 -153 q 175 -142 197 -171 q 163 -79 153 -114 q -33 -68 65 -86 q -253 119 -196 -36 q -260 246 -272 183 q -218 346 -249 308 q 69 479 -107 485 q 53 476 64 478 q 13 463 43 474 q -42 438 -17 453 q -98 397 -68 424 q -147 336 -128 369 q -162 151 -206 238 q -31 41 -126 76 q 179 26 65 6 q 175 65 175 44 q 178 107 174 89 q 200 128 185 128 q 247 124 226 131 q 281 83 282 113 q 276 76 281 81 q 268 75 271 74 q 240 78 260 78 z "},"%":{"ha":1339,"x_min":-232,"x_max":1317,"o":"m 293 599 q 265 660 293 619 q 238 603 240 626 l 238 600 q 289 599 253 594 l 293 599 m 131 694 l 132 692 l 133 689 q 154 660 138 668 q 192 656 175 651 q 225 675 214 660 q 233 710 238 688 q 214 736 229 728 q 175 742 194 746 q 140 726 153 739 q 131 697 129 713 l 131 694 m 292 710 q 292 705 292 708 q 294 700 293 701 q 332 658 306 668 q 386 663 372 647 q 399 707 407 686 q 360 739 389 728 q 311 739 331 750 q 292 710 296 732 m 844 -24 q 817 38 844 -3 q 789 -19 792 4 l 789 -22 q 840 -24 810 -26 l 844 -24 m 682 72 q 685 67 685 69 q 706 39 689 47 q 744 35 722 31 q 776 53 765 39 q 785 88 789 67 q 765 115 781 107 q 726 121 750 124 q 692 104 704 117 q 682 76 681 93 l 682 72 m 844 88 q 846 78 844 81 q 885 36 857 46 q 938 40 922 25 q 950 85 958 64 q 911 117 940 106 q 863 118 883 128 q 844 88 846 108 m 590 460 q 336 61 485 258 q 101 -161 233 -76 q -140 -231 -31 -246 q -217 -194 -194 -222 q -232 -136 -240 -165 q -215 -108 -228 -121 q -190 -89 -201 -94 l -179 -83 q -110 -169 -187 -171 q 108 -65 -19 -167 q 275 119 213 17 q 326 206 286 138 q 386 307 367 274 q 490 503 401 336 q 628 754 578 669 q 739 924 699 869 q 981 1143 847 1063 q 1225 1200 1115 1224 q 1302 1156 1279 1189 q 1317 1093 1325 1124 q 1298 1065 1311 1078 q 1274 1046 1285 1051 l 1263 1040 q 1190 1139 1274 1133 q 979 1060 1101 1147 q 800 857 861 975 q 590 460 611 496 m 424 210 l 424 204 l 440 219 q 425 211 439 218 l 424 210 m 265 986 q 447 894 393 982 q 447 694 501 807 q 446 692 447 693 q 446 664 442 682 q 449 651 447 653 q 444 618 450 635 q 414 589 436 597 q 382 586 404 586 l 381 586 q 358 582 361 586 q 354 558 349 575 q 357 547 356 553 q 358 540 358 542 q 346 513 358 522 q 269 496 328 496 q 233 496 247 494 q 193 510 208 499 q 172 539 176 519 q 175 564 171 546 l 175 565 q 175 575 176 574 q 153 581 171 579 l 150 581 q 126 585 143 582 q 101 600 110 589 q 90 628 92 611 q 86 656 89 632 q 85 667 86 664 q 81 697 83 686 l 79 699 q 78 704 78 700 l 76 704 q 76 707 76 706 q 75 710 75 708 q 81 886 39 811 q 256 986 129 971 l 260 986 l 265 986 m 817 365 q 999 273 944 361 q 999 72 1053 185 l 999 71 q 997 42 994 64 q 1000 29 1000 31 q 996 -4 1003 13 q 965 -32 988 -25 q 933 -36 950 -36 l 932 -36 q 910 -39 913 -36 q 906 -62 900 -47 q 910 -82 910 -79 q 899 -110 910 -96 q 821 -126 881 -125 q 785 -125 796 -126 q 744 -112 761 -122 q 724 -83 728 -103 q 726 -58 724 -69 l 726 -57 q 726 -47 728 -49 q 704 -42 722 -43 q 701 -40 703 -40 q 678 -37 692 -40 q 653 -22 664 -33 q 642 6 643 -11 q 638 33 639 19 q 636 46 638 43 q 632 75 633 64 l 631 76 q 631 81 631 78 l 629 82 l 628 82 q 627 85 628 83 q 626 89 626 88 q 632 265 589 189 q 807 364 683 351 l 811 364 q 817 365 813 365 z "},"&":{"ha":1981,"x_min":71,"x_max":1960,"o":"m 367 453 q 269 298 297 382 q 260 142 242 214 q 336 28 279 69 q 526 -65 425 -39 q 714 -80 626 -92 q 869 -25 801 -68 q 367 453 556 224 m 114 1056 q 126 1052 118 1054 q 156 1047 133 1050 q 199 1042 178 1043 q 249 1042 221 1040 q 301 1051 278 1044 q 345 1074 324 1058 q 379 1115 367 1090 q 398 1115 386 1115 q 443 1110 410 1115 q 507 1093 476 1104 q 575 1057 538 1082 q 640 997 613 1032 q 694 878 686 938 q 671 761 701 818 q 596 655 640 704 q 483 550 551 606 q 644 431 553 511 q 794 291 736 350 q 978 97 851 232 q 958 344 1028 214 q 899 426 935 389 q 828 483 863 463 q 762 517 793 503 q 711 535 731 531 l 692 539 q 1043 358 908 544 q 1096 224 1081 308 q 1088 51 1111 139 q 1068 1 1082 35 q 1103 -35 1079 -11 q 1138 -71 1126 -58 q 1510 -285 1288 -224 q 1800 -289 1696 -336 q 1849 -131 1899 -246 q 1946 -182 1917 -137 q 1960 -236 1958 -207 q 1936 -301 1961 -265 q 1864 -361 1911 -336 q 1631 -403 1764 -414 q 1356 -334 1497 -392 q 1082 -183 1214 -276 q 1038 -151 1071 -175 q 985 -114 1004 -128 q 818 -200 915 -179 q 681 -217 753 -214 q 523 -208 608 -219 q 353 -158 438 -197 q 201 -53 268 -118 q 71 181 103 46 q 79 424 39 315 q 236 644 115 531 q 211 736 211 699 q 226 785 211 774 q 257 793 240 797 q 264 781 263 792 q 272 746 265 771 q 293 694 278 721 q 336 726 328 719 q 532 982 613 913 q 497 974 521 990 q 431 935 472 958 q 350 911 390 913 q 253 922 297 908 q 185 958 210 936 q 144 1001 161 979 q 119 1039 126 1024 l 114 1056 z "},"'":{"ha":371,"x_min":96,"x_max":350,"o":"m 96 692 l 210 886 l 350 886 q 224 713 290 771 q 163 681 194 686 q 114 683 131 676 l 96 692 z "},"(":{"ha":504,"x_min":90,"x_max":483,"o":"m 358 -318 q 367 -258 350 -279 q 419 -246 386 -235 q 456 -286 451 -257 q 414 -351 458 -319 q 332 -343 369 -382 q 322 -256 294 -304 q 335 -253 328 -247 q 338 -265 343 -258 q 331 -285 332 -275 q 358 -318 336 -314 m 204 -1 q 120 280 140 140 q 119 528 100 419 q 178 731 138 636 q 273 888 218 825 q 383 986 328 950 q 483 1025 438 1022 q 466 1006 485 1025 q 416 946 447 988 q 351 847 385 904 q 293 703 318 789 q 258 518 268 617 q 269 286 249 419 q 343 10 290 153 q 330 10 340 11 q 300 20 319 8 q 268 57 281 32 q 223 175 240 114 q 201 288 206 236 q 195 390 196 339 q 200 478 194 442 q 209 548 206 515 q 215 593 213 581 q 211 610 217 606 q 181 526 193 611 q 183 302 168 442 q 251 46 197 163 q 248 16 260 28 q 219 1 236 4 l 204 -1 m 401 -187 q 410 -225 421 -207 q 379 -243 403 -236 q 310 -232 335 -253 q 306 -231 308 -232 q 267 -165 281 -194 q 253 -126 256 -144 q 264 -99 249 -106 q 310 -83 286 -87 q 356 -107 346 -79 q 354 -115 357 -110 q 347 -119 353 -119 q 324 -126 333 -122 l 319 -128 l 318 -129 q 322 -128 319 -129 l 325 -128 q 349 -125 347 -125 q 368 -129 360 -125 l 371 -132 l 372 -132 q 374 -133 372 -133 l 375 -136 q 379 -143 376 -137 q 386 -161 386 -153 q 381 -172 389 -169 l 379 -172 q 336 -181 356 -179 q 367 -186 344 -189 q 369 -185 368 -185 q 394 -185 386 -183 l 397 -185 q 401 -187 399 -185 m 156 -44 q 219 -40 175 -50 q 255 -24 239 -36 q 276 -3 271 -12 l 282 7 q 376 -19 299 -19 q 450 -49 418 -18 q 461 -104 482 -79 q 400 -119 432 -137 q 385 -79 375 -104 q 389 -72 386 -75 q 365 -62 396 -64 q 206 -86 286 -58 q 96 -68 132 -111 q 90 -18 71 -39 q 101 -11 94 -14 q 142 -9 131 -1 q 156 -31 154 -17 l 156 -44 z "},")":{"ha":536,"x_min":90,"x_max":508,"o":"m 249 1008 q 239 949 256 967 q 186 936 218 925 q 151 978 154 947 q 194 1042 147 1011 q 276 1031 240 1071 q 283 944 311 992 q 271 942 278 936 q 268 953 263 944 q 275 972 272 958 l 275 974 q 249 1008 271 1003 m 394 686 q 478 274 483 461 q 403 -47 472 88 q 247 -255 333 -181 q 90 -332 161 -329 q 108 -314 89 -332 q 159 -256 126 -296 q 226 -158 192 -215 q 288 -16 261 -101 q 327 168 315 69 q 322 401 339 267 q 256 679 306 535 q 269 680 261 681 q 298 667 278 679 q 329 629 318 654 q 381 465 365 551 q 394 315 397 378 q 385 192 390 251 q 372 108 379 132 q 372 76 364 85 q 405 158 390 74 q 408 383 419 243 q 346 642 396 524 q 351 671 339 660 q 378 683 363 682 l 394 686 m 201 878 q 194 915 183 897 q 226 932 203 928 q 296 921 268 942 l 299 918 q 338 853 321 886 q 350 813 347 831 q 338 786 353 793 q 292 771 313 772 q 246 796 256 768 q 247 804 246 801 q 254 808 250 808 q 279 815 265 810 l 281 817 l 278 817 q 253 814 256 814 q 235 819 243 814 q 232 821 232 819 q 231 822 231 821 q 228 825 228 822 q 226 828 228 826 q 224 832 225 831 q 217 851 219 838 q 222 861 214 858 q 225 863 224 861 q 268 869 253 868 q 236 875 258 876 l 233 875 q 208 875 217 874 l 207 875 q 201 878 204 875 m 444 729 q 381 725 425 733 q 344 711 360 722 q 322 690 328 700 l 317 681 q 224 708 301 707 q 150 741 182 710 q 140 797 118 772 q 203 808 171 831 q 213 764 229 790 q 211 761 213 763 q 232 751 206 754 q 390 769 306 744 q 396 771 393 769 q 506 750 469 794 q 508 701 529 721 q 497 694 504 697 q 457 694 468 686 q 444 715 446 701 l 444 729 z "},"*":{"ha":538,"x_min":56,"x_max":518,"o":"m 353 760 q 365 734 360 749 q 373 709 371 719 q 378 683 375 699 q 383 661 382 668 q 392 599 396 604 q 382 594 389 596 q 371 596 375 593 l 353 614 q 338 623 347 618 q 321 633 328 628 q 316 640 319 635 q 310 649 313 646 q 301 656 307 653 l 296 660 q 278 694 293 664 l 265 719 q 256 706 261 714 q 243 685 250 699 q 233 668 236 672 q 219 654 231 665 q 204 642 207 643 q 171 640 194 635 q 140 657 147 646 q 138 675 138 660 q 144 701 139 690 q 154 717 144 703 q 158 726 156 719 q 161 736 160 733 q 193 776 174 760 q 101 811 160 781 q 56 847 58 835 q 58 858 54 851 q 67 865 63 864 l 89 865 q 103 870 94 865 q 119 876 113 875 q 129 876 122 878 q 138 875 136 875 q 147 877 142 875 q 154 879 153 879 q 190 874 168 879 q 226 869 215 871 l 226 883 q 225 911 226 892 q 225 939 224 931 q 230 964 225 944 q 238 986 235 983 q 268 1001 243 997 q 303 997 293 1004 q 318 957 315 992 q 317 949 318 956 q 317 939 317 942 q 319 928 317 936 q 321 918 321 921 q 317 840 324 883 q 336 850 328 849 q 342 852 338 851 q 349 853 347 853 l 363 860 q 461 874 396 876 q 517 860 508 871 q 517 849 518 857 q 514 839 517 842 q 508 836 513 838 q 501 833 504 835 q 496 831 497 831 q 486 819 492 828 q 475 807 481 811 q 467 803 474 806 q 460 800 461 801 q 453 794 457 799 q 449 790 450 790 l 415 778 q 368 761 382 764 l 365 761 q 358 762 363 761 q 350 763 354 763 l 353 760 z "},"+":{"ha":876,"x_min":0,"x_max":857,"o":"m 365 300 q 226 290 271 294 q 166 278 189 288 q 135 262 143 269 q 116 235 128 254 q 97 206 104 215 q 73 188 89 193 q 37 195 57 183 q 4 239 17 207 q 0 285 -3 271 q 13 318 3 299 q 25 346 24 338 q 14 388 26 358 q 3 443 1 417 q 30 500 6 485 q 92 494 54 515 q 126 461 110 483 q 162 424 143 439 q 213 408 181 410 q 365 406 290 406 q 360 594 365 515 q 341 649 357 628 q 308 680 325 671 q 278 708 290 689 q 269 756 265 726 q 317 794 272 782 q 397 785 361 807 q 435 774 418 769 q 465 789 453 778 q 499 801 476 800 q 554 782 522 801 q 557 696 607 749 q 528 670 551 690 q 492 633 504 650 q 478 594 481 617 q 468 407 468 522 q 647 415 564 410 q 702 435 681 418 q 732 469 724 451 q 759 499 740 486 q 807 508 778 511 q 847 462 833 506 q 839 382 861 418 q 828 342 824 360 q 843 314 832 325 q 856 280 854 303 q 839 225 858 257 q 799 199 822 199 q 753 221 776 199 q 726 249 744 228 q 690 283 707 271 q 650 297 672 296 q 469 304 569 307 q 476 172 475 200 q 488 111 479 135 q 504 80 496 88 q 531 60 513 72 q 560 40 550 49 q 576 16 572 32 q 568 -20 581 0 q 524 -51 556 -40 q 478 -56 492 -58 q 446 -42 465 -53 q 418 -29 426 -31 q 376 -40 406 -28 q 321 -50 347 -53 q 264 -22 279 -47 q 271 40 249 4 q 317 85 278 51 q 358 160 356 118 q 365 300 364 226 z "},",":{"ha":375,"x_min":-21,"x_max":354,"o":"m -21 -153 l 149 69 l 354 69 q 169 -128 267 -62 q 78 -163 125 -157 q 6 -161 31 -169 l -21 -153 z "},"-":{"ha":876,"x_min":0,"x_max":857,"o":"m 213 408 q 647 415 442 399 q 702 435 681 418 q 732 469 724 451 q 759 499 740 486 q 807 508 778 511 q 847 462 833 506 q 839 382 861 418 q 828 342 824 360 q 843 314 832 325 q 856 280 854 303 q 839 225 858 257 q 799 199 822 199 q 753 221 776 199 q 726 249 744 228 q 690 283 707 271 q 650 297 672 296 q 226 290 490 314 q 166 278 189 288 q 135 262 143 269 q 116 235 128 254 q 97 206 104 215 q 73 188 89 193 q 37 195 57 183 q 4 239 17 207 q 0 285 -3 271 q 13 318 3 299 q 25 346 24 338 q 14 388 26 358 q 3 443 1 417 q 30 500 6 485 q 92 494 54 515 q 126 461 110 483 q 162 424 143 439 q 213 408 181 410 z "},".":{"ha":367,"x_min":67,"x_max":329,"o":"m 219 -22 q 200 19 219 -8 l 200 21 q 181 -19 183 -3 l 181 -22 q 217 -22 192 -26 l 219 -22 m 106 44 q 107 40 107 43 q 149 18 114 11 q 178 56 185 25 q 138 79 174 83 q 106 47 103 72 l 106 44 m 219 56 q 220 52 219 54 q 221 49 221 50 q 247 19 228 26 q 286 22 275 11 q 294 53 301 39 q 267 76 289 67 q 232 76 247 83 q 219 56 222 69 m 200 250 q 328 186 289 249 q 328 44 367 124 l 328 43 q 328 24 325 39 q 329 14 329 19 q 326 -8 331 3 q 304 -29 319 -25 q 282 -32 293 -32 q 265 -35 267 -32 q 263 -50 258 -39 q 265 -64 265 -58 q 257 -83 265 -76 q 203 -96 247 -94 q 178 -94 185 -96 q 149 -85 160 -92 q 135 -65 136 -78 q 136 -47 135 -56 l 136 -46 q 136 -39 138 -40 q 121 -35 133 -36 l 119 -35 q 103 -32 111 -35 q 85 -22 92 -31 q 76 -3 78 -14 q 74 18 76 -1 l 74 26 q 69 47 72 39 l 69 49 q 68 51 68 50 q 67 56 67 53 q 71 181 40 128 q 193 250 103 239 l 196 250 l 200 250 z "},"/":{"ha":474,"x_min":-32,"x_max":451,"o":"m 28 61 q 25 18 13 38 q 74 57 49 53 q 121 31 104 61 q 121 -25 139 0 q 46 -44 100 -53 q -3 -12 11 -40 q -5 47 -18 17 q 42 89 8 78 q 53 83 50 92 q 47 72 56 75 q 29 63 33 67 l 28 61 m 149 86 q 129 53 149 60 q 93 60 113 49 q 47 115 54 82 l 47 119 q 61 196 50 157 q 78 233 67 221 q 104 247 89 251 q 149 228 132 240 q 168 178 181 206 q 161 174 167 174 q 158 172 160 172 q 154 174 156 172 l 153 175 q 150 176 150 175 q 125 188 142 182 l 126 186 l 129 185 q 150 169 139 178 q 163 153 158 161 l 163 150 q 164 149 163 149 q 163 143 164 144 l 163 140 q 158 125 158 126 l 154 117 q 143 113 150 110 q 142 114 142 113 q 103 136 119 125 l 104 132 q 107 126 106 128 q 125 110 108 124 l 126 110 q 144 93 139 101 l 146 92 q 149 86 149 89 m 29 326 q 88 308 44 315 q 125 310 107 304 q 153 322 143 315 l 161 329 q 164 320 161 326 q 185 299 167 314 q 236 271 204 283 q 291 217 274 257 q 279 160 308 176 q 219 167 242 139 q 222 213 201 192 q 228 217 225 214 q 211 235 236 222 q 60 269 144 265 q 57 269 58 269 q -32 324 -14 272 q -22 374 -46 360 q -7 378 -15 378 q 30 365 21 378 q 33 339 39 353 l 29 326 m 99 371 q 261 840 200 682 q 357 1058 322 997 q 449 1182 392 1118 l 451 1172 q 385 807 463 1074 q 213 321 322 593 q 208 322 211 321 q 199 324 206 322 q 190 331 193 326 q 183 344 186 336 q 186 365 181 353 q 266 604 214 453 q 339 824 318 756 q 353 901 360 892 q 331 869 347 908 q 168 385 307 815 q 165 374 167 379 q 143 353 160 354 q 113 361 126 353 l 99 371 z "},":":{"ha":369,"x_min":67,"x_max":332,"o":"m 224 521 q 204 564 224 536 q 183 524 185 539 l 183 522 q 219 521 194 519 l 224 521 m 110 589 q 111 585 110 586 q 125 565 113 571 q 153 561 138 558 q 176 574 168 564 q 181 599 183 585 q 140 622 176 626 q 108 590 106 618 l 110 589 m 222 599 q 224 592 224 597 q 251 563 233 568 q 289 567 279 557 q 297 597 304 582 q 271 619 290 613 q 236 619 249 628 q 222 599 224 615 m 219 -22 q 200 19 219 -8 l 200 21 q 181 -19 183 -3 l 181 -22 q 217 -22 192 -26 l 219 -22 m 106 44 q 107 40 107 43 q 149 18 114 11 q 178 56 185 25 q 138 79 174 83 q 106 47 103 72 l 106 44 m 219 56 q 220 52 219 54 q 221 49 221 50 q 247 19 228 26 q 286 22 275 11 q 294 53 301 39 q 267 76 289 67 q 232 76 247 83 q 219 56 222 69 m 204 794 q 331 730 293 792 q 332 588 369 668 l 331 588 q 331 567 329 581 q 332 558 332 563 q 329 535 335 544 q 308 515 322 519 q 286 513 301 513 l 285 513 q 268 510 274 513 q 267 493 264 506 q 268 486 267 490 q 269 479 268 482 q 261 461 269 467 q 207 449 247 449 l 181 449 q 153 458 164 450 q 139 479 142 467 q 140 496 138 488 l 140 497 l 140 504 q 125 508 139 506 l 122 508 q 114 509 119 508 q 106 511 108 510 q 89 522 96 513 q 81 542 83 528 l 78 561 q 76 569 78 567 q 74 590 76 582 l 72 592 q 71 594 72 594 l 71 596 q 69 600 71 597 q 74 724 43 669 q 196 794 108 783 l 200 794 l 204 794 m 200 250 q 328 186 289 249 q 328 44 367 124 l 328 43 q 328 24 325 39 q 329 14 329 19 q 326 -8 331 3 q 304 -29 319 -25 q 282 -32 293 -32 q 265 -35 267 -32 q 263 -50 258 -39 q 265 -64 265 -58 q 257 -83 265 -76 q 203 -96 247 -94 q 178 -94 185 -96 q 149 -85 160 -92 q 135 -65 136 -78 q 136 -47 135 -56 l 136 -46 q 136 -39 138 -40 q 121 -35 133 -36 l 119 -35 q 103 -32 111 -35 q 85 -22 92 -31 q 76 -3 78 -14 q 74 18 76 -1 l 74 26 q 69 47 72 39 l 69 49 q 68 51 68 50 q 67 56 67 53 q 71 181 40 128 q 193 250 103 239 l 196 250 l 200 250 z "},";":{"ha":365,"x_min":-40,"x_max":335,"o":"m 218 503 q 200 544 219 514 l 199 544 q 179 506 181 518 l 179 503 q 215 501 190 500 l 218 503 m 104 569 q 106 565 106 568 q 147 543 113 536 q 176 581 183 550 q 136 603 171 610 q 112 592 121 601 q 104 572 103 583 l 104 569 m 218 581 q 219 576 218 579 l 219 574 q 246 544 226 549 q 285 547 274 536 q 293 578 299 564 q 265 600 286 593 q 232 601 246 608 q 218 581 221 596 m 199 775 q 327 710 289 772 q 328 569 365 649 l 326 568 q 326 549 325 561 q 328 539 328 543 q 325 517 329 528 q 304 496 319 500 q 281 493 297 493 q 264 490 267 493 q 261 474 258 485 q 264 461 264 467 q 257 442 265 450 q 203 429 244 431 q 176 431 185 429 q 149 439 161 432 q 135 460 135 449 q 135 478 133 467 q 136 486 136 485 q 119 489 131 489 q 118 490 119 490 q 109 491 114 490 q 101 492 104 492 q 83 503 90 496 q 75 522 81 507 q 74 531 75 525 q 74 542 74 536 q 72 550 72 547 q 72 558 72 554 q 70 566 71 563 q 69 571 69 569 l 68 572 l 67 574 q 67 576 67 575 q 65 581 65 578 q 69 704 40 651 q 192 775 104 764 l 194 775 l 199 775 m -40 -153 l 128 68 l 335 68 q 149 -129 246 -64 q 58 -165 106 -158 q -14 -161 11 -171 l -40 -153 z "},"<":{"ha":875,"x_min":-15,"x_max":853,"o":"m 249 404 q 650 236 443 304 q 709 233 682 225 q 751 256 736 242 q 789 275 765 269 q 838 265 813 281 q 853 201 860 254 q 811 125 846 149 q 783 90 788 108 q 785 55 779 71 q 781 15 790 39 q 742 -33 772 -10 q 693 -44 714 -53 q 660 -3 672 -35 q 648 37 656 6 q 630 87 640 68 q 600 117 619 106 q 210 279 475 189 q 149 292 174 292 q 113 287 124 292 q 84 267 103 282 q 54 246 65 253 q 24 240 42 240 q -6 259 7 239 q -15 317 -18 279 q -1 363 -14 344 q 27 394 11 381 q 49 415 43 407 q 54 428 51 419 q 53 439 54 435 q 25 472 49 450 q -8 517 1 493 q -8 581 -24 556 q 50 601 8 607 q 110 580 64 600 q 196 575 157 560 q 588 765 400 657 q 629 806 617 782 q 642 850 642 831 q 653 888 642 869 q 693 917 665 907 q 750 890 718 925 q 775 815 782 854 q 782 776 771 790 q 808 756 793 761 q 835 729 824 750 q 842 672 846 708 q 765 632 836 613 q 736 644 756 635 q 706 656 717 653 q 674 663 694 660 q 640 660 653 667 q 258 474 497 610 q 210 440 229 457 q 249 404 221 418 z "},"=":{"ha":1046,"x_min":10,"x_max":1026,"o":"m 222 565 q 657 571 438 553 q 712 590 690 574 q 742 624 733 607 q 769 654 750 642 q 817 664 788 667 q 857 617 843 661 q 849 538 871 574 q 838 499 835 517 q 853 470 842 482 q 866 435 864 458 q 849 381 868 413 q 809 355 832 354 q 763 376 786 356 q 735 406 756 383 q 699 440 715 428 q 660 454 682 451 q 236 447 518 468 q 176 435 199 444 q 145 418 153 426 q 126 390 138 410 q 107 361 114 371 q 90 348 101 353 q 66 344 79 343 q 39 358 53 344 q 15 396 25 371 q 10 440 7 426 q 23 474 13 454 q 35 501 33 493 q 24 543 36 514 q 13 599 11 572 q 40 656 15 640 q 101 650 64 671 q 137 617 119 639 q 172 581 154 594 q 222 565 190 567 m 382 257 q 817 264 611 247 q 872 283 850 267 q 901 317 893 300 q 928 347 910 335 q 976 357 947 360 q 1017 310 1003 354 q 1008 231 1031 267 q 997 191 993 208 q 1013 163 1001 174 q 1026 128 1024 151 q 1008 74 1028 106 q 969 47 992 47 q 922 69 946 47 q 895 98 914 76 q 859 132 876 119 q 819 146 842 144 q 396 139 678 160 q 335 127 358 136 q 305 110 313 118 q 285 83 297 103 q 267 54 274 64 q 242 37 258 42 q 206 44 226 32 q 174 88 186 56 q 169 133 167 119 q 183 165 172 146 q 194 194 193 185 q 183 236 196 207 q 172 292 171 265 q 199 349 175 333 q 260 343 224 364 q 295 310 278 332 q 331 273 313 288 q 382 257 350 258 z "},">":{"ha":882,"x_min":-8,"x_max":861,"o":"m 206 206 q 597 396 417 292 q 639 438 625 413 q 608 468 628 458 q 218 631 486 539 q 157 643 182 643 q 122 638 132 643 q 92 618 111 633 q 61 596 72 603 q 13 598 38 582 q -8 668 -12 614 q 6 713 -6 696 q 35 744 18 731 q 57 765 51 757 q 65 812 64 778 q 79 871 67 846 q 130 917 100 911 q 183 888 160 924 q 201 839 194 868 q 217 789 207 810 q 257 754 228 768 q 657 588 454 653 q 716 584 689 576 q 758 606 743 592 q 797 625 774 619 q 844 615 821 631 q 861 553 868 604 q 818 476 854 501 q 791 442 794 461 q 793 406 788 422 q 817 388 799 399 q 845 358 836 376 q 851 304 854 340 q 826 263 849 274 q 775 264 803 253 q 745 275 764 267 q 715 288 726 283 q 683 294 703 292 q 649 290 663 297 q 268 106 517 244 q 219 69 236 86 q 198 41 201 51 q 192 8 194 31 q 188 -26 190 -15 q 156 -60 182 -53 q 89 -35 131 -68 q 65 4 71 -17 q 63 39 60 25 q 63 69 67 53 q 35 103 58 82 q 1 149 11 124 q 2 212 -14 186 q 60 232 18 238 q 120 210 74 231 q 206 206 167 190 z "},"?":{"ha":894,"x_min":146,"x_max":875,"o":"m 428 -96 q 408 -54 428 -82 l 408 -53 q 389 -93 392 -76 l 389 -94 q 425 -96 403 -99 l 428 -96 m 314 -29 q 315 -33 315 -31 q 357 -56 322 -62 q 386 -18 393 -49 q 346 6 382 10 q 314 -26 311 -1 l 314 -29 m 428 -18 q 428 -22 428 -19 q 429 -25 429 -24 q 456 -54 436 -47 q 494 -51 483 -62 q 503 -21 510 -35 q 475 3 497 -7 q 440 3 456 10 q 428 -18 429 -4 m 360 240 q 341 315 343 281 q 351 377 339 349 q 383 428 364 406 q 436 473 403 451 q 502 511 469 494 q 579 546 535 528 q 678 612 638 571 q 734 698 718 653 q 745 788 750 743 q 713 868 740 833 q 550 996 643 956 q 377 1022 457 1036 q 251 949 297 1008 q 224 765 197 875 q 278 658 239 706 q 347 592 317 610 l 379 572 q 161 772 228 610 q 147 881 143 810 q 181 1001 150 951 q 411 1129 265 1139 q 510 1113 460 1125 q 619 1075 561 1100 q 731 1005 678 1050 q 821 899 785 960 q 874 704 874 808 q 829 532 875 600 q 733 436 797 481 q 599 367 669 392 q 541 348 579 360 q 478 328 503 336 q 424 306 453 319 q 380 277 396 293 q 360 240 364 261 m 408 176 q 536 113 497 175 q 538 -29 575 50 l 536 -31 q 536 -50 535 -37 q 538 -58 538 -54 q 535 -82 539 -71 q 513 -103 529 -96 q 490 -106 501 -106 q 474 -107 475 -106 q 471 -124 467 -114 q 474 -137 474 -132 q 465 -157 474 -150 q 413 -169 456 -167 q 386 -168 393 -169 q 357 -158 368 -165 q 343 -139 344 -151 q 344 -121 343 -129 l 344 -119 q 344 -112 346 -114 q 329 -108 342 -110 l 328 -108 q 311 -106 319 -108 q 293 -96 300 -103 q 285 -76 286 -87 q 284 -67 285 -74 q 283 -56 283 -61 q 282 -47 282 -51 q 278 -26 281 -35 l 278 -25 q 276 -22 276 -24 q 275 -18 275 -21 q 279 107 249 54 q 401 176 311 165 l 404 176 l 408 176 z "},"@":{"ha":1175,"x_min":192,"x_max":1154,"o":"m 811 474 q 742 651 789 538 q 732 669 736 665 q 723 666 728 672 q 708 640 718 660 l 708 639 q 673 558 700 619 q 632 463 646 497 q 811 474 726 450 m 817 272 q 835 269 824 271 q 860 278 846 268 q 865 314 874 289 q 859 334 864 318 q 851 358 854 350 q 578 326 717 307 q 591 292 575 304 q 624 279 607 281 l 640 278 q 588 240 624 236 q 451 246 496 251 q 418 276 418 244 q 434 276 424 275 q 467 289 444 276 q 506 329 490 301 q 663 683 579 464 l 663 686 q 660 755 674 731 q 626 781 646 779 l 607 783 q 650 820 617 808 q 719 825 683 832 q 774 803 750 819 q 814 761 797 788 q 840 715 831 735 q 861 663 850 694 q 876 622 872 631 q 919 517 897 575 q 1042 626 999 563 q 1072 754 1085 690 q 981 856 1058 818 q 992 865 985 860 q 1021 878 999 869 q 1061 878 1043 888 q 1128 817 1099 865 q 1154 699 1158 769 q 1097 547 1149 624 q 960 414 1044 471 q 997 319 972 379 q 1022 281 1008 293 q 1044 271 1036 269 l 1053 272 q 983 240 1038 232 q 863 240 926 249 q 817 272 831 236 m 854 72 q 1125 132 947 85 q 929 21 1044 54 q 788 -5 865 1 q 616 5 711 -11 q 449 65 521 21 q 192 489 201 215 q 249 721 186 593 q 398 913 304 832 q 600 1018 492 993 q 794 1025 717 1039 q 903 976 872 1011 q 918 938 919 956 q 907 906 917 919 l 897 893 q 700 951 799 950 q 525 911 601 953 q 390 797 449 869 q 303 638 331 724 q 285 460 276 553 q 343 293 293 368 q 441 183 386 229 q 549 115 496 138 q 660 79 603 93 q 765 67 717 65 q 854 72 813 69 z "},"A":{"ha":1274,"x_min":-31,"x_max":1254,"o":"m 790 490 q 697 722 742 619 q 680 753 686 747 q 665 748 674 758 q 639 703 656 738 l 638 700 q 583 574 600 613 q 790 490 689 544 m 831 46 q 838 45 833 46 q 853 43 842 44 q 875 43 865 42 q 897 48 885 44 q 915 61 910 51 q 923 85 919 71 q 918 121 926 99 q 898 183 914 136 q 874 257 882 229 q 526 440 714 383 q 415 185 440 247 q 405 121 400 146 q 428 83 410 96 q 465 63 446 69 q 500 56 485 57 l 517 56 q 422 -10 486 -18 q 179 0 260 8 q 136 14 153 -3 q 119 54 119 31 q 131 53 124 54 q 158 56 138 53 q 197 68 178 60 q 238 97 215 76 q 276 147 260 117 q 429 464 357 296 q 225 467 311 486 q 103 390 139 449 q 107 231 68 332 q 83 235 97 232 q 36 256 68 238 q -12 300 4 274 q -30 374 -28 333 q -1 462 -32 414 q 88 544 29 510 q 485 596 247 638 q 556 781 515 671 q 557 785 557 782 q 564 872 569 838 q 541 923 558 906 q 505 948 524 940 q 472 956 486 956 l 457 957 q 535 1024 476 1001 q 657 1033 593 1046 q 740 1001 701 1025 q 804 947 779 976 q 852 876 829 918 q 888 803 875 835 q 915 731 900 772 q 939 671 931 689 q 1053 385 989 553 q 1154 129 1117 217 q 1199 63 1174 83 q 1239 44 1224 43 l 1254 47 q 1128 -11 1222 -24 q 914 -10 1033 4 q 831 46 854 -18 z "},"B":{"ha":967,"x_min":15,"x_max":944,"o":"m 339 278 q 401 134 354 183 q 518 90 447 85 q 586 101 557 93 q 649 127 615 108 q 700 183 682 146 q 718 276 718 221 q 693 410 719 351 q 624 476 667 469 q 579 488 601 481 q 482 547 515 504 q 465 644 449 589 q 471 641 465 647 q 488 623 476 635 q 513 599 499 611 q 552 581 528 588 q 604 579 576 575 q 669 638 644 586 q 694 756 694 689 q 676 838 694 804 q 627 888 658 871 q 568 910 596 904 q 503 919 540 917 q 383 871 429 925 q 328 717 336 817 l 328 711 q 339 278 322 513 m 15 53 q 24 51 18 51 q 44 51 29 50 q 69 59 58 53 q 92 84 81 65 q 106 132 103 103 q 124 482 121 290 q 113 843 128 674 q 84 917 107 889 q 42 951 61 946 l 21 957 q 50 994 31 983 q 111 1000 69 1006 q 375 1001 192 989 q 383 1003 381 1001 l 411 1003 q 651 1008 563 1015 q 814 954 740 1001 q 903 838 879 911 q 917 701 928 765 q 876 596 907 638 q 761 504 829 533 q 897 404 836 478 q 944 228 958 338 q 844 51 929 119 q 776 10 811 25 q 684 -8 742 -4 q 596 -13 626 -12 q 472 -8 565 -14 q 340 -1 378 -3 l 336 -1 q 280 0 317 -1 q 222 2 243 1 q 167 1 200 3 q 101 -4 133 0 q 15 53 39 -11 z "},"C":{"ha":868,"x_min":7,"x_max":847,"o":"m 847 988 q 839 969 844 981 q 811 927 833 957 q 759 876 789 897 q 675 838 729 854 q 556 824 621 821 q 476 842 515 825 q 453 852 468 844 q 429 862 438 860 q 407 865 421 864 q 376 860 393 865 q 335 842 358 854 q 247 713 278 810 q 217 497 217 615 q 292 219 217 313 q 451 125 367 125 l 467 125 q 583 159 538 132 q 644 221 629 186 q 664 289 660 256 q 664 344 668 322 l 658 368 q 691 358 671 365 q 747 320 711 351 q 792 244 783 289 q 774 148 800 201 q 698 50 747 94 q 574 -21 649 6 q 421 -39 499 -47 q 390 -35 407 -39 q 110 144 206 -3 q 22 352 47 240 q 7 563 -3 464 q 54 750 17 663 q 152 907 97 849 q 304 1006 207 965 q 405 1041 351 1029 q 489 1053 458 1053 l 518 1054 q 564 1006 532 1028 q 571 1002 567 1004 q 576 999 575 1000 q 690 971 622 974 q 803 978 757 968 l 847 988 z "},"D":{"ha":961,"x_min":21,"x_max":936,"o":"m 21 56 q 29 53 24 54 q 49 53 35 53 q 76 61 64 54 q 98 87 88 68 q 111 135 108 106 q 131 488 126 292 q 119 851 135 683 q 91 927 114 899 q 47 961 68 956 l 28 967 q 57 1003 38 993 q 118 1008 76 1014 q 388 1008 219 997 q 432 1010 410 1010 q 575 1011 522 1010 q 740 964 651 1011 q 865 850 828 917 q 933 639 917 757 q 936 422 949 521 q 893 242 924 324 q 772 56 844 111 q 583 -3 699 0 q 407 -3 476 -6 q 372 -1 388 -3 q 108 -3 226 11 q 21 56 47 -10 m 336 676 q 335 653 336 657 q 356 171 332 403 l 356 165 q 357 147 357 158 q 403 106 363 121 q 550 89 443 92 q 642 125 606 88 q 695 231 679 163 q 716 368 711 300 q 719 522 721 436 q 664 819 715 715 q 526 925 613 922 q 455 922 482 926 q 398 901 428 918 q 353 840 368 883 q 336 728 339 797 q 335 715 336 724 q 335 703 335 707 q 336 676 335 685 z "},"E":{"ha":868,"x_min":7,"x_max":847,"o":"m 847 988 q 839 969 844 981 q 811 927 833 957 q 759 876 789 897 q 675 838 729 854 q 556 824 621 821 q 476 842 515 825 q 453 852 468 844 q 429 862 438 860 q 407 865 421 864 q 376 860 393 865 q 335 842 358 854 q 233 658 261 801 q 281 583 249 614 q 377 536 321 547 q 469 551 433 525 q 488 639 506 578 q 503 654 483 653 q 586 629 543 660 q 619 579 615 608 q 582 469 632 507 q 450 435 532 432 q 217 496 353 438 q 292 219 217 313 q 451 125 367 125 l 467 125 q 583 159 538 132 q 644 221 629 186 q 664 289 660 256 q 664 344 668 322 l 658 368 q 691 358 671 365 q 747 320 711 351 q 792 244 783 289 q 774 148 800 201 q 698 50 747 94 q 574 -21 649 6 q 421 -39 499 -47 q 390 -35 407 -39 q 110 144 206 -3 q 22 352 47 240 q 7 563 -3 464 q 54 750 17 663 q 152 907 97 849 q 304 1006 207 965 q 405 1041 351 1029 q 489 1053 458 1053 l 518 1054 q 564 1006 532 1028 q 571 1002 567 1004 q 576 999 575 1000 q 690 971 622 974 q 803 978 757 968 l 847 988 z "},"F":{"ha":946,"x_min":24,"x_max":925,"o":"m 24 46 q 110 63 71 35 q 164 190 149 92 q 190 708 190 365 q 183 826 188 790 q 57 943 157 967 q 58 951 57 946 q 65 967 58 956 q 81 985 71 978 q 113 998 92 993 q 161 1000 133 1003 q 535 996 228 992 l 814 1010 q 829 863 792 957 q 849 831 836 846 q 874 805 861 815 q 900 786 888 794 q 919 772 913 778 q 925 764 926 767 q 907 749 922 754 q 878 744 892 744 l 865 743 q 842 748 857 744 q 786 774 826 751 q 713 831 746 796 q 578 903 660 888 q 451 875 496 918 q 401 723 397 821 q 463 574 404 625 q 559 526 503 538 q 651 542 615 515 q 669 629 688 568 q 685 644 665 643 q 768 619 725 650 q 801 569 797 597 q 764 458 814 496 q 632 424 714 421 q 529 441 588 425 q 435 472 471 457 l 399 486 l 397 386 q 410 188 401 271 q 414 154 414 169 l 414 151 q 448 72 421 96 q 499 50 475 47 l 522 53 q 392 0 493 -14 q 196 8 278 17 q 117 -1 183 7 q 48 8 71 -4 q 25 33 25 19 l 24 46 z "},"G":{"ha":896,"x_min":24,"x_max":876,"o":"m 876 981 q 868 962 874 974 q 840 920 863 950 q 786 868 817 890 q 701 829 756 846 q 581 815 646 813 q 500 833 542 817 q 476 844 492 836 q 453 853 461 851 q 431 857 446 856 q 399 852 417 858 q 358 833 382 846 q 269 703 300 801 q 239 486 239 606 q 315 205 239 300 q 476 110 390 110 l 492 110 q 688 251 658 125 q 624 415 701 372 q 529 442 567 443 q 474 428 492 442 l 456 413 q 478 477 453 450 q 569 515 503 504 q 670 518 608 521 q 760 513 732 515 q 810 525 788 511 l 847 489 q 824 323 825 431 q 822 204 824 215 q 785 111 819 161 q 696 19 750 61 q 564 -43 642 -22 q 408 -49 486 -64 q 403 -47 407 -47 q 400 -46 400 -47 q 353 -32 374 -42 q 131 129 218 15 q 36 335 61 221 q 24 550 11 449 q 75 742 36 651 q 286 976 142 896 q 402 1029 338 1011 q 506 1047 467 1047 l 543 1049 q 588 1001 558 1019 q 595 997 590 1000 q 603 992 600 993 q 717 964 649 967 q 831 971 786 961 l 876 981 z "},"H":{"ha":1242,"x_min":28,"x_max":1222,"o":"m 588 44 q 596 42 590 43 q 616 42 601 42 q 642 50 631 43 q 665 76 654 57 q 678 124 675 94 q 697 449 690 250 q 351 293 514 399 q 364 135 358 196 q 392 60 369 83 q 433 42 414 38 l 451 44 q 338 -11 422 -25 q 230 1 263 0 q 114 -6 197 3 q 28 47 50 -12 q 36 45 31 46 q 56 46 42 44 q 82 53 71 47 q 104 78 93 60 q 118 126 115 97 q 137 479 133 286 q 125 844 140 672 q 97 920 119 892 q 53 954 74 949 l 33 960 q 63 997 43 986 q 125 1003 82 1008 q 346 1001 233 989 q 421 998 397 1008 q 449 957 444 988 q 439 959 444 958 q 417 956 433 960 q 389 944 401 953 q 365 910 376 935 q 349 851 353 886 q 343 469 336 699 q 699 606 518 575 q 686 847 699 747 q 658 924 681 894 q 614 958 635 953 l 594 964 q 624 1002 604 992 q 685 1007 643 1013 q 907 1006 793 993 q 982 1002 958 1013 q 1010 961 1006 992 q 1000 963 1006 963 q 978 960 994 964 q 950 947 963 957 q 926 914 938 938 q 910 854 914 890 q 901 617 901 756 q 1101 557 1015 606 q 1192 474 1161 522 q 1222 386 1224 426 q 1203 313 1219 346 q 1156 269 1186 286 q 1104 247 1126 251 l 1082 243 q 1075 414 1126 354 q 904 476 1024 474 q 925 133 910 289 q 953 58 931 81 q 994 38 975 35 l 1013 40 q 971 -9 997 4 q 899 -15 944 -22 q 790 -2 822 -3 q 675 -10 757 -1 q 588 44 611 -17 z "},"I":{"ha":493,"x_min":50,"x_max":474,"o":"m 50 51 q 58 49 53 50 q 78 49 64 49 q 105 56 93 50 q 127 81 117 63 q 140 129 138 100 q 160 482 156 286 q 149 844 164 678 q 120 920 143 892 q 78 954 97 949 l 57 960 q 86 997 67 986 q 147 1001 106 1007 q 368 1001 268 989 q 443 997 419 1008 q 469 956 467 986 q 460 958 465 957 q 439 955 454 958 q 411 943 424 951 q 387 910 399 935 q 371 851 375 886 q 365 489 360 686 q 386 139 371 292 q 414 65 392 88 q 456 44 436 42 l 474 47 q 360 -7 444 -21 q 248 3 286 3 q 129 -7 210 3 q 81 3 99 -10 q 50 51 64 17 z "},"J":{"ha":910,"x_min":50,"x_max":886,"o":"m 50 957 q 77 951 60 954 q 142 942 94 947 q 228 942 189 938 q 310 967 268 946 q 372 1026 351 988 q 543 993 454 1029 q 836 719 754 917 q 886 526 874 628 q 874 308 899 424 q 781 101 849 193 q 658 -12 732 36 q 513 -76 585 -61 q 288 -44 394 -100 q 204 13 225 -10 q 131 97 158 51 q 101 181 104 143 q 99 307 99 199 q 76 474 99 415 l 113 510 q 161 498 121 497 q 249 503 201 499 q 349 500 297 507 q 460 396 465 481 q 453 403 457 399 q 434 415 449 407 q 401 425 419 422 q 355 422 383 428 q 294 399 326 417 q 232 243 222 357 q 457 83 254 89 q 531 110 494 88 q 600 176 567 133 q 653 294 633 219 q 674 463 674 368 q 643 674 674 578 q 557 813 613 771 q 506 847 518 842 q 486 849 494 853 q 336 792 400 794 q 219 805 272 789 q 137 845 167 821 q 86 895 107 869 q 58 939 65 921 l 50 957 z "},"K":{"ha":2275,"x_min":18,"x_max":2254,"o":"m 653 833 q 673 899 683 872 q 633 939 663 925 l 606 951 q 635 989 615 978 q 697 994 654 1000 q 963 999 793 982 q 1006 987 990 1001 q 1022 947 1022 972 q 993 941 1011 946 q 925 909 975 936 q 835 842 875 882 q 624 648 742 753 q 458 497 506 543 q 572 375 486 415 q 749 258 649 340 q 920 102 849 175 q 1131 -118 992 29 q 1339 -335 1269 -265 q 1743 -569 1501 -500 q 2065 -583 1944 -629 q 2138 -422 2181 -540 q 2131 -403 2135 -412 q 2239 -458 2206 -410 q 2254 -519 2253 -486 q 2228 -591 2256 -551 q 2149 -658 2201 -631 q 1889 -704 2038 -717 q 1582 -628 1740 -692 q 1276 -460 1424 -564 q 781 -58 1024 -282 q 413 378 539 165 q 336 481 381 433 q 357 131 340 282 q 384 56 363 79 q 425 36 406 33 l 444 39 q 331 -17 415 -31 q 221 -7 256 -7 q 106 -17 186 -7 q 18 42 44 -22 q 26 40 21 40 q 47 40 32 39 q 73 48 61 42 q 95 73 85 54 q 108 121 106 92 q 128 477 124 279 q 117 843 132 675 q 88 919 111 890 q 44 953 65 947 l 24 958 q 53 997 33 986 q 115 1001 72 1007 q 381 1006 213 989 q 426 994 410 1008 q 442 956 442 981 q 432 958 438 957 q 410 955 426 958 q 382 942 394 951 q 358 909 369 933 q 342 850 346 885 q 333 565 331 732 q 398 615 342 572 q 488 684 454 658 q 570 753 521 710 q 653 833 619 797 z "},"L":{"ha":896,"x_min":22,"x_max":876,"o":"m 22 42 q 108 60 68 31 q 163 188 147 89 q 185 735 189 371 q 151 901 185 842 q 49 946 117 961 q 49 953 49 949 q 56 969 50 958 q 72 988 63 981 q 103 1001 82 996 q 153 1003 125 1007 q 500 1008 303 986 q 569 997 544 1013 q 597 961 594 981 l 599 943 q 513 923 557 944 q 443 875 468 901 q 399 747 411 843 q 392 569 388 650 l 396 489 q 418 207 383 308 q 465 142 431 169 q 542 105 500 114 q 629 114 583 96 q 706 178 675 132 q 803 303 764 264 q 876 332 843 343 q 828 161 836 263 l 815 -7 q 492 3 654 1 q 117 -4 201 3 q 47 3 71 -8 q 22 28 24 14 l 22 42 z "},"M":{"ha":1231,"x_min":-6,"x_max":1210,"o":"m 831 47 q 843 47 832 49 q 872 51 854 46 q 907 65 890 57 q 936 93 924 72 q 950 143 949 114 q 944 758 954 306 q 922 704 939 746 q 894 638 906 663 q 762 353 836 501 q 675 169 688 206 q 642 147 669 153 q 589 142 614 140 l 565 144 q 540 154 551 144 q 521 172 525 161 q 435 357 508 210 q 304 640 361 504 q 253 765 269 724 q 256 146 251 599 q 285 74 256 99 q 344 50 315 50 l 374 50 q 337 1 360 14 q 274 -6 314 -12 q 177 7 203 6 q 76 0 151 8 q -6 49 14 -7 q 7 49 -4 50 q 35 52 18 47 q 69 65 53 57 q 99 94 86 74 q 113 144 111 115 q 106 860 115 219 q 94 920 106 896 q 69 953 83 944 q 40 966 54 963 q 14 967 25 969 l 4 965 q 30 1003 13 992 q 85 1008 47 1014 q 281 1007 136 1001 q 344 964 314 1008 q 422 826 382 915 q 519 580 461 736 q 600 365 576 424 q 658 497 617 403 q 722 642 699 592 q 777 763 744 692 q 834 881 810 833 q 879 961 858 929 q 896 986 888 975 l 897 988 q 968 1006 917 1010 q 1008 1003 985 1004 q 1043 1001 1032 1001 q 1074 1002 1054 1001 q 1117 1006 1093 1003 q 1183 1002 1163 1013 q 1207 961 1204 992 q 1194 965 1203 963 q 1167 967 1186 968 q 1132 957 1147 967 q 1103 917 1117 947 q 1090 840 1090 888 q 1093 144 1086 574 q 1122 73 1093 97 q 1181 49 1151 49 l 1210 49 q 1173 -1 1196 13 q 1110 -7 1150 -14 q 1015 6 1044 6 q 913 -1 986 7 q 831 47 850 -8 z "},"N":{"ha":1049,"x_min":35,"x_max":1028,"o":"m 35 50 q 47 50 36 51 q 76 54 58 49 q 110 67 93 60 q 140 96 128 75 q 153 146 153 117 q 147 857 156 251 q 135 917 146 893 q 110 950 125 942 q 81 962 96 958 q 56 964 67 965 l 46 961 q 72 998 56 988 q 126 1003 89 1008 q 319 1003 232 990 q 349 1004 331 1004 q 399 1003 386 1011 q 470 888 431 983 q 567 647 510 793 q 679 403 625 500 q 733 301 714 340 q 730 606 735 406 q 725 840 725 806 q 697 927 724 899 q 642 956 669 956 l 615 956 q 641 993 625 982 q 694 999 657 1004 q 889 997 790 985 q 994 958 989 1011 q 983 962 990 960 q 957 962 975 964 q 924 949 939 960 q 898 908 910 939 q 886 831 886 878 q 892 135 883 411 q 928 68 893 85 q 1021 93 971 63 q 1028 92 1028 97 q 1019 68 1026 88 q 955 -22 997 8 q 866 -53 913 -53 q 777 -42 819 -54 q 706 -8 735 -29 q 592 164 658 26 q 445 474 526 301 q 292 736 364 646 q 296 147 292 372 q 308 96 296 117 q 338 67 321 75 q 372 54 354 58 q 400 50 389 50 l 413 51 q 313 -3 388 -17 q 217 9 246 8 q 117 1 189 10 q 35 50 54 -6 z "},"O":{"ha":979,"x_min":96,"x_max":958,"o":"m 840 922 q 803 892 826 910 q 714 848 781 874 q 589 833 647 822 q 540 847 564 838 q 505 863 517 856 q 476 881 493 869 q 456 894 458 893 q 429 869 444 888 q 344 717 379 808 q 310 524 310 626 q 378 254 310 347 q 529 151 446 161 q 535 151 532 151 q 539 150 538 150 q 708 206 639 146 q 824 389 776 267 q 858 590 861 500 q 832 736 854 679 l 810 792 q 825 779 815 788 q 859 743 835 771 q 903 683 883 715 q 939 601 922 651 q 958 497 956 551 q 775 69 969 239 q 649 3 722 24 q 485 -11 568 -25 q 203 169 301 24 q 96 487 108 315 q 147 776 83 658 q 440 1024 233 950 q 451 1026 444 1025 q 461 1029 458 1028 q 532 1045 496 1040 q 586 1050 568 1050 l 606 1050 q 697 958 639 990 q 797 925 756 926 l 840 922 z "},"P":{"ha":1004,"x_min":69,"x_max":986,"o":"m 69 46 q 78 44 72 44 q 98 44 83 43 q 124 51 113 44 q 147 77 136 58 q 160 125 157 96 q 179 479 175 288 q 168 844 183 671 q 139 920 163 892 q 94 954 115 949 l 75 960 q 104 998 85 988 q 167 1003 124 1008 q 443 1006 244 993 q 476 1007 458 1007 q 715 1011 626 1018 q 876 957 803 1004 q 960 859 933 919 q 985 742 988 799 q 963 635 983 685 q 897 532 946 588 q 596 443 801 424 q 435 590 415 461 q 501 660 442 638 q 560 658 550 676 q 561 650 563 656 q 569 571 546 597 q 636 544 592 544 q 678 550 665 547 q 696 556 685 553 q 749 633 736 575 q 756 757 763 692 q 731 839 750 806 q 682 889 713 872 q 625 913 651 906 q 563 922 599 919 q 440 873 488 928 q 385 717 393 818 l 385 711 q 407 133 379 426 q 434 59 413 82 q 475 39 456 36 l 494 42 q 381 -12 465 -26 q 272 -3 301 -3 q 156 -12 242 -3 q 69 46 93 -19 z "},"Q":{"ha":2251,"x_min":96,"x_max":2232,"o":"m 840 922 q 803 892 826 910 q 714 848 781 874 q 589 833 647 822 q 540 847 564 838 q 505 863 517 856 q 476 881 493 869 q 456 894 458 893 q 429 869 444 888 q 344 717 379 808 q 310 524 310 626 q 378 254 310 347 q 529 151 446 161 q 535 151 532 151 q 539 150 538 150 q 660 175 608 147 q 569 292 607 238 q 490 444 506 382 q 491 527 475 507 q 529 542 507 547 q 536 526 535 540 q 548 480 538 511 q 585 414 558 449 q 606 386 597 396 q 645 356 615 376 q 721 315 675 336 q 774 288 738 307 q 824 389 801 332 q 858 590 861 500 q 832 736 854 679 l 810 792 q 825 779 815 788 q 859 743 835 771 q 903 683 883 715 q 939 601 922 651 q 958 497 956 551 q 889 203 967 335 q 1040 63 958 146 q 1233 -138 1121 -19 q 1410 -322 1346 -257 q 1782 -537 1560 -475 q 2072 -542 1968 -589 q 2121 -383 2171 -499 q 2218 -435 2189 -390 q 2232 -489 2231 -460 q 2208 -553 2233 -518 q 2136 -614 2183 -589 q 1903 -654 2036 -665 q 1628 -585 1769 -643 q 1354 -436 1486 -528 q 764 61 1010 -194 q 649 3 715 22 q 485 -11 568 -25 q 203 169 301 24 q 96 487 108 315 q 147 776 83 658 q 440 1024 233 950 q 451 1026 444 1025 q 461 1029 458 1028 q 532 1045 496 1040 q 586 1050 568 1050 l 606 1050 q 697 958 639 990 q 797 925 756 926 l 840 922 z "},"R":{"ha":2360,"x_min":104,"x_max":2340,"o":"m 104 47 q 113 45 107 46 q 133 46 118 44 q 159 53 147 47 q 181 78 171 60 q 194 126 192 97 q 214 481 210 289 q 203 846 218 672 q 174 922 197 893 q 131 956 150 950 l 110 961 q 139 999 119 988 q 201 1004 158 1010 q 465 1004 288 993 l 475 1004 q 739 1013 643 1019 q 911 946 835 1006 q 999 805 976 894 q 1011 639 1022 715 q 974 506 1000 563 q 697 404 890 335 q 700 390 697 399 q 727 358 703 382 q 796 314 751 335 q 958 206 867 282 q 1116 63 1049 131 q 1310 -139 1183 -6 q 1500 -337 1436 -272 q 1878 -557 1651 -493 q 2175 -562 2068 -610 q 2226 -400 2279 -518 q 2325 -453 2296 -407 q 2340 -508 2338 -478 q 2316 -573 2342 -537 q 2242 -635 2290 -608 q 2003 -677 2140 -689 q 1722 -607 1867 -665 q 1443 -453 1578 -549 q 997 -98 1221 -297 q 642 289 774 101 q 561 445 576 381 q 562 530 546 510 q 601 544 578 550 q 610 524 606 543 q 634 490 614 504 q 699 486 654 476 q 765 558 740 494 q 790 703 790 621 q 772 803 790 763 q 722 864 754 844 q 663 892 690 883 q 597 903 635 900 q 475 844 522 910 q 419 656 428 778 q 418 644 419 647 q 442 136 418 372 q 469 60 447 83 q 511 42 492 38 l 529 44 q 415 -11 500 -25 q 306 -1 340 -1 q 190 -11 272 -1 q 104 47 128 -18 z "},"S":{"ha":860,"x_min":-558,"x_max":839,"o":"m 722 978 q 715 960 719 971 q 689 922 710 950 q 640 874 668 894 q 563 839 613 854 q 453 826 513 824 q 360 853 407 829 q 285 894 313 878 q 244 901 257 911 q 226 851 224 878 q 263 786 229 825 q 334 713 297 747 q 417 640 371 679 q 451 611 440 621 q 681 410 596 497 q 800 256 767 322 q 838 128 833 190 q 826 3 843 65 q 757 -163 807 -90 q 642 -281 707 -236 q 495 -358 576 -326 q 335 -403 414 -389 q 174 -421 256 -417 q 33 -422 93 -425 q -75 -410 -28 -418 q -263 -355 -176 -393 q -408 -265 -350 -317 q -507 -154 -467 -214 q -558 -32 -547 -94 q -557 88 -568 31 q -503 197 -546 146 q -393 281 -461 247 q -403 262 -397 274 q -424 213 -410 250 q -444 140 -437 176 q -447 56 -451 104 q -424 -36 -443 7 q -356 -123 -404 -79 q -235 -197 -308 -167 q 40 -259 -108 -251 q 311 -236 189 -267 q 516 -137 433 -206 q 603 22 599 -68 q 553 197 607 114 q 419 343 499 279 q 258 469 339 407 q 121 608 178 532 q 64 764 64 683 l 64 769 q 119 918 56 842 q 192 981 150 954 q 273 1018 235 1007 q 344 1035 311 1029 q 397 1040 378 1040 l 418 1040 q 476 986 438 1006 q 556 965 514 967 q 635 965 597 963 q 697 972 674 967 l 722 978 z "},"T":{"ha":924,"x_min":11,"x_max":904,"o":"m 244 47 q 253 45 247 46 q 273 45 258 44 q 299 52 288 46 q 321 77 310 58 q 335 125 332 96 q 353 477 350 285 q 342 840 357 669 l 342 843 q 294 884 332 875 q 215 870 257 893 q 157 796 174 847 q 147 695 139 733 q 172 642 154 657 l 192 626 q 65 722 107 604 q 44 819 51 760 q 31 917 38 879 q 11 963 25 956 l 42 1007 q 127 994 90 997 q 219 993 164 992 q 300 994 275 994 l 307 994 q 428 997 333 994 q 561 997 524 999 q 611 994 583 997 q 676 994 632 994 q 740 993 719 993 q 797 997 760 993 q 872 1007 833 1000 l 904 963 q 882 917 889 956 q 868 819 875 879 q 847 722 861 760 q 715 626 804 604 q 724 631 718 628 q 740 649 729 635 q 758 681 751 664 q 765 729 765 699 q 751 796 764 760 q 690 871 733 847 q 610 885 647 894 q 565 844 572 876 q 560 483 554 679 q 581 135 565 288 q 608 60 586 83 q 647 40 629 38 l 667 43 q 553 -11 639 -25 q 445 1 478 0 q 331 -6 413 3 q 244 47 267 -14 z "},"U":{"ha":996,"x_min":-10,"x_max":975,"o":"m 864 225 q 851 135 867 172 q 788 61 835 99 q 619 -7 726 13 q 417 -19 513 -26 q 260 11 322 -11 q 125 94 165 44 q 90 196 85 143 q 81 842 101 665 q 53 918 75 889 q 11 953 31 947 l -10 958 q 19 995 1 985 q 79 1001 38 1006 q 297 1000 186 988 q 372 997 349 1007 q 397 954 394 986 q 388 956 394 956 q 367 953 382 957 q 339 941 351 950 q 315 908 326 932 q 300 849 304 885 q 306 250 281 626 q 307 243 306 246 q 490 140 315 128 q 543 146 519 142 q 583 158 567 150 q 613 172 600 167 q 635 191 626 178 q 649 210 643 204 q 657 232 654 215 q 661 252 660 249 q 664 274 663 256 q 665 294 665 293 q 661 846 682 667 q 633 922 656 893 q 592 957 611 951 l 571 963 q 599 1001 581 990 q 660 1006 618 1011 q 875 1004 765 992 q 949 1001 925 1011 q 975 960 972 990 q 966 962 972 961 q 944 959 960 963 q 917 946 929 956 q 894 913 906 936 q 879 853 882 889 q 867 495 869 742 q 864 225 864 249 z "},"V":{"ha":1160,"x_min":-19,"x_max":1139,"o":"m 410 950 q 403 951 407 950 q 386 953 399 951 q 365 953 374 954 q 342 947 356 951 q 324 934 329 943 q 316 910 319 925 q 321 874 313 896 q 539 263 435 508 q 563 233 551 233 q 592 263 575 232 q 715 543 622 336 q 829 804 807 750 q 840 870 844 844 q 818 909 836 896 q 780 928 800 922 q 744 936 760 935 l 728 936 q 825 1003 757 1011 q 1082 1004 918 990 q 1124 993 1110 1007 q 1139 956 1139 979 q 1127 954 1135 956 q 1098 947 1119 953 q 1056 929 1076 940 q 1012 895 1036 918 q 971 842 988 872 q 682 201 838 606 q 681 197 682 199 q 674 110 668 144 q 697 58 679 75 q 733 32 714 40 q 767 22 751 24 l 781 22 q 701 -45 761 -24 q 578 -53 642 -67 q 494 -19 532 -44 q 431 35 456 6 q 382 107 406 64 q 347 181 358 150 q 319 256 335 211 q 296 317 303 300 q 181 610 244 439 q 82 867 118 781 q 37 935 63 914 q -4 953 11 956 l -19 951 q 108 1010 13 1024 q 214 999 176 999 q 326 1007 251 999 q 410 950 386 1014 z "},"W":{"ha":2374,"x_min":-19,"x_max":2350,"o":"m 1411 294 q 1306 -6 1346 131 q 1304 -8 1306 -7 q 1242 -44 1290 -56 q 1158 -10 1196 -35 q 1094 44 1119 15 q 1046 115 1069 72 q 1010 189 1022 158 q 983 264 999 219 q 960 325 967 308 q 851 606 921 419 q 682 201 781 454 q 681 197 682 199 q 674 110 668 144 q 697 58 679 75 q 733 32 714 40 q 767 22 751 24 l 781 22 q 701 -45 761 -24 q 578 -53 642 -67 q 494 -19 532 -44 q 431 35 456 6 q 382 107 406 64 q 347 181 358 150 q 319 256 335 211 q 296 317 303 300 q 181 610 244 439 q 82 867 118 781 q 37 935 63 914 q -4 953 11 956 l -19 951 q 108 1010 13 1024 q 214 999 176 999 q 326 1007 251 999 q 410 950 386 1014 q 403 951 407 950 q 386 953 399 951 q 365 953 374 954 q 342 947 356 951 q 324 934 329 943 q 316 910 319 925 q 321 874 313 896 q 539 263 435 508 q 563 233 551 233 q 592 263 575 232 q 801 739 613 313 q 747 876 789 772 q 702 943 728 922 q 661 961 676 964 l 646 960 q 774 1018 678 1033 q 873 1007 839 1007 q 990 1015 907 1007 q 1014 1015 1003 1018 q 1094 995 1049 1014 q 1139 956 1139 976 q 1113 952 1129 956 q 1058 928 1097 949 q 990 871 1018 907 q 1204 272 1094 533 q 1215 251 1208 258 l 1217 254 q 1217 258 1217 257 q 1519 896 1360 606 q 1847 1285 1658 1150 q 2221 1408 2035 1419 q 2333 1361 2306 1403 q 2350 1269 2361 1319 q 2336 1222 2344 1246 q 2322 1188 2328 1199 l 2317 1176 q 2171 1283 2311 1322 q 1879 1093 2043 1247 q 1749 949 1801 1021 q 1644 795 1692 872 q 1558 638 1597 718 q 1499 513 1519 558 q 1447 386 1479 467 q 1411 294 1415 306 z "},"X":{"ha":1219,"x_min":108,"x_max":1194,"o":"m 650 383 q 608 331 629 358 q 562 272 586 303 q 526 226 538 242 q 481 149 493 183 q 469 99 468 115 q 480 51 469 83 q 493 3 490 19 q 467 -61 500 -33 q 367 -62 435 -89 q 315 -27 332 -50 q 288 24 297 -4 q 271 61 279 51 q 215 90 260 75 q 144 132 171 106 q 109 217 101 172 q 175 278 117 261 q 249 284 219 290 q 316 285 279 278 q 386 325 353 293 q 551 501 476 419 q 379 692 438 632 q 306 735 344 726 q 240 738 268 744 q 181 741 213 732 q 126 786 150 750 q 144 876 106 819 q 240 939 182 933 q 294 963 278 943 q 312 1006 310 983 q 339 1052 314 1029 q 417 1083 364 1075 q 482 1064 460 1090 q 501 990 504 1038 q 492 935 500 981 q 488 859 485 889 q 508 803 490 829 q 650 614 569 710 q 801 801 746 728 q 834 880 831 840 q 826 945 838 919 q 820 1003 815 971 q 857 1064 825 1036 q 949 1061 886 1090 q 1025 975 1011 1032 q 1048 932 1032 944 q 1083 917 1064 919 q 1122 910 1103 914 q 1162 885 1142 907 q 1194 822 1182 864 q 1184 755 1207 781 q 1115 725 1161 729 q 1053 724 1083 721 q 990 719 1024 726 q 932 690 956 711 q 749 501 840 606 q 906 333 792 454 q 975 276 943 294 q 1022 257 1007 258 q 1071 261 1038 256 q 1121 267 1104 267 q 1161 253 1142 268 q 1188 208 1181 239 q 1167 131 1194 178 q 1123 85 1149 99 q 1069 67 1097 71 q 1031 56 1042 63 q 993 5 1014 46 q 940 -58 972 -36 q 851 -81 894 -94 q 801 -7 808 -68 q 807 64 797 24 q 815 138 817 104 q 786 208 814 171 q 650 383 753 254 z "},"Y":{"ha":1424,"x_min":-286,"x_max":1404,"o":"m 782 953 q 775 953 779 953 q 758 956 771 954 q 734 955 744 957 q 710 949 724 953 q 692 937 697 946 q 683 914 686 928 q 689 878 679 900 q 858 454 774 640 q 1067 799 1024 697 q 1072 894 1089 863 q 1024 933 1056 925 l 992 940 q 1088 1004 1018 1013 q 1344 1010 1185 993 q 1404 964 1401 1015 q 1372 959 1392 963 q 1308 927 1353 956 q 1236 851 1263 899 q 878 263 1128 656 q 590 -154 758 57 q 300 -475 421 -365 q 91 -620 206 -562 q -118 -685 -24 -678 q -260 -631 -212 -692 q -286 -557 -286 -589 q -267 -503 -286 -525 q -224 -467 -247 -481 q -182 -447 -201 -454 l -162 -442 q -140 -531 -162 -503 q -81 -555 -117 -558 q -1 -542 -46 -551 q 256 -379 110 -510 q 513 -83 401 -249 q 682 203 643 111 q 669 338 700 274 q 547 616 617 451 q 435 868 476 781 q 387 933 414 913 q 344 950 360 953 l 328 949 q 463 1006 360 1019 q 573 997 542 997 q 692 1007 604 997 q 782 953 756 1014 z "},"Z":{"ha":863,"x_min":17,"x_max":842,"o":"m 544 -10 q 339 -7 497 -10 q 124 -4 181 -4 q 98 -5 115 -4 q 71 -6 81 -6 q 26 20 43 -7 q 26 65 10 47 q 133 139 86 76 q 338 505 232 307 q 478 800 443 703 q 494 858 490 836 q 374 865 418 864 q 336 867 364 865 q 297 868 308 868 q 263 867 286 868 q 229 860 240 865 q 203 847 218 856 q 178 824 188 839 q 161 789 168 810 q 151 690 143 728 q 176 638 158 653 l 194 622 q 71 717 110 600 q 50 813 57 754 q 37 910 43 872 q 17 954 31 947 l 46 999 q 131 986 94 989 q 222 985 167 983 q 301 986 278 986 l 311 986 q 574 989 410 986 l 576 990 q 653 992 628 990 q 689 993 678 992 q 758 997 719 993 q 804 978 785 1000 q 824 932 824 957 q 807 922 818 929 q 767 883 796 915 q 713 804 738 850 q 594 575 658 704 q 464 307 531 446 q 374 119 397 168 q 435 118 392 118 q 486 116 447 118 q 549 115 525 114 q 605 121 572 117 q 659 139 638 125 q 692 175 681 153 q 707 265 715 231 q 678 317 699 300 l 656 332 q 786 243 743 354 q 807 153 800 208 q 820 62 814 97 q 842 19 826 26 l 811 -21 q 723 -10 761 -12 q 627 -9 685 -8 q 544 -10 569 -10 z "},"[":{"ha":356,"x_min":40,"x_max":336,"o":"m 90 -101 q 104 344 101 97 q 96 804 107 592 q 83 876 93 840 q 64 932 74 911 q 47 969 54 953 q 40 992 39 986 q 54 999 42 999 q 145 1001 67 999 q 256 1003 224 1004 q 314 988 294 1001 q 336 936 333 974 q 318 940 333 932 q 283 917 303 949 q 258 814 263 885 q 269 -90 240 449 q 322 -208 276 -211 l 333 -206 q 303 -267 322 -251 q 250 -275 283 -283 q 172 -260 196 -261 q 88 -268 147 -258 q 74 -254 74 -271 q 78 -215 74 -246 q 90 -101 88 -153 z "},"\\":{"ha":499,"x_min":-29,"x_max":476,"o":"m 371 -106 q 383 -46 367 -67 q 436 -36 406 -24 q 469 -79 469 -50 q 425 -140 472 -112 q 343 -128 378 -169 q 339 -42 308 -87 q 351 -39 344 -33 q 354 -51 360 -44 q 346 -71 349 -60 q 371 -106 350 -99 m 422 22 q 428 -14 440 3 q 397 -31 419 -28 q 328 -17 354 -40 q 324 -14 326 -17 q 288 53 306 10 q 276 92 276 78 q 289 119 274 113 q 335 132 319 131 q 381 106 371 135 q 379 97 381 100 q 372 93 375 93 q 347 88 360 93 l 346 86 l 347 86 q 372 88 360 88 q 392 82 385 88 q 394 81 393 82 l 396 79 q 397 76 397 78 q 399 73 397 75 q 401 69 400 71 q 408 50 406 61 q 401 40 408 40 l 400 39 q 357 33 369 33 q 388 26 363 26 l 390 26 q 415 26 407 28 l 417 26 q 422 22 421 24 m 182 132 q 238 154 200 133 q 265 180 254 164 q 278 206 276 196 l 281 217 q 374 218 303 196 q 450 210 411 231 q 476 160 489 190 q 445 128 467 133 q 410 138 424 124 q 401 172 396 151 q 340 163 407 189 q 239 107 281 138 q 133 94 179 63 q 114 139 103 114 q 122 149 117 144 q 159 162 146 165 q 178 144 172 158 l 182 132 m 207 210 q 40 669 92 510 q -22 896 -11 828 q -29 1047 -33 964 q -12 1034 -29 1053 q 37 960 4 1015 q 111 820 69 906 q 210 583 153 735 q 326 243 268 431 q 278 260 293 219 q 191 492 246 343 q 110 706 136 642 q 72 774 83 771 q 86 697 60 776 q 257 253 110 625 q 251 224 264 235 q 222 211 239 213 l 207 210 z "},"]":{"ha":344,"x_min":21,"x_max":321,"o":"m 274 -108 q 289 -247 275 -136 q 282 -275 293 -275 q 276 -275 279 -275 q 190 -266 214 -264 q 110 -282 167 -268 q 55 -274 75 -290 q 24 -212 35 -258 q 39 -215 26 -208 q 68 -192 51 -222 q 89 -97 85 -162 q 105 348 100 96 q 100 807 110 600 q 76 909 96 878 q 39 936 57 940 l 21 931 q 43 981 24 968 q 103 997 63 994 q 208 996 131 999 q 310 993 286 993 q 321 971 329 993 q 311 949 318 965 q 268 797 274 867 q 274 -108 243 453 z "},"^":{"ha":799,"x_min":4,"x_max":778,"o":"m 567 494 q 417 804 507 647 q 385 838 404 825 q 360 813 365 824 q 232 504 300 708 q 222 456 222 476 q 226 428 222 436 q 241 404 229 419 q 258 381 253 389 q 257 342 269 363 q 203 326 244 322 q 167 338 181 328 q 142 360 153 347 q 125 378 132 374 q 90 384 117 383 q 42 396 63 385 q 5 435 10 411 q 29 478 0 458 q 79 494 39 483 q 135 535 119 506 q 265 851 218 706 q 263 910 275 883 q 239 951 250 938 q 243 1000 228 965 q 293 1013 251 1018 q 353 979 335 1007 q 381 958 365 961 q 410 958 396 954 q 421 973 414 963 q 433 990 428 983 q 453 1002 439 997 q 490 1004 468 1007 q 522 985 514 1003 q 521 944 529 967 q 508 913 519 939 q 497 880 497 888 q 500 844 497 872 q 646 544 540 732 q 675 505 661 518 q 697 489 689 492 q 724 484 704 486 q 751 481 743 482 q 777 456 771 476 q 757 403 783 435 q 726 383 743 388 q 699 382 710 379 q 675 382 688 385 q 649 360 665 379 q 613 333 632 340 q 562 334 582 321 q 546 379 542 347 q 563 427 547 390 q 567 494 579 464 z "},"_":{"ha":847,"x_min":-29,"x_max":825,"o":"m 183 -49 q 618 -42 413 -58 q 673 -22 651 -39 q 703 12 694 -6 q 730 42 711 29 q 778 51 749 54 q 818 5 804 49 q 810 -75 832 -39 q 803 -124 792 -101 q 825 -164 814 -146 q 810 -232 836 -182 q 771 -258 794 -258 q 724 -236 747 -258 q 697 -207 717 -229 q 660 -173 676 -185 q 621 -158 643 -161 q 197 -167 461 -143 q 137 -178 160 -169 q 106 -194 114 -186 q 87 -222 99 -203 q 68 -251 75 -242 q 51 -265 63 -260 q 27 -269 40 -269 q 0 -255 14 -268 q -24 -217 -14 -242 q -29 -172 -32 -186 q -16 -139 -26 -158 q -4 -111 -6 -119 q -15 -69 -3 -99 q -26 -14 -28 -40 q 1 43 -24 28 q 63 38 25 58 q 97 4 81 26 q 133 -33 114 -18 q 183 -49 151 -47 z "},"`":{"ha":351,"x_min":54,"x_max":332,"o":"m 54 990 q 194 975 122 1015 q 261 928 226 958 q 314 878 296 899 l 332 857 l 178 858 l 54 990 z "},"a":{"ha":1136,"x_min":-22,"x_max":1117,"o":"m 536 232 q 471 254 497 235 q 435 299 444 274 q 427 351 426 325 q 438 396 428 378 q 502 455 461 435 q 584 474 543 475 q 664 464 625 472 q 558 728 604 621 q 541 759 547 753 q 525 754 535 765 q 500 708 515 743 l 497 706 q 383 440 468 633 q 275 190 297 246 q 265 126 260 151 q 288 87 269 100 q 325 67 306 74 q 361 61 344 61 l 376 60 q 281 -7 347 -15 q 38 4 129 14 q -6 17 11 1 q -22 58 -22 33 q -11 58 -18 58 q 16 60 -4 57 q 55 72 36 64 q 96 101 74 81 q 135 151 118 121 q 417 788 263 385 l 417 792 q 424 878 429 844 q 401 931 418 913 q 365 956 383 949 q 331 964 346 964 l 317 965 q 395 1031 336 1010 q 518 1040 454 1053 q 601 1007 563 1032 q 665 954 640 982 q 714 883 690 926 q 749 810 738 840 q 777 737 761 781 q 800 676 793 693 q 917 385 853 554 q 1017 133 981 217 q 1061 67 1036 88 q 1101 49 1086 46 l 1117 51 q 990 -7 1086 -22 q 886 3 915 3 q 775 -7 857 3 q 692 49 715 -14 q 699 48 694 49 q 715 46 703 47 q 736 46 726 44 q 758 51 746 47 q 776 65 771 56 q 784 88 781 74 q 779 125 788 103 q 763 177 774 142 q 744 232 751 213 q 688 349 711 324 q 608 372 665 375 q 540 335 558 371 q 529 267 522 300 l 536 232 z "},"b":{"ha":967,"x_min":-296,"x_max":944,"o":"m 651 463 q 646 462 650 463 q 640 460 642 461 q 622 456 633 458 q 331 418 476 418 q 339 278 335 338 q 401 134 354 183 q 518 90 447 85 q 586 101 557 93 q 649 127 615 108 q 700 183 682 146 q 718 276 718 221 q 717 349 718 321 q 710 408 717 376 q 690 454 704 440 q 651 463 675 468 m 586 561 q 590 563 588 561 q 593 565 592 564 q 665 637 636 582 q 694 756 694 692 q 676 838 694 804 q 627 888 658 871 q 568 910 596 904 q 503 919 540 917 q 383 871 429 925 q 328 717 336 817 l 328 711 q 328 515 325 617 q 586 561 456 518 m 15 53 q 24 51 18 51 q 44 51 29 50 q 69 59 58 53 q 92 84 81 65 q 106 132 103 103 q 124 438 118 268 q -247 650 -133 490 q -296 762 -287 706 q -288 857 -304 818 q -242 918 -272 896 q -182 940 -217 936 q -125 939 -147 944 l -104 935 q -146 694 -219 808 q 125 533 -72 579 q 113 843 128 715 q 84 917 107 889 q 42 951 61 946 l 21 957 q 50 994 31 983 q 111 1000 69 1006 q 375 1001 192 989 q 383 1003 381 1001 l 411 1003 q 651 1008 563 1015 q 814 954 740 1001 q 903 838 879 911 q 917 701 928 765 q 876 596 907 638 q 761 504 828 531 q 897 404 836 479 q 944 228 958 338 q 844 51 929 119 q 776 10 811 25 q 684 -8 742 -4 q 596 -13 626 -12 q 472 -8 565 -14 q 340 -1 378 -3 l 336 -1 q 280 0 317 -1 q 222 2 243 1 q 167 1 200 3 q 101 -4 133 0 q 15 53 39 -11 z "},"c":{"ha":868,"x_min":7,"x_max":847,"o":"m 847 988 q 839 969 844 981 q 811 927 833 957 q 759 876 789 897 q 675 838 729 854 q 556 824 621 821 q 476 842 515 825 q 453 852 468 844 q 429 862 438 860 q 407 865 421 864 q 376 860 393 865 q 335 842 358 854 q 247 713 278 810 q 217 497 217 615 q 292 219 217 313 q 451 125 367 125 l 467 125 q 583 159 538 132 q 644 221 629 186 q 664 289 660 256 q 664 344 668 322 l 658 368 q 691 358 671 365 q 747 320 711 351 q 792 244 783 289 q 774 148 800 201 q 698 50 747 94 q 574 -21 649 6 q 421 -39 499 -47 q 390 -35 407 -39 q 110 144 206 -3 q 22 352 47 240 q 7 563 -3 464 q 54 750 17 663 q 152 907 97 849 q 304 1006 207 965 q 405 1041 351 1029 q 489 1053 458 1053 l 518 1054 q 564 1006 532 1028 q 571 1002 567 1004 q 576 999 575 1000 q 690 971 622 974 q 803 978 757 968 l 847 988 z "},"d":{"ha":961,"x_min":21,"x_max":936,"o":"m 21 56 q 29 53 24 54 q 49 53 35 53 q 76 61 64 54 q 98 87 88 68 q 111 135 108 106 q 131 488 126 292 q 119 851 135 683 q 91 927 114 899 q 47 961 68 956 l 28 967 q 57 1003 38 993 q 118 1008 76 1014 q 388 1008 219 997 q 432 1010 410 1010 q 575 1011 522 1010 q 740 964 651 1011 q 865 850 828 917 q 933 639 917 757 q 936 422 949 521 q 893 242 924 324 q 772 56 844 111 q 583 -3 699 0 q 407 -3 476 -6 q 372 -1 388 -3 q 108 -3 226 11 q 21 56 47 -10 m 336 676 q 335 653 336 657 q 356 171 332 403 l 356 165 q 357 147 357 158 q 403 106 363 121 q 550 89 443 92 q 642 125 606 88 q 695 231 679 163 q 716 368 711 300 q 719 522 721 436 q 664 819 715 715 q 526 925 613 922 q 455 922 482 926 q 398 901 428 918 q 353 840 368 883 q 336 728 339 797 q 335 715 336 724 q 335 703 335 707 q 336 676 335 685 z "},"e":{"ha":868,"x_min":7,"x_max":847,"o":"m 847 988 q 839 969 844 981 q 811 927 833 957 q 759 876 789 897 q 675 838 729 854 q 556 824 621 821 q 476 842 515 825 q 453 852 468 844 q 429 862 438 860 q 407 865 421 864 q 376 860 393 865 q 335 842 358 854 q 233 658 261 801 q 281 583 249 614 q 377 536 321 547 q 469 551 433 525 q 488 639 506 578 q 503 654 483 653 q 586 629 543 660 q 619 579 615 608 q 582 469 632 507 q 450 435 532 432 q 217 496 353 438 q 292 219 217 313 q 451 125 367 125 l 467 125 q 583 159 538 132 q 644 221 629 186 q 664 289 660 256 q 664 344 668 322 l 658 368 q 691 358 671 365 q 747 320 711 351 q 792 244 783 289 q 774 148 800 201 q 698 50 747 94 q 574 -21 649 6 q 421 -39 499 -47 q 390 -35 407 -39 q 110 144 206 -3 q 22 352 47 240 q 7 563 -3 464 q 54 750 17 663 q 152 907 97 849 q 304 1006 207 965 q 405 1041 351 1029 q 489 1053 458 1053 l 518 1054 q 564 1006 532 1028 q 571 1002 567 1004 q 576 999 575 1000 q 690 971 622 974 q 803 978 757 968 l 847 988 z "},"f":{"ha":946,"x_min":24,"x_max":925,"o":"m 24 46 q 110 63 71 35 q 164 190 149 92 q 190 708 190 365 q 183 826 188 790 q 57 943 157 967 q 58 951 57 946 q 65 967 58 956 q 81 985 71 978 q 113 998 92 993 q 161 1000 133 1003 q 535 996 228 992 l 814 1010 q 829 863 792 957 q 849 831 836 846 q 874 805 861 815 q 900 786 888 794 q 919 772 913 778 q 925 764 926 767 q 907 749 922 754 q 878 744 892 744 l 865 743 q 842 748 857 744 q 786 774 826 751 q 713 831 746 796 q 578 903 660 888 q 451 875 496 918 q 401 723 397 821 q 463 574 404 625 q 559 526 503 538 q 651 542 615 515 q 669 629 688 568 q 685 644 665 643 q 768 619 725 650 q 801 569 797 597 q 764 458 814 496 q 632 424 714 421 q 529 441 588 425 q 435 472 471 457 l 399 486 l 397 386 q 410 188 401 271 q 414 154 414 169 l 414 151 q 448 72 421 96 q 499 50 475 47 l 522 53 q 392 0 493 -14 q 196 8 278 17 q 117 -1 183 7 q 48 8 71 -4 q 25 33 25 19 l 24 46 z "},"g":{"ha":896,"x_min":24,"x_max":876,"o":"m 876 981 q 868 962 874 974 q 840 920 863 950 q 786 868 817 890 q 701 829 756 846 q 581 815 646 813 q 500 833 542 817 q 476 844 492 836 q 453 853 461 851 q 431 857 446 856 q 399 852 417 858 q 358 833 382 846 q 269 703 300 801 q 239 486 239 606 q 315 205 239 300 q 476 110 390 110 l 492 110 q 688 251 658 125 q 624 415 701 372 q 529 442 567 443 q 474 428 492 442 l 456 413 q 478 477 453 450 q 569 515 503 504 q 670 518 608 521 q 760 513 732 515 q 810 525 788 511 l 847 489 q 824 323 825 431 q 822 204 824 215 q 785 111 819 161 q 696 19 750 61 q 564 -43 642 -22 q 408 -49 486 -64 q 403 -47 407 -47 q 400 -46 400 -47 q 353 -32 374 -42 q 131 129 218 15 q 36 335 61 221 q 24 550 11 449 q 75 742 36 651 q 286 976 142 896 q 402 1029 338 1011 q 506 1047 467 1047 l 543 1049 q 588 1001 558 1019 q 595 997 590 1000 q 603 992 600 993 q 717 964 649 967 q 831 971 786 961 l 876 981 z "},"h":{"ha":1033,"x_min":28,"x_max":1013,"o":"m 28 47 q 36 45 31 46 q 56 46 42 44 q 82 53 71 47 q 104 78 93 60 q 118 126 115 97 q 137 479 133 286 q 125 844 140 672 q 97 920 119 892 q 53 954 74 949 l 33 960 q 63 997 43 986 q 125 1003 82 1008 q 346 1001 233 989 q 421 998 397 1008 q 449 957 444 988 q 439 959 444 958 q 417 956 433 960 q 389 944 401 953 q 365 910 376 935 q 349 851 353 886 q 342 563 339 746 q 402 503 346 518 q 505 518 458 489 q 533 607 551 547 q 547 622 531 619 q 631 597 586 628 q 668 546 664 576 q 629 435 679 472 q 496 400 579 397 q 344 431 440 401 q 364 135 353 253 q 392 60 369 83 q 433 42 414 38 l 451 44 q 338 -11 422 -25 q 230 1 263 0 q 114 -6 197 3 q 28 47 50 -12 m 588 44 q 596 42 590 43 q 616 42 601 42 q 642 50 631 43 q 665 76 654 57 q 678 124 675 94 q 697 481 693 282 q 686 847 701 679 q 658 924 681 894 q 614 958 635 953 l 594 964 q 624 1002 604 992 q 685 1007 643 1013 q 907 1006 793 993 q 982 1002 958 1013 q 1010 961 1006 992 q 1000 963 1006 963 q 978 960 994 964 q 950 947 963 957 q 926 914 938 938 q 910 854 914 890 q 904 488 899 689 q 925 133 910 288 q 953 58 931 81 q 994 38 975 35 l 1013 40 q 971 -9 997 4 q 899 -15 944 -22 q 790 -2 822 -3 q 675 -10 757 -1 q 588 44 611 -17 z "},"i":{"ha":493,"x_min":50,"x_max":474,"o":"m 50 51 q 58 49 53 50 q 78 49 64 49 q 105 56 93 50 q 127 81 117 63 q 140 129 138 100 q 160 482 156 286 q 149 844 164 678 q 120 920 143 892 q 78 954 97 949 l 57 960 q 86 997 67 986 q 147 1001 106 1007 q 368 1001 268 989 q 443 997 419 1008 q 469 956 467 986 q 460 958 465 957 q 439 955 454 958 q 411 943 424 951 q 387 910 399 935 q 371 851 375 886 q 365 489 360 686 q 386 139 371 292 q 414 65 392 88 q 456 44 436 42 l 474 47 q 360 -7 444 -21 q 248 3 286 3 q 129 -7 210 3 q 81 3 99 -10 q 50 51 64 17 z "},"j":{"ha":890,"x_min":64,"x_max":871,"o":"m 342 989 q 369 983 351 986 q 433 974 386 979 q 519 974 479 969 q 600 999 558 978 q 663 1057 642 1019 q 818 978 764 1042 q 842 939 832 965 q 851 904 850 917 q 863 729 853 896 q 870 513 867 618 q 848 298 874 407 q 767 124 822 189 q 500 -54 642 -22 q 275 -22 382 -78 q 192 35 215 8 q 89 203 96 115 q 86 328 86 221 q 64 493 86 435 l 101 529 q 150 517 110 517 q 238 522 190 518 q 336 519 285 526 q 446 415 454 500 q 440 422 443 418 q 421 434 436 426 q 388 444 406 442 q 342 442 371 447 q 282 418 314 436 q 219 263 210 378 q 443 104 242 111 q 594 208 526 114 q 661 482 661 303 q 650 825 661 708 q 626 824 643 824 q 510 837 563 821 q 428 877 458 853 q 378 927 399 901 q 350 971 357 953 l 342 989 z "},"k":{"ha":2275,"x_min":18,"x_max":2254,"o":"m 653 833 q 673 899 683 872 q 633 939 663 925 l 606 951 q 635 989 615 978 q 697 994 654 1000 q 963 999 793 982 q 1006 987 990 1001 q 1022 947 1022 972 q 993 941 1011 946 q 925 909 975 936 q 835 842 875 882 q 624 648 742 753 q 458 497 506 543 q 572 375 486 415 q 749 258 649 340 q 920 102 849 175 q 1131 -118 992 29 q 1339 -335 1269 -265 q 1743 -569 1501 -500 q 2065 -583 1944 -629 q 2138 -422 2181 -540 q 2131 -403 2135 -412 q 2239 -458 2206 -410 q 2254 -519 2253 -486 q 2228 -591 2256 -551 q 2149 -658 2201 -631 q 1889 -704 2038 -717 q 1582 -628 1740 -692 q 1276 -460 1424 -564 q 781 -58 1024 -282 q 413 378 539 165 q 336 481 381 433 q 357 131 340 282 q 384 56 363 79 q 425 36 406 33 l 444 39 q 331 -17 415 -31 q 221 -7 256 -7 q 106 -17 186 -7 q 18 42 44 -22 q 26 40 21 40 q 47 40 32 39 q 73 48 61 42 q 95 73 85 54 q 108 121 106 92 q 128 477 124 279 q 117 843 132 675 q 88 919 111 890 q 44 953 65 947 l 24 958 q 53 997 33 986 q 115 1001 72 1007 q 381 1006 213 989 q 426 994 410 1008 q 442 956 442 981 q 432 958 438 957 q 410 955 426 958 q 382 942 394 951 q 358 909 369 933 q 342 850 346 885 q 333 565 331 732 q 398 615 342 572 q 488 684 454 658 q 570 753 521 710 q 653 833 619 797 z "},"l":{"ha":896,"x_min":22,"x_max":876,"o":"m 22 42 q 108 60 68 31 q 163 188 147 89 q 185 735 189 371 q 151 901 185 842 q 49 946 117 961 q 49 953 49 949 q 56 969 50 958 q 72 988 63 981 q 103 1001 82 996 q 153 1003 125 1007 q 500 1008 303 986 q 569 997 544 1013 q 597 961 594 981 l 599 943 q 513 923 557 944 q 443 875 468 901 q 399 747 411 843 q 392 569 388 650 l 396 489 q 418 207 383 308 q 465 142 431 169 q 542 105 500 114 q 629 114 583 96 q 706 178 675 132 q 803 303 764 264 q 876 332 843 343 q 828 161 836 263 l 815 -7 q 492 3 654 1 q 117 -4 201 3 q 47 3 71 -8 q 22 28 24 14 l 22 42 z "},"m":{"ha":1231,"x_min":-6,"x_max":1210,"o":"m 831 47 q 843 47 832 49 q 872 51 854 46 q 907 65 890 57 q 936 93 924 72 q 950 143 949 114 q 944 758 954 306 q 922 704 939 746 q 894 638 906 663 q 762 353 836 501 q 675 169 688 206 q 642 147 669 153 q 589 142 614 140 l 565 144 q 540 154 551 144 q 521 172 525 161 q 435 357 508 210 q 304 640 361 504 q 253 765 269 724 q 256 146 251 599 q 285 74 256 99 q 344 50 315 50 l 374 50 q 337 1 360 14 q 274 -6 314 -12 q 177 7 203 6 q 76 0 151 8 q -6 49 14 -7 q 7 49 -4 50 q 35 52 18 47 q 69 65 53 57 q 99 94 86 74 q 113 144 111 115 q 106 860 115 219 q 94 920 106 896 q 69 953 83 944 q 40 966 54 963 q 14 967 25 969 l 4 965 q 30 1003 13 992 q 85 1008 47 1014 q 281 1007 136 1001 q 344 964 314 1008 q 422 826 382 915 q 519 580 461 736 q 600 365 576 424 q 658 497 617 403 q 722 642 699 592 q 777 763 744 692 q 834 881 810 833 q 879 961 858 929 q 896 986 888 975 l 897 988 q 968 1006 917 1010 q 1008 1003 985 1004 q 1043 1001 1032 1001 q 1074 1002 1054 1001 q 1117 1006 1093 1003 q 1183 1002 1163 1013 q 1207 961 1204 992 q 1194 965 1203 963 q 1167 967 1186 968 q 1132 957 1147 967 q 1103 917 1117 947 q 1090 840 1090 888 q 1093 144 1086 574 q 1122 73 1093 97 q 1181 49 1151 49 l 1210 49 q 1173 -1 1196 13 q 1110 -7 1150 -14 q 1015 6 1044 6 q 913 -1 986 7 q 831 47 850 -8 z "},"n":{"ha":1061,"x_min":-1,"x_max":1040,"o":"m 69 49 q 82 49 71 50 q 110 52 93 47 q 144 65 128 57 q 174 93 161 72 q 188 143 186 114 q 181 856 190 218 q 179 879 181 872 q 118 907 150 901 q 6 878 63 919 q -1 878 -1 872 q 4 903 -1 882 q 61 999 21 964 q 148 1038 101 1033 q 238 1034 194 1043 q 311 1006 281 1025 q 435 849 360 976 q 606 560 511 722 q 778 314 700 399 q 769 850 778 421 q 758 910 769 886 q 733 943 747 935 q 703 955 718 951 q 678 956 688 958 l 667 954 q 692 992 675 981 q 749 997 710 1003 q 946 996 846 983 q 1013 992 992 1003 q 1038 951 1035 982 q 1025 956 1033 953 q 997 958 1017 958 q 961 947 976 957 q 933 908 946 938 q 918 832 919 879 q 921 139 917 658 q 933 88 921 108 q 963 58 946 67 q 998 46 981 50 q 1028 42 1015 42 l 1040 43 q 1003 -6 1026 7 q 939 -12 979 -19 q 856 -1 871 -1 q 769 -7 840 0 l 757 -7 q 751 -6 753 -7 q 750 -5 750 -6 q 749 -4 750 -4 q 662 117 719 19 q 521 360 604 215 q 375 599 438 506 q 349 638 365 613 q 326 671 332 664 q 331 144 326 549 q 343 93 331 114 q 372 64 356 72 q 406 51 389 56 q 436 47 424 47 l 447 49 q 347 -6 421 -19 q 252 7 281 6 q 151 0 224 8 q 69 49 88 -7 z "},"o":{"ha":1011,"x_min":57,"x_max":988,"o":"m 638 0 q 524 -18 579 -18 q 201 117 329 -17 q 57 440 74 250 q 64 613 50 528 q 114 779 78 699 q 221 922 150 860 q 389 1015 292 985 q 515 1039 449 1038 q 840 908 710 1040 q 988 586 969 776 q 983 408 997 496 q 931 237 969 319 q 817 91 893 154 q 638 0 742 28 m 593 904 q 494 917 547 921 q 335 779 397 908 q 281 485 274 650 q 343 232 288 336 q 492 103 399 128 q 535 100 504 100 q 668 170 613 103 q 747 335 724 238 q 767 546 771 433 q 717 769 764 674 q 593 904 671 865 z "},"p":{"ha":1004,"x_min":69,"x_max":986,"o":"m 69 46 q 78 44 72 44 q 98 44 83 43 q 124 51 113 44 q 147 77 136 58 q 160 125 157 96 q 179 479 175 288 q 168 844 183 671 q 139 920 163 892 q 94 954 115 949 l 75 960 q 104 998 85 988 q 167 1003 124 1008 q 443 1006 244 993 q 476 1007 458 1007 q 715 1011 626 1018 q 876 957 803 1004 q 960 859 933 919 q 985 742 988 799 q 963 635 983 685 q 897 532 946 588 q 596 443 801 424 q 435 590 415 461 q 501 660 442 638 q 560 658 550 676 q 561 650 563 656 q 569 571 546 597 q 636 544 592 544 q 678 550 665 547 q 696 556 685 553 q 749 633 736 575 q 756 757 763 692 q 731 839 750 806 q 682 889 713 872 q 625 913 651 906 q 563 922 599 919 q 440 873 488 928 q 385 717 393 818 l 385 711 q 407 133 379 426 q 434 59 413 82 q 475 39 456 36 l 494 42 q 381 -12 465 -26 q 272 -3 301 -3 q 156 -12 242 -3 q 69 46 93 -19 z "},"q":{"ha":2251,"x_min":57,"x_max":2232,"o":"m 638 0 q 524 -18 579 -18 q 201 117 329 -17 q 57 440 74 250 q 64 613 50 528 q 114 779 78 699 q 221 922 150 860 q 389 1015 292 985 q 515 1039 449 1038 q 840 908 710 1040 q 988 586 969 776 q 904 190 1011 357 q 1051 52 971 133 q 1239 -144 1132 -29 q 1410 -322 1346 -258 q 1782 -537 1560 -475 q 2072 -542 1968 -589 q 2121 -383 2171 -499 q 2218 -435 2189 -390 q 2232 -489 2231 -460 q 2208 -553 2233 -518 q 2136 -614 2183 -589 q 1903 -654 2036 -665 q 1628 -585 1769 -643 q 1354 -436 1486 -528 q 768 56 1019 -201 q 638 0 708 18 m 585 414 q 606 386 597 396 q 645 356 615 376 q 721 315 675 336 l 738 307 q 767 546 771 415 q 717 769 764 674 q 593 904 671 865 q 494 917 547 921 q 335 779 397 908 q 281 485 274 650 q 343 232 288 336 q 492 103 399 128 q 535 100 504 100 q 667 168 611 104 q 569 292 611 232 q 490 444 506 382 q 491 527 475 507 q 529 542 507 547 q 536 526 535 540 q 548 480 538 511 q 585 414 558 449 z "},"r":{"ha":2360,"x_min":104,"x_max":2340,"o":"m 104 47 q 113 45 107 46 q 133 46 118 44 q 159 53 147 47 q 181 78 171 60 q 194 126 192 97 q 214 481 210 289 q 203 846 218 672 q 174 922 197 893 q 131 956 150 950 l 110 961 q 139 999 119 988 q 201 1004 158 1010 q 465 1004 288 993 l 475 1004 q 739 1013 643 1019 q 911 946 835 1006 q 999 805 976 894 q 1011 639 1022 715 q 974 506 1000 563 q 697 404 890 335 q 700 390 697 399 q 727 358 703 382 q 796 314 751 335 q 958 206 867 282 q 1116 63 1049 131 q 1310 -139 1183 -6 q 1500 -337 1436 -272 q 1878 -557 1651 -493 q 2175 -562 2068 -610 q 2226 -400 2279 -518 q 2325 -453 2296 -407 q 2340 -508 2338 -478 q 2316 -573 2342 -537 q 2242 -635 2290 -608 q 2003 -677 2140 -689 q 1722 -607 1867 -665 q 1443 -453 1578 -549 q 997 -98 1221 -297 q 642 289 774 101 q 561 445 576 381 q 562 530 546 510 q 601 544 578 550 q 610 524 606 543 q 634 490 614 504 q 699 486 654 476 q 765 558 740 494 q 790 703 790 621 q 772 803 790 763 q 722 864 754 844 q 663 892 690 883 q 597 903 635 900 q 475 844 522 910 q 419 656 428 778 q 418 644 419 647 q 442 136 418 372 q 469 60 447 83 q 511 42 492 38 l 529 44 q 415 -11 500 -25 q 306 -1 340 -1 q 190 -11 272 -1 q 104 47 128 -18 z "},"s":{"ha":806,"x_min":63,"x_max":767,"o":"m 728 976 q 721 960 725 969 q 696 924 717 950 q 649 878 675 897 q 575 844 624 858 q 469 832 526 829 q 381 856 425 833 q 309 895 336 879 q 271 903 282 911 q 251 869 253 889 q 265 828 250 850 q 302 783 279 806 q 357 735 325 760 q 419 689 389 710 q 485 647 450 668 q 663 503 583 585 q 767 344 742 422 q 644 18 839 119 q 460 -35 556 -29 q 290 -14 365 -42 q 157 56 215 14 q 73 149 99 99 q 63 240 47 200 q 121 315 82 293 q 189 332 160 336 l 217 328 q 214 312 215 322 q 213 273 213 301 q 220 219 214 244 q 245 163 226 193 q 293 113 264 133 q 374 81 322 92 q 494 76 426 71 q 585 154 579 85 q 488 343 593 239 q 396 418 447 382 q 272 510 322 469 q 172 604 221 550 q 106 706 124 658 q 97 809 88 753 q 151 919 106 865 q 221 979 181 954 q 298 1015 261 1004 q 367 1031 335 1025 q 418 1036 399 1036 l 438 1036 q 492 984 456 1003 q 568 963 529 965 q 644 963 607 961 q 704 971 681 965 l 728 976 z "},"t":{"ha":924,"x_min":11,"x_max":904,"o":"m 244 47 q 253 45 247 46 q 273 45 258 44 q 299 52 288 46 q 321 77 310 58 q 335 125 332 96 q 353 477 350 285 q 342 840 357 669 l 342 843 q 294 884 332 875 q 215 870 257 893 q 157 796 174 847 q 147 695 139 733 q 172 642 154 657 l 192 626 q 65 722 107 604 q 44 819 51 760 q 31 917 38 879 q 11 963 25 956 l 42 1007 q 127 994 90 997 q 219 993 164 992 q 300 994 275 994 l 307 994 q 428 997 333 994 q 561 997 524 999 q 611 994 583 997 q 676 994 632 994 q 740 993 719 993 q 797 997 760 993 q 872 1007 833 1000 l 904 963 q 882 917 889 956 q 868 819 875 879 q 847 722 861 760 q 715 626 804 604 q 724 631 718 628 q 740 649 729 635 q 758 681 751 664 q 765 729 765 699 q 751 796 764 760 q 690 871 733 847 q 610 885 647 894 q 565 844 572 876 q 560 483 554 679 q 581 135 565 288 q 608 60 586 83 q 647 40 629 38 l 667 43 q 553 -11 639 -25 q 445 1 478 0 q 331 -6 413 3 q 244 47 267 -14 z "},"u":{"ha":996,"x_min":-10,"x_max":975,"o":"m 864 225 q 851 135 867 172 q 788 61 835 99 q 619 -7 726 13 q 417 -19 513 -26 q 260 11 322 -11 q 125 94 165 44 q 90 196 85 143 q 81 842 101 665 q 53 918 75 889 q 11 953 31 947 l -10 958 q 19 995 1 985 q 79 1001 38 1006 q 297 1000 186 988 q 372 997 349 1007 q 397 954 394 986 q 388 956 394 956 q 367 953 382 957 q 339 941 351 950 q 315 908 326 932 q 300 849 304 885 q 306 250 281 626 q 307 243 306 246 q 490 140 315 128 q 543 146 519 142 q 583 158 567 150 q 613 172 600 167 q 635 191 626 178 q 649 210 643 204 q 657 232 654 215 q 661 252 660 249 q 664 274 663 256 q 665 294 665 293 q 661 846 682 667 q 633 922 656 893 q 592 957 611 951 l 571 963 q 599 1001 581 990 q 660 1006 618 1011 q 875 1004 765 992 q 949 1001 925 1011 q 975 960 972 990 q 966 962 972 961 q 944 959 960 963 q 917 946 929 956 q 894 913 906 936 q 879 853 882 889 q 867 495 869 742 q 864 225 864 249 z "},"v":{"ha":1160,"x_min":-19,"x_max":1139,"o":"m 410 950 q 403 951 407 950 q 386 953 399 951 q 365 953 374 954 q 342 947 356 951 q 324 934 329 943 q 316 910 319 925 q 321 874 313 896 q 539 263 435 508 q 563 233 551 233 q 592 263 575 232 q 715 543 622 336 q 829 804 807 750 q 840 870 844 844 q 818 909 836 896 q 780 928 800 922 q 744 936 760 935 l 728 936 q 825 1003 757 1011 q 1082 1004 918 990 q 1124 993 1110 1007 q 1139 956 1139 979 q 1127 954 1135 956 q 1098 947 1119 953 q 1056 929 1076 940 q 1012 895 1036 918 q 971 842 988 872 q 682 201 838 606 q 681 197 682 199 q 674 110 668 144 q 697 58 679 75 q 733 32 714 40 q 767 22 751 24 l 781 22 q 701 -45 761 -24 q 578 -53 642 -67 q 494 -19 532 -44 q 431 35 456 6 q 382 107 406 64 q 347 181 358 150 q 319 256 335 211 q 296 317 303 300 q 181 610 244 439 q 82 867 118 781 q 37 935 63 914 q -4 953 11 956 l -19 951 q 108 1010 13 1024 q 214 999 176 999 q 326 1007 251 999 q 410 950 386 1014 z "},"w":{"ha":1553,"x_min":-35,"x_max":1533,"o":"m 469 369 q 661 847 629 753 q 736 871 669 874 q 815 846 801 874 q 901 681 818 840 q 1047 372 985 521 q 1088 272 1051 363 q 1134 470 1108 357 q 1188 710 1160 583 q 1226 883 1217 838 q 1219 954 1238 929 q 1176 982 1200 979 l 1153 985 q 1260 1015 1192 1044 q 1359 990 1313 992 q 1467 1000 1406 988 q 1533 947 1521 1008 q 1519 947 1528 947 q 1489 940 1511 946 q 1449 923 1467 933 q 1412 892 1431 913 q 1385 843 1393 871 q 1211 146 1276 444 q 1210 140 1211 142 q 1222 77 1203 100 q 1263 51 1240 54 l 1285 49 q 1207 -4 1263 -11 q 1104 3 1131 4 q 1007 -10 1078 1 q 943 -3 967 -17 q 906 46 919 10 q 913 46 908 46 q 931 49 918 46 q 951 60 944 53 q 964 82 957 68 q 963 119 971 96 q 744 571 842 354 q 557 125 633 261 q 559 65 543 86 q 597 44 575 44 l 621 43 q 507 -11 592 -25 q 400 1 432 0 q 286 -6 368 3 q 200 46 222 -14 q 210 47 204 46 q 233 53 217 47 q 261 67 250 58 q 279 94 272 75 q 282 138 286 113 q 281 142 281 139 q 279 146 281 144 q 201 467 268 192 q 107 842 135 742 q 59 913 94 888 q -6 942 24 939 l -35 946 q 63 993 -19 1000 q 111 989 81 992 q 156 985 142 986 q 197 990 171 985 q 253 1007 222 994 q 338 975 303 1029 q 327 973 333 975 q 303 965 321 971 q 275 947 285 958 q 256 913 265 935 q 257 863 247 892 q 413 256 332 551 l 425 256 q 469 369 440 301 z "},"x":{"ha":1101,"x_min":65,"x_max":1082,"o":"m 721 815 q 748 912 764 885 q 692 939 732 939 l 651 939 q 695 989 663 967 q 768 1007 728 1011 q 981 1006 857 994 q 1023 988 1007 1008 q 1039 943 1039 968 q 1017 938 1031 942 q 965 908 1003 935 q 894 839 926 882 q 797 710 860 793 q 718 607 735 628 q 694 572 713 600 q 663 528 675 544 q 690 486 672 514 q 718 444 708 458 q 963 147 801 338 q 1030 77 1000 104 q 1071 44 1060 50 l 1082 39 q 954 -18 1049 -33 q 850 -8 888 -8 q 739 -15 813 -7 q 656 42 679 -22 q 664 43 658 42 q 681 51 669 44 q 697 66 692 57 q 699 95 703 75 q 681 140 696 115 q 668 160 676 147 q 653 181 660 172 q 642 199 647 190 l 633 211 l 633 213 q 632 215 632 214 q 588 280 621 232 q 538 354 556 328 q 442 225 503 307 q 381 142 382 143 q 360 66 344 86 q 413 49 375 46 l 450 51 q 351 -11 417 -22 q 129 -8 283 0 q 83 6 101 -10 q 65 44 64 22 q 69 44 67 44 q 83 46 72 43 q 107 55 94 49 q 140 79 119 61 q 183 122 161 97 q 353 326 257 206 q 404 393 367 344 q 460 465 442 442 q 332 653 333 650 q 272 735 322 665 q 192 844 221 806 q 133 912 163 885 q 89 946 103 939 l 74 953 q 200 1010 104 1025 q 415 1008 296 994 q 499 951 476 1013 q 488 949 494 950 q 468 939 482 947 q 447 919 454 931 q 440 888 439 908 q 456 840 440 867 q 589 636 522 736 q 721 815 685 763 z "},"y":{"ha":1422,"x_min":-289,"x_max":1401,"o":"m 779 944 q 772 945 776 944 q 755 947 768 946 q 732 947 742 949 q 708 942 722 946 q 690 929 694 938 q 681 907 685 921 q 688 871 678 893 q 856 447 760 660 q 1065 790 1021 688 q 1069 885 1086 854 q 1021 925 1053 917 l 989 932 q 1085 997 1019 1006 q 1343 1003 1182 986 q 1386 992 1371 1006 q 1401 956 1401 978 q 1390 954 1397 956 q 1360 946 1382 953 q 1318 928 1338 939 q 1275 895 1299 918 q 1235 843 1251 872 q 876 256 1097 600 q 586 -162 754 49 q 299 -483 418 -374 q 89 -627 204 -569 q -121 -692 -26 -685 q -262 -637 -215 -699 q -288 -564 -289 -596 q -268 -510 -287 -532 q -226 -475 -249 -489 q -183 -456 -203 -461 l -164 -449 q -141 -539 -164 -511 q -83 -563 -118 -567 q -4 -549 -47 -560 q 253 -387 108 -517 q 510 -92 397 -257 q 681 194 639 97 q 668 331 697 261 q 540 617 610 451 q 433 861 469 783 q 385 926 411 906 q 342 943 358 946 l 326 940 q 376 990 340 974 q 460 999 413 1006 q 572 990 538 989 q 690 999 606 990 q 779 944 754 1006 z "},"z":{"ha":863,"x_min":17,"x_max":842,"o":"m 544 -10 q 339 -7 497 -10 q 124 -4 181 -4 q 98 -5 115 -4 q 71 -6 81 -6 q 26 20 43 -7 q 26 65 10 47 q 133 139 86 76 q 338 505 232 307 q 478 800 443 703 q 494 858 490 836 q 374 865 418 864 q 336 867 364 865 q 297 868 308 868 q 263 867 286 868 q 229 860 240 865 q 203 847 218 856 q 178 824 188 839 q 161 789 168 810 q 151 690 143 728 q 176 638 158 653 l 194 622 q 71 717 110 600 q 50 813 57 754 q 37 910 43 872 q 17 954 31 947 l 46 999 q 131 986 94 989 q 222 985 167 983 q 301 986 278 986 l 311 986 q 574 989 410 986 l 576 990 q 653 992 628 990 q 689 993 678 992 q 758 997 719 993 q 804 978 785 1000 q 824 932 824 957 q 807 922 818 929 q 767 883 796 915 q 713 804 738 850 q 594 575 658 704 q 464 307 531 446 q 374 119 397 168 q 435 118 392 118 q 486 116 447 118 q 549 115 525 114 q 605 121 572 117 q 659 139 638 125 q 692 175 681 153 q 707 265 715 231 q 678 317 699 300 l 656 332 q 786 243 743 354 q 807 153 800 208 q 820 62 814 97 q 842 19 826 26 l 811 -21 q 723 -10 761 -12 q 627 -9 685 -8 q 544 -10 569 -10 z "},"{":{"ha":468,"x_min":61,"x_max":440,"o":"m 338 -264 q 347 -204 329 -226 q 399 -192 365 -179 q 435 -232 432 -204 q 393 -296 439 -267 q 311 -288 349 -326 q 301 -201 274 -250 q 314 -199 307 -193 q 317 -211 322 -204 q 310 -231 311 -221 q 338 -264 315 -260 m 382 -133 q 389 -169 399 -153 q 358 -189 382 -182 q 289 -178 317 -199 l 288 -178 q 285 -176 286 -176 q 246 -111 260 -140 q 232 -72 235 -90 q 243 -44 229 -50 q 289 -29 274 -31 q 335 -53 325 -25 q 333 -61 338 -57 q 328 -65 331 -65 q 303 -72 314 -68 l 299 -74 l 297 -75 l 299 -75 q 301 -74 300 -74 l 304 -74 q 328 -71 326 -71 q 347 -75 339 -71 l 350 -76 l 351 -78 q 353 -79 353 -78 q 354 -82 353 -81 q 358 -89 356 -83 q 367 -107 365 -97 q 360 -118 367 -115 l 358 -118 q 315 -126 335 -125 q 347 -131 324 -135 l 349 -131 q 375 -131 367 -129 l 376 -131 q 382 -133 379 -131 m 135 10 q 199 14 154 4 q 235 30 219 18 q 256 51 250 42 l 261 61 q 356 35 278 35 q 430 6 397 36 q 440 -50 463 -25 q 379 -65 411 -83 q 364 -25 354 -49 q 368 -18 365 -21 q 344 -8 375 -10 q 185 -32 265 -4 q 75 -14 111 -57 q 69 36 50 15 q 81 43 74 40 q 122 45 110 53 q 133 24 133 38 l 135 10 m 324 60 q 307 62 317 60 q 284 76 297 64 q 279 106 271 88 q 344 363 329 222 q 346 588 358 503 q 317 669 333 672 q 315 638 308 663 q 326 554 322 614 q 332 431 331 494 q 316 282 333 368 q 263 118 299 196 q 233 78 251 93 q 203 61 215 63 l 192 58 q 260 336 242 201 q 271 570 279 471 q 239 757 263 669 q 184 903 215 844 q 124 1005 153 963 q 77 1067 94 1047 q 61 1086 60 1086 q 156 1047 104 1083 q 259 947 207 1010 q 349 791 311 885 q 403 588 386 697 q 402 340 421 479 q 324 60 383 201 z "},"|":{"ha":283,"x_min":50,"x_max":263,"o":"m 50 51 l 64 49 q 96 129 92 54 q 100 844 115 565 q 85 920 97 892 q 64 954 74 949 l 53 960 q 68 997 58 986 q 99 1001 78 1007 q 210 1001 160 989 q 247 997 236 1007 q 261 956 258 988 l 247 956 q 211 851 215 946 q 219 139 197 539 q 256 44 224 42 l 263 47 q 206 -7 249 -21 q 150 3 169 3 q 90 -7 131 3 q 66 3 75 -10 q 50 51 57 17 z "},"}":{"ha":553,"x_min":140,"x_max":532,"o":"m 249 1008 q 239 949 256 967 q 186 936 218 925 q 151 978 154 947 q 194 1042 147 1011 q 276 1031 240 1071 q 283 944 311 992 q 271 942 278 936 q 268 953 263 944 q 275 972 272 958 l 275 974 q 249 1008 271 1003 m 201 878 q 194 915 183 897 q 226 932 203 928 q 296 921 268 942 l 299 918 q 338 853 321 886 q 350 813 347 831 q 338 786 353 793 q 292 771 313 772 q 246 796 256 768 q 247 804 246 801 q 254 808 250 808 q 279 815 265 810 l 281 817 l 278 817 q 253 814 256 814 q 235 819 243 814 q 232 821 232 819 q 231 822 231 821 q 228 825 228 822 q 226 828 228 826 q 224 832 225 831 q 217 851 219 838 q 222 861 214 858 q 225 863 224 861 q 268 869 253 868 q 236 875 258 876 l 233 875 q 208 875 217 874 l 207 875 q 201 878 204 875 m 444 729 q 381 725 425 733 q 344 711 360 722 q 322 690 328 700 l 317 681 q 224 708 301 707 q 150 741 182 710 q 140 797 118 772 q 203 808 171 831 q 213 764 229 790 q 211 761 213 763 q 232 751 206 754 q 390 769 306 744 q 396 771 393 769 q 506 750 469 794 q 508 701 529 721 q 497 694 504 697 q 457 694 468 686 q 444 715 446 701 l 444 729 m 242 678 q 259 676 249 678 q 283 662 269 674 q 289 632 296 650 q 229 374 240 514 q 233 150 218 235 q 264 67 247 65 q 264 99 271 75 q 251 182 257 122 q 242 306 246 242 q 254 456 239 369 q 304 621 269 543 q 333 658 315 646 q 361 671 350 671 l 374 671 q 310 392 326 526 q 306 160 294 258 q 344 -25 318 61 q 402 -167 369 -111 q 466 -265 435 -224 q 515 -324 497 -306 q 532 -342 533 -342 q 382 -265 464 -339 q 234 -56 300 -190 q 163 265 168 78 q 242 678 157 451 z "},"~":{"ha":975,"x_min":-11,"x_max":954,"o":"m 58 190 q 61 201 60 194 q 62 227 63 208 q 56 261 61 246 q 34 292 50 276 q -8 314 18 307 q -10 322 -10 317 q -10 344 -11 328 q -3 375 -8 360 q 17 409 3 390 q 56 442 32 428 q 149 474 100 469 q 251 462 199 479 q 346 421 303 444 q 443 360 389 397 q 577 304 504 319 q 709 300 650 289 q 797 343 768 311 q 842 530 878 440 q 692 643 806 619 q 508 622 600 663 q 428 567 458 601 q 394 511 399 533 l 389 488 q 490 663 365 590 q 590 694 526 683 q 714 697 654 706 q 924 582 875 674 q 954 494 946 539 q 943 388 963 449 q 868 283 924 328 q 710 211 804 232 q 528 203 617 190 q 282 311 403 221 q 76 392 119 431 q 85 375 71 386 q 119 346 99 364 q 144 308 140 328 q 134 240 156 269 q 86 200 113 211 l 58 190 z "},"":{"ha":1054,"x_min":97,"x_max":1033,"o":"m 610 131 q 596 190 610 158 q 546 272 583 219 l 546 274 q 479 140 485 193 l 479 133 q 535 126 507 126 q 600 129 567 126 q 610 131 604 131 m 229 354 q 235 342 231 353 q 285 275 244 294 q 374 265 325 254 q 451 308 426 276 q 471 392 481 342 q 424 454 463 435 q 333 468 386 475 q 253 431 281 458 q 229 363 224 403 l 229 354 m 610 390 q 614 367 610 379 q 650 306 625 333 q 703 271 675 279 q 777 264 736 261 q 829 281 818 267 q 858 383 881 335 q 768 458 835 435 q 653 461 701 485 q 621 428 629 447 q 610 390 611 411 m 546 1042 q 802 981 692 1038 q 974 824 913 924 q 1033 603 1033 725 q 974 354 1033 481 l 972 353 q 971 350 972 350 q 965 322 965 331 q 971 283 965 310 q 975 254 975 261 q 967 176 981 214 q 894 108 944 126 q 854 101 882 104 q 819 100 844 100 l 817 100 q 763 92 771 100 q 749 68 749 79 q 754 38 747 58 l 756 32 q 757 28 756 29 q 758 22 757 25 q 758 17 758 19 q 763 -8 763 4 q 736 -72 765 -47 q 556 -112 694 -108 q 469 -111 500 -114 q 375 -79 413 -104 q 328 -11 335 -53 q 328 22 325 6 q 332 47 328 28 l 332 50 q 335 71 335 63 q 333 75 335 74 q 281 88 322 83 q 274 89 279 89 q 219 97 235 93 q 160 132 182 108 q 133 197 140 156 q 125 264 129 217 q 122 292 124 288 q 110 361 118 339 l 108 363 q 108 365 108 364 q 107 371 108 367 q 104 376 106 375 l 103 378 q 97 392 101 381 q 111 807 11 628 q 521 1040 225 1006 l 532 1040 q 546 1042 536 1042 z "},"":{"ha":738,"x_min":46,"x_max":675,"o":"m 363 700 l 363 700 q 360 700 361 700 l 363 700 m 413 114 q 403 157 414 129 q 368 215 396 174 q 367 217 367 215 q 319 121 324 157 l 319 115 q 360 111 339 111 q 406 114 382 111 l 413 114 m 140 275 q 143 270 142 274 q 144 265 144 267 q 179 218 151 231 q 244 211 208 203 q 300 242 281 218 q 314 300 319 267 q 279 346 306 333 q 215 356 254 360 q 157 329 179 351 q 140 281 136 308 l 140 275 m 413 300 l 417 283 q 442 240 424 260 q 481 214 460 219 q 533 209 504 207 q 571 221 563 211 q 592 296 607 260 q 526 350 576 329 q 444 350 478 368 q 413 300 417 338 m 367 768 q 550 723 471 764 q 674 611 629 682 q 674 274 764 461 q 673 272 674 272 q 672 271 672 272 q 672 224 667 257 q 673 215 672 219 q 674 208 674 211 q 675 203 675 206 q 668 147 679 171 q 617 99 653 110 q 563 92 597 92 q 522 86 528 92 q 517 47 508 72 q 522 14 522 24 q 504 -32 525 -14 q 375 -61 475 -57 q 313 -60 331 -61 q 244 -36 271 -53 q 211 13 215 -18 q 214 54 208 28 l 214 57 q 215 74 217 72 q 178 83 207 79 l 172 83 q 133 90 146 88 q 90 115 107 97 q 71 161 76 132 q 65 210 67 178 q 64 229 64 222 q 54 279 60 265 q 53 282 54 282 q 50 290 53 285 l 50 292 q 46 301 46 296 q 56 599 -17 471 q 350 767 138 743 l 357 767 q 362 767 358 767 q 367 768 365 768 z "},"":{"ha":1033,"x_min":-235,"x_max":999,"o":"m 946 978 q 938 960 943 971 q 911 920 933 949 q 860 870 889 892 q 778 833 831 849 q 664 819 726 817 q 566 847 615 822 q 487 890 517 872 q 444 897 457 907 q 424 860 425 882 q 439 815 422 839 q 480 765 456 790 q 540 713 504 740 q 608 663 575 686 q 679 617 640 640 q 871 461 785 550 q 989 286 957 372 q 998 20 1036 168 q 840 -236 960 -128 q 659 -351 761 -308 q 454 -406 557 -394 q 265 -415 351 -418 q 100 -397 178 -412 q -95 -308 -8 -378 q -224 -121 -182 -237 q -234 67 -251 -26 q -171 215 -217 160 q 253 411 -7 418 q 228 406 244 410 q 169 388 213 403 q 88 351 126 372 q 5 290 50 329 q -68 200 -40 250 q -90 -74 -153 56 q 84 -230 -40 -176 q 372 -265 208 -283 q 679 -149 535 -246 q 774 -6 756 -96 q 744 186 793 83 q 582 367 694 289 q 446 467 501 422 q 338 570 390 511 q 265 681 285 629 q 254 794 244 733 q 314 915 264 856 q 391 981 347 953 q 474 1019 435 1008 q 549 1037 514 1031 q 606 1043 585 1043 l 626 1043 q 740 969 660 985 q 883 965 819 953 l 946 978 z "},"":{"ha":557,"x_min":-294,"x_max":528,"o":"m 493 692 q 488 680 492 688 q 469 653 485 672 q 435 619 454 633 q 381 595 417 606 q 304 586 346 585 q 239 604 272 588 q 186 633 206 621 q 158 638 167 644 q 144 613 146 628 q 154 583 143 599 q 181 550 165 567 q 222 515 197 533 q 267 481 246 496 q 314 450 288 467 q 442 347 383 407 q 521 231 500 288 q 527 53 553 151 q 422 -117 501 -46 q 256 -210 353 -179 q 79 -238 158 -242 q -71 -225 0 -235 q -201 -165 -143 -211 q -286 -40 -258 -118 q -294 84 -306 22 q -251 183 -282 146 q 31 314 -142 319 q 15 310 25 313 q -25 298 4 308 q -79 273 -54 288 q -134 232 -104 258 q -183 172 -164 206 q -199 -10 -239 76 q -83 -113 -165 -78 q 109 -136 0 -149 q 314 -58 218 -124 q 378 35 365 -25 q 358 164 392 96 q 250 285 325 232 q 138 369 182 331 q 60 454 94 407 q 27 551 25 501 q 71 649 29 600 q 158 710 106 689 q 244 733 210 732 l 281 735 q 355 685 301 696 q 450 683 408 675 l 493 692 z "},"":{"ha":1028,"x_min":35,"x_max":1007,"o":"m 543 489 q 501 582 544 522 l 501 583 q 458 496 460 526 l 458 492 q 538 489 482 483 l 543 489 m 294 636 q 296 632 294 635 q 297 628 297 629 q 329 585 303 597 q 389 578 356 571 q 440 607 419 583 q 453 660 458 631 q 421 703 447 688 q 363 711 397 715 q 310 686 328 704 q 293 642 292 668 q 294 636 294 640 m 543 660 q 547 644 547 646 q 606 581 561 596 q 654 577 628 575 q 689 588 681 579 q 707 656 722 624 q 647 706 694 688 q 572 706 603 721 q 543 660 547 694 m 696 107 q 754 89 700 106 q 810 74 788 79 q 849 72 832 69 q 873 75 867 74 q 897 87 879 76 q 921 101 914 97 q 976 98 946 114 q 1007 32 1006 82 q 997 -10 1008 6 q 969 -38 986 -26 q 949 -57 953 -50 q 944 -99 942 -68 q 938 -156 947 -131 q 888 -197 921 -193 q 825 -167 856 -201 q 800 -125 810 -149 q 776 -85 790 -101 q 729 -56 763 -69 q 522 26 631 -14 q 306 -83 410 -25 q 258 -123 272 -101 q 244 -160 244 -144 q 232 -193 244 -176 q 189 -221 219 -210 q 127 -196 160 -229 q 104 -121 94 -162 q 100 -82 111 -96 q 72 -63 89 -68 q 44 -38 56 -58 q 40 19 33 -18 q 70 61 46 50 q 128 64 94 72 q 156 56 138 61 q 183 49 174 51 q 209 48 192 47 q 244 56 226 49 q 338 92 288 71 q 242 122 265 117 q 166 124 196 136 q 124 100 136 111 q 61 110 111 89 q 35 169 35 121 q 72 239 36 218 q 97 270 94 253 q 92 303 100 288 q 91 340 83 318 q 129 383 99 363 q 181 391 157 400 q 222 353 204 382 q 235 328 225 347 q 249 302 244 308 q 267 284 254 296 q 297 264 279 272 q 515 171 393 218 q 689 260 615 219 q 738 289 719 276 q 768 315 757 301 q 782 335 779 329 q 790 360 785 340 q 797 388 794 381 q 816 413 801 401 q 856 424 831 425 q 907 400 882 424 q 930 364 926 383 q 930 324 933 344 q 929 296 926 304 q 958 263 932 283 q 992 218 983 243 q 986 154 1006 181 q 921 131 967 128 q 871 142 897 132 q 832 152 844 151 q 775 140 819 153 q 696 107 742 128 m 501 1089 q 783 944 697 1082 q 782 636 865 807 q 781 633 782 633 q 781 590 775 617 q 783 571 783 579 q 778 519 788 543 q 731 475 763 485 q 681 469 713 469 q 644 464 650 469 q 639 428 631 451 q 644 399 644 406 q 626 356 644 372 q 508 329 600 331 q 451 331 468 329 q 389 351 417 335 q 358 396 363 369 q 361 435 357 414 l 361 436 q 363 453 364 450 q 328 461 354 460 l 324 461 l 288 467 q 249 490 264 474 q 231 533 235 506 q 225 576 226 549 q 224 594 224 588 q 215 640 218 633 l 214 643 q 213 647 214 644 q 211 651 211 650 q 208 657 210 653 l 207 661 q 217 933 150 815 q 485 1088 289 1064 l 492 1088 q 497 1088 494 1088 q 501 1089 500 1089 z "},"":{"ha":1264,"x_min":-39,"x_max":1243,"o":"m 781 508 q 688 739 736 626 q 670 770 676 764 q 654 765 664 776 q 629 719 644 754 q 628 717 628 718 q 604 662 624 706 q 574 590 585 618 q 781 508 679 560 m 821 63 q 828 62 824 63 q 844 60 832 61 q 865 60 856 58 q 888 65 875 61 q 905 78 900 69 q 913 101 910 88 q 907 138 917 115 q 863 274 869 256 q 515 458 707 399 q 406 203 414 222 q 394 138 390 164 q 417 99 399 113 q 454 80 435 86 q 489 72 474 74 l 506 72 q 411 7 479 -1 q 168 18 250 25 q 126 31 142 15 q 110 71 110 47 q 121 70 114 71 q 147 73 128 69 q 185 85 167 76 q 226 113 204 93 q 265 164 249 133 q 418 482 336 290 q 215 485 301 503 q 94 408 129 467 q 97 247 58 349 q 73 251 88 249 q 26 272 58 254 q -22 317 -7 290 q -39 371 -36 340 q -33 434 -42 401 q 5 501 -24 467 q 78 561 33 535 q 474 614 235 654 q 515 718 489 650 q 546 797 542 786 q 547 803 546 801 q 553 889 558 856 q 531 940 547 922 q 495 966 514 958 q 461 975 476 974 l 447 975 q 524 1040 465 1018 q 647 1050 583 1063 q 742 1011 700 1040 q 815 934 785 982 q 863 853 846 886 q 901 760 879 819 q 928 688 922 700 q 1044 398 979 567 q 1143 146 1108 229 q 1188 80 1163 100 q 1228 61 1213 60 l 1243 64 q 1118 6 1213 -8 q 1017 15 1051 15 q 903 7 982 15 q 821 63 844 0 z "},"":{"ha":967,"x_min":15,"x_max":944,"o":"m 339 278 q 401 134 354 183 q 518 90 447 85 q 586 101 557 93 q 649 127 615 108 q 700 183 682 146 q 718 276 718 221 q 693 410 719 351 q 624 476 667 469 q 579 488 601 481 q 482 547 515 504 q 465 644 449 589 q 471 641 465 647 q 488 623 476 635 q 513 599 499 611 q 552 581 528 588 q 604 579 576 575 q 669 638 644 586 q 694 756 694 689 q 676 838 694 804 q 627 888 658 871 q 568 910 596 904 q 503 919 540 917 q 383 871 429 925 q 328 717 336 817 l 328 711 q 339 278 322 513 m 15 53 q 24 51 18 51 q 44 51 29 50 q 69 59 58 53 q 92 84 81 65 q 106 132 103 103 q 124 482 121 290 q 113 843 128 674 q 84 917 107 889 q 42 951 61 946 l 21 957 q 50 994 31 983 q 111 1000 69 1006 q 375 1001 192 989 q 383 1003 381 1001 l 411 1003 q 651 1008 563 1015 q 814 954 740 1001 q 903 838 879 911 q 917 701 928 765 q 876 596 907 638 q 761 504 829 533 q 897 404 836 478 q 944 228 958 338 q 844 51 929 119 q 776 10 811 25 q 684 -8 742 -4 q 596 -13 626 -12 q 472 -8 565 -14 q 340 -1 378 -3 l 336 -1 q 280 0 317 -1 q 222 2 243 1 q 167 1 200 3 q 101 -4 133 0 q 15 53 39 -11 z "},"":{"ha":946,"x_min":24,"x_max":925,"o":"m 24 46 q 110 63 71 35 q 164 190 149 92 q 190 708 190 365 q 183 826 188 790 q 57 943 157 967 q 58 951 57 946 q 65 967 58 956 q 81 985 71 978 q 113 998 92 993 q 161 1000 133 1003 q 535 996 228 992 l 814 1010 q 829 863 792 957 q 849 831 836 846 q 874 805 861 815 q 900 786 888 794 q 919 772 913 778 q 925 764 926 767 q 907 749 922 754 q 878 744 892 744 l 865 743 q 842 748 857 744 q 786 774 826 751 q 713 831 746 796 q 578 903 660 888 q 451 875 496 918 q 396 401 390 811 q 410 188 400 301 q 414 154 414 169 l 414 151 q 448 72 421 96 q 499 50 475 47 l 522 53 q 392 0 493 -14 q 196 8 278 17 q 117 -1 183 7 q 48 8 71 -4 q 25 33 25 19 l 24 46 z "},"":{"ha":1121,"x_min":51,"x_max":1100,"o":"m 438 782 q 439 786 438 785 q 444 872 450 839 q 422 924 439 906 q 387 949 406 942 q 353 958 368 957 l 339 958 q 416 1024 357 1003 q 539 1033 475 1046 q 634 994 592 1024 q 707 917 676 965 q 754 836 738 869 q 792 743 771 803 q 819 671 814 683 q 933 387 869 554 q 1035 131 996 219 q 1066 73 1050 97 q 1092 42 1082 49 l 1100 33 q 1072 -2 1094 13 q 1010 -10 1049 -17 q 872 -3 942 1 q 653 -10 743 -11 q 310 0 585 -10 q 306 -1 307 0 q 113 -3 157 -1 q 69 15 86 -4 q 51 60 51 35 q 56 58 53 58 q 72 60 60 57 q 95 70 83 63 q 124 97 107 78 q 157 147 140 117 q 438 782 292 392 m 297 186 q 289 135 283 146 q 326 121 294 124 q 736 111 650 96 q 790 149 797 122 q 786 160 789 153 q 782 172 783 168 q 579 722 682 482 q 562 753 568 747 q 546 749 556 760 q 521 703 536 738 q 518 699 518 700 q 409 449 496 647 q 297 186 322 250 z "},"":{"ha":868,"x_min":7,"x_max":847,"o":"m 847 988 q 839 969 844 981 q 811 927 833 957 q 759 876 789 897 q 675 838 729 854 q 556 824 621 821 q 476 842 515 825 q 453 852 468 844 q 429 862 438 860 q 407 865 421 864 q 376 860 393 865 q 335 842 358 854 q 233 658 261 801 q 281 583 249 614 q 377 536 321 547 q 469 551 433 525 q 488 639 506 578 q 503 654 483 653 q 586 629 543 660 q 619 579 615 608 q 582 469 632 507 q 450 435 532 432 q 217 496 353 438 q 292 219 217 313 q 451 125 367 125 l 467 125 q 583 159 538 132 q 644 221 629 186 q 664 289 660 256 q 664 344 668 322 l 658 368 q 691 358 671 365 q 747 320 711 351 q 792 244 783 289 q 774 148 800 201 q 698 50 747 94 q 574 -21 649 6 q 421 -39 499 -47 q 390 -35 407 -39 q 110 144 206 -3 q 22 352 47 240 q 7 563 -3 464 q 54 750 17 663 q 152 907 97 849 q 304 1006 207 965 q 405 1041 351 1029 q 489 1053 458 1053 l 518 1054 q 564 1006 532 1028 q 571 1002 567 1004 q 576 999 575 1000 q 690 971 622 974 q 803 978 757 968 l 847 988 z "},"":{"ha":863,"x_min":17,"x_max":842,"o":"m 544 -10 q 339 -7 497 -10 q 124 -4 181 -4 q 98 -5 115 -4 q 71 -6 81 -6 q 26 20 43 -7 q 26 65 10 47 q 133 139 86 76 q 338 505 232 307 q 478 800 443 703 q 494 858 490 836 q 374 865 418 864 q 336 867 364 865 q 297 868 308 868 q 263 867 286 868 q 229 860 240 865 q 203 847 218 856 q 178 824 188 839 q 161 789 168 810 q 151 690 143 728 q 176 638 158 653 l 194 622 q 71 717 110 600 q 50 813 57 754 q 37 910 43 872 q 17 954 31 947 l 46 999 q 131 986 94 989 q 222 985 167 983 q 301 986 278 986 l 311 986 q 574 989 410 986 l 576 990 q 653 992 628 990 q 689 993 678 992 q 758 997 719 993 q 804 978 785 1000 q 824 932 824 957 q 807 922 818 929 q 767 883 796 915 q 713 804 738 850 q 594 575 658 704 q 464 307 531 446 q 374 119 397 168 q 435 118 392 118 q 486 116 447 118 q 549 115 525 114 q 605 121 572 117 q 659 139 638 125 q 692 175 681 153 q 707 265 715 231 q 678 317 699 300 l 656 332 q 786 243 743 354 q 807 153 800 208 q 820 62 814 97 q 842 19 826 26 l 811 -21 q 723 -10 761 -12 q 627 -9 685 -8 q 544 -10 569 -10 z "},"":{"ha":1242,"x_min":28,"x_max":1222,"o":"m 588 44 q 596 42 590 43 q 616 42 601 42 q 642 50 631 43 q 665 76 654 57 q 678 124 675 94 q 697 449 690 250 q 351 293 514 399 q 364 135 358 196 q 392 60 369 83 q 433 42 414 38 l 451 44 q 338 -11 422 -25 q 230 1 263 0 q 114 -6 197 3 q 28 47 50 -12 q 36 45 31 46 q 56 46 42 44 q 82 53 71 47 q 104 78 93 60 q 118 126 115 97 q 137 479 133 286 q 125 844 140 672 q 97 920 119 892 q 53 954 74 949 l 33 960 q 63 997 43 986 q 125 1003 82 1008 q 346 1001 233 989 q 421 998 397 1008 q 449 957 444 988 q 439 959 444 958 q 417 956 433 960 q 389 944 401 953 q 365 910 376 935 q 349 851 353 886 q 343 469 336 699 q 699 606 518 575 q 686 847 699 747 q 658 924 681 894 q 614 958 635 953 l 594 964 q 624 1002 604 992 q 685 1007 643 1013 q 907 1006 793 993 q 982 1002 958 1013 q 1010 961 1006 992 q 1000 963 1006 963 q 978 960 994 964 q 950 947 963 957 q 926 914 938 938 q 910 854 914 890 q 901 617 901 756 q 1101 557 1015 606 q 1192 474 1161 522 q 1222 386 1224 426 q 1203 313 1219 346 q 1156 269 1186 286 q 1104 247 1126 251 l 1082 243 q 1075 414 1126 354 q 904 476 1024 474 q 925 133 910 289 q 953 58 931 81 q 994 38 975 35 l 1013 40 q 971 -9 997 4 q 899 -15 944 -22 q 790 -2 822 -3 q 675 -10 757 -1 q 588 44 611 -17 z "},"":{"ha":968,"x_min":-379,"x_max":946,"o":"m 17 579 q -217 531 -140 593 q -243 336 -294 468 q -267 340 -253 338 q -314 361 -282 343 q -361 406 -346 379 q -379 479 -376 439 q -351 567 -382 519 q -261 650 -319 615 q 50 713 -136 725 q 358 1004 135 940 q 486 1024 421 1024 q 806 884 681 1019 q 946 558 932 749 q 936 380 953 468 q 879 210 919 292 q 761 67 839 129 q 579 -19 683 6 q 464 -33 518 -35 q 146 110 269 -26 q 11 439 22 247 q 17 579 7 511 m 260 671 q 708 407 513 593 q 714 397 711 403 q 724 524 724 456 q 680 749 724 651 q 560 886 636 847 q 461 903 519 906 q 342 835 396 899 q 260 671 289 772 m 236 526 l 236 476 q 290 222 238 329 q 435 89 343 115 q 478 85 456 85 q 664 226 594 86 q 639 253 647 243 q 236 526 478 435 z "},"":{"ha":493,"x_min":50,"x_max":474,"o":"m 50 51 q 58 49 53 50 q 78 49 64 49 q 105 56 93 50 q 127 81 117 63 q 140 129 138 100 q 160 482 156 286 q 149 844 164 678 q 120 920 143 892 q 78 954 97 949 l 57 960 q 86 997 67 986 q 147 1001 106 1007 q 368 1001 268 989 q 443 997 419 1008 q 469 956 467 986 q 460 958 465 957 q 439 955 454 958 q 411 943 424 951 q 387 910 399 935 q 371 851 375 886 q 365 489 360 686 q 386 139 371 292 q 414 65 392 88 q 456 44 436 42 l 474 47 q 360 -7 444 -21 q 248 3 286 3 q 129 -7 210 3 q 81 3 99 -10 q 50 51 64 17 z "},"":{"ha":2275,"x_min":18,"x_max":2254,"o":"m 653 833 q 673 899 683 872 q 633 939 663 925 l 606 951 q 635 989 615 978 q 697 994 654 1000 q 963 999 793 982 q 1006 987 990 1001 q 1022 947 1022 972 q 993 941 1011 946 q 925 909 975 936 q 835 842 875 882 q 624 648 742 753 q 458 497 506 543 q 572 375 486 415 q 749 258 649 340 q 920 102 849 175 q 1131 -118 992 29 q 1339 -335 1269 -265 q 1743 -569 1501 -500 q 2065 -583 1944 -629 q 2138 -422 2181 -540 q 2131 -403 2135 -412 q 2239 -458 2206 -410 q 2254 -519 2253 -486 q 2228 -591 2256 -551 q 2149 -658 2201 -631 q 1889 -704 2038 -717 q 1582 -628 1740 -692 q 1276 -460 1424 -564 q 781 -58 1024 -282 q 413 378 539 165 q 336 481 381 433 q 357 131 340 282 q 384 56 363 79 q 425 36 406 33 l 444 39 q 331 -17 415 -31 q 221 -7 256 -7 q 106 -17 186 -7 q 18 42 44 -22 q 26 40 21 40 q 47 40 32 39 q 73 48 61 42 q 95 73 85 54 q 108 121 106 92 q 128 477 124 279 q 117 843 132 675 q 88 919 111 890 q 44 953 65 947 l 24 958 q 53 997 33 986 q 115 1001 72 1007 q 381 1006 213 989 q 426 994 410 1008 q 442 956 442 981 q 432 958 438 957 q 410 955 426 958 q 382 942 394 951 q 358 909 369 933 q 342 850 346 885 q 333 565 331 732 q 398 615 342 572 q 488 684 454 658 q 570 753 521 710 q 653 833 619 797 z "},"":{"ha":1156,"x_min":1,"x_max":1135,"o":"m 713 46 q 719 45 715 46 q 735 43 724 44 q 757 43 747 42 q 779 49 767 44 q 797 62 792 53 q 805 85 801 71 q 799 121 808 99 q 579 722 688 469 q 562 753 568 747 q 546 749 556 760 q 521 703 536 738 q 519 700 519 703 q 408 442 493 638 q 297 186 322 247 q 286 122 282 147 q 308 83 290 96 q 346 64 326 69 q 381 58 365 58 l 397 57 q 303 -10 371 -18 q 60 1 151 11 q 17 15 33 -1 q 1 54 1 31 q 13 53 6 54 q 39 56 19 53 q 77 68 58 60 q 118 97 96 76 q 157 147 140 117 q 438 782 292 392 q 439 786 438 785 q 444 872 450 839 q 422 924 439 906 q 387 949 406 942 q 353 958 368 957 l 339 958 q 416 1024 357 1003 q 539 1033 475 1046 q 634 994 592 1024 q 707 917 676 965 q 754 836 738 869 q 792 743 771 803 q 819 671 814 683 q 937 378 872 547 q 1035 131 1001 210 q 1079 64 1054 85 q 1119 44 1104 43 l 1135 47 q 1010 -10 1104 -25 q 906 -1 938 0 q 794 -10 874 -1 q 713 46 736 -17 z "},"":{"ha":1240,"x_min":7,"x_max":1219,"o":"m 842 46 q 854 46 843 47 q 883 50 865 44 q 917 63 900 56 q 946 92 933 71 q 960 142 958 113 q 954 754 964 304 q 904 633 933 703 q 774 353 847 500 q 686 167 700 206 q 653 144 681 150 q 600 139 625 138 l 576 142 q 551 151 563 143 q 532 171 536 158 q 447 356 519 208 q 317 638 374 503 q 298 681 307 658 q 279 727 289 704 q 265 761 269 750 q 268 144 264 594 q 298 73 268 97 q 357 49 328 49 l 386 49 q 349 -1 372 13 q 285 -7 325 -14 q 190 6 218 4 q 89 -1 161 7 q 7 47 26 -8 q 19 47 8 49 q 48 51 31 46 q 82 64 65 56 q 111 93 99 72 q 125 143 124 114 q 118 857 128 217 q 108 917 118 893 q 83 950 97 942 q 53 962 68 958 q 28 964 39 965 l 18 961 q 44 999 28 989 q 99 1004 60 1010 q 292 1003 149 997 q 357 960 326 1004 q 433 824 394 913 q 531 575 472 736 q 611 363 590 414 q 669 494 629 403 q 733 638 710 586 q 788 758 756 689 q 844 876 819 828 q 890 957 869 925 q 906 982 903 978 l 907 982 l 907 983 q 978 1001 929 1006 q 1018 999 994 1000 q 1053 997 1042 997 q 1083 998 1064 997 q 1126 1001 1103 999 q 1193 998 1172 1008 q 1217 957 1214 988 q 1204 961 1213 958 q 1176 963 1196 964 q 1142 953 1157 963 q 1113 914 1126 943 q 1100 838 1100 885 q 1103 143 1096 568 q 1115 92 1103 113 q 1144 63 1128 71 q 1178 50 1161 54 q 1208 47 1196 46 l 1219 47 q 1183 -2 1206 11 q 1119 -8 1160 -15 q 1024 4 1050 3 q 924 -3 999 6 q 842 46 861 -10 z "},"":{"ha":1085,"x_min":69,"x_max":1065,"o":"m 69 49 q 82 49 71 50 q 110 52 93 47 q 144 65 128 57 q 174 93 161 72 q 188 143 186 114 q 181 856 190 218 q 170 916 181 892 q 145 949 160 940 q 116 962 131 958 q 92 964 101 965 l 81 961 q 106 998 90 988 q 160 1003 122 1008 q 354 1003 267 990 q 383 1004 365 1004 q 435 1003 421 1011 q 506 888 467 983 q 603 646 546 793 q 715 401 661 499 q 768 300 736 364 q 760 840 768 379 q 732 927 760 899 q 678 956 704 956 l 650 956 q 676 993 660 982 q 731 999 693 1004 q 925 997 825 985 q 1031 958 1025 1011 q 1019 962 1026 960 q 993 962 1011 964 q 960 949 975 960 q 934 908 946 939 q 922 829 922 876 q 928 132 919 411 q 964 67 929 81 q 1057 90 1007 60 q 1065 92 1065 96 q 1057 67 1064 88 q 992 -24 1035 7 q 902 -56 949 -56 q 813 -44 856 -57 q 742 -10 771 -32 q 653 112 704 18 q 558 311 603 206 q 449 540 513 417 q 326 736 385 664 q 331 144 326 372 q 343 93 331 114 q 372 64 356 72 q 406 51 389 56 q 436 47 424 47 l 447 49 q 347 -6 421 -19 q 252 7 281 6 q 151 0 224 8 q 69 49 88 -7 z "},"":{"ha":885,"x_min":18,"x_max":864,"o":"m 650 807 q 224 810 429 824 q 169 794 190 808 q 140 764 149 779 q 113 738 131 749 q 65 731 94 726 q 26 778 39 733 q 36 857 14 822 q 48 894 51 878 q 33 923 44 911 q 22 957 22 935 q 40 1011 21 979 q 79 1035 57 1036 q 125 1013 101 1035 q 233 958 175 965 q 629 950 399 939 q 660 952 646 951 q 685 956 674 953 q 703 959 696 958 q 719 965 711 960 q 731 972 728 971 q 742 980 735 972 q 750 989 749 988 q 760 1001 751 990 q 769 1014 768 1013 q 794 1031 778 1026 q 829 1023 810 1035 q 860 979 849 1011 q 863 934 867 947 q 849 902 860 921 q 838 875 839 883 q 848 833 836 863 q 858 779 860 804 q 831 724 856 739 q 769 731 806 708 q 735 761 753 742 q 700 792 718 781 q 650 807 682 804 m 589 443 q 268 444 422 456 q 197 417 229 442 q 131 397 165 393 q 99 435 110 400 q 107 499 89 471 q 106 551 124 521 q 110 622 88 582 q 178 624 138 664 q 260 578 221 583 q 583 567 436 557 q 624 570 608 568 q 651 581 639 572 q 667 591 664 589 q 682 608 671 593 q 694 625 693 622 q 714 637 701 633 q 742 631 726 640 q 767 596 758 621 q 770 560 772 571 q 760 535 768 550 q 750 513 751 519 q 758 480 749 503 q 765 436 768 457 q 743 392 763 404 q 694 397 724 379 q 675 410 688 401 q 657 423 663 419 q 640 432 651 426 q 617 440 629 438 q 589 443 606 442 m 656 14 q 206 15 433 31 q 153 -1 172 13 q 129 -28 135 -14 q 108 -52 124 -43 q 63 -57 92 -61 q 24 -10 36 -54 q 33 68 11 33 q 45 106 49 89 q 31 134 42 122 q 19 168 19 146 q 38 222 18 190 q 76 247 54 247 q 122 225 99 246 q 141 206 129 218 q 159 187 153 193 q 179 174 165 181 q 210 167 193 168 q 633 158 400 143 q 683 163 664 160 q 717 174 703 165 q 735 185 731 182 q 751 205 739 189 q 767 226 763 221 q 791 242 775 238 q 826 234 807 246 q 857 190 846 222 q 861 147 864 160 q 847 114 858 133 q 835 86 836 94 q 845 45 833 75 q 856 -10 857 15 q 828 -65 853 -50 q 767 -58 803 -81 q 734 -28 749 -47 q 703 1 719 -10 q 656 14 688 11 z "},"":{"ha":979,"x_min":96,"x_max":958,"o":"m 840 922 q 803 892 826 910 q 714 848 781 874 q 589 833 647 822 q 540 847 564 838 q 505 863 517 856 q 476 881 493 869 q 456 894 458 893 q 429 869 444 888 q 344 717 379 808 q 310 524 310 626 q 378 254 310 347 q 529 151 446 161 q 535 151 532 151 q 539 150 538 150 q 708 206 639 146 q 824 389 776 267 q 858 590 861 500 q 832 736 854 679 l 810 792 q 825 779 815 788 q 859 743 835 771 q 903 683 883 715 q 939 601 922 651 q 958 497 956 551 q 775 69 969 239 q 649 3 722 24 q 485 -11 568 -25 q 203 169 301 24 q 96 487 108 315 q 147 776 83 658 q 440 1024 233 950 q 451 1026 444 1025 q 461 1029 458 1028 q 532 1045 496 1040 q 586 1050 568 1050 l 606 1050 q 697 958 639 990 q 797 925 756 926 l 840 922 z "},"":{"ha":1018,"x_min":1,"x_max":997,"o":"m 1 56 q 10 53 4 54 q 28 53 15 53 q 53 60 42 54 q 74 85 64 67 q 88 133 85 104 q 106 486 101 290 q 94 849 110 682 q 67 924 89 896 q 26 958 46 953 l 7 964 q 35 1001 18 990 q 93 1006 53 1011 q 276 1000 139 1000 q 284 1001 278 1000 q 293 1001 290 1001 q 724 1000 458 1003 l 735 1000 q 897 1006 833 997 q 969 1001 947 1011 q 994 960 992 990 q 985 962 992 961 q 965 959 979 963 q 938 947 950 956 q 915 915 926 939 q 900 856 903 890 q 894 494 889 694 q 915 143 900 293 q 941 69 921 92 q 979 49 961 46 l 997 51 q 958 3 983 15 q 889 -3 933 -10 q 783 6 815 7 q 669 -3 750 6 q 624 8 642 -6 q 594 56 607 21 q 603 53 597 54 q 622 53 608 53 q 646 60 635 54 q 667 85 657 67 q 681 133 678 104 q 699 486 694 290 q 688 849 703 682 q 687 856 688 850 q 686 863 686 861 q 506 865 639 863 q 307 865 372 867 q 306 856 307 858 q 300 494 294 694 q 321 143 306 293 q 347 69 326 92 q 385 49 367 46 l 403 51 q 364 3 389 15 q 294 -3 339 -10 q 190 6 222 7 q 76 -3 157 6 q 31 8 49 -6 q 1 56 14 21 z "},"":{"ha":1004,"x_min":69,"x_max":986,"o":"m 69 46 q 78 44 72 44 q 98 44 83 43 q 124 51 113 44 q 147 77 136 58 q 160 125 157 96 q 179 479 175 288 q 168 844 183 671 q 139 920 163 892 q 94 954 115 949 l 75 960 q 104 998 85 988 q 167 1003 124 1008 q 443 1006 244 993 q 476 1007 458 1007 q 715 1011 626 1018 q 876 957 803 1004 q 960 859 933 919 q 985 742 988 799 q 963 635 983 685 q 897 532 946 588 q 596 443 801 424 q 435 590 415 461 q 501 660 442 638 q 560 658 550 676 q 561 650 563 656 q 569 571 546 597 q 636 544 592 544 q 678 550 665 547 q 696 556 685 553 q 749 633 736 575 q 756 757 763 692 q 731 839 750 806 q 682 889 713 872 q 625 913 651 906 q 563 922 599 919 q 440 873 488 928 q 385 717 393 818 l 385 711 q 407 133 379 426 q 434 59 413 82 q 475 39 456 36 l 494 42 q 381 -12 465 -26 q 272 -3 301 -3 q 156 -12 242 -3 q 69 46 93 -19 z "},"":{"ha":863,"x_min":26,"x_max":842,"o":"m 319 861 q 413 728 369 799 q 487 598 456 658 q 521 533 518 538 q 522 531 522 532 q 455 367 528 513 q 317 139 382 221 q 304 121 307 128 q 435 118 368 118 q 486 116 447 118 q 549 115 525 114 q 605 121 572 117 q 659 139 638 125 q 692 175 681 153 q 707 265 715 231 q 678 317 699 300 l 656 332 q 786 243 743 354 q 807 153 800 208 q 820 62 814 97 q 842 19 826 26 l 811 -21 q 723 -10 761 -12 q 627 -9 685 -8 q 544 -10 569 -10 q 339 -7 497 -10 q 124 -4 181 -4 q 98 -5 115 -4 q 71 -6 81 -6 q 26 20 43 -7 q 26 65 10 47 q 35 67 29 65 q 58 77 42 69 q 89 95 74 85 q 123 126 104 106 q 156 172 142 147 q 218 281 190 236 q 260 347 246 326 q 312 411 275 367 q 371 485 349 456 q 340 526 353 508 q 317 558 328 543 q 295 589 306 574 q 278 614 285 604 q 260 642 271 624 q 245 668 250 660 q 228 700 240 676 q 210 734 215 724 q 186 778 204 744 q 158 828 168 811 q 104 894 136 868 q 51 928 72 921 l 31 933 q 31 978 14 951 q 75 1004 47 1006 q 105 1003 85 1003 q 135 1001 125 1003 l 253 1001 l 297 1001 l 317 1001 l 536 1001 q 604 1001 564 1001 q 667 1001 644 1001 q 727 1004 690 1001 q 803 1014 764 1007 l 835 972 q 813 930 819 965 q 799 839 806 894 q 778 749 792 783 q 649 660 735 638 q 658 665 653 661 q 676 683 664 669 q 696 713 689 696 q 701 757 703 729 q 683 817 699 785 q 651 853 672 839 q 597 872 631 867 q 542 877 563 876 q 477 876 521 878 q 426 874 433 874 q 310 875 339 874 q 319 861 315 867 z "},"":{"ha":924,"x_min":11,"x_max":904,"o":"m 244 47 q 253 45 247 46 q 273 45 258 44 q 299 52 288 46 q 321 77 310 58 q 335 125 332 96 q 353 477 350 285 q 342 840 357 669 l 342 843 q 294 884 332 875 q 215 870 257 893 q 157 796 174 847 q 147 695 139 733 q 172 642 154 657 l 192 626 q 65 722 107 604 q 44 819 51 760 q 31 917 38 879 q 11 963 25 956 l 42 1007 q 127 994 90 997 q 219 993 164 992 q 300 994 275 994 l 307 994 q 428 997 333 994 q 561 997 524 999 q 611 994 583 997 q 676 994 632 994 q 740 993 719 993 q 797 997 760 993 q 872 1007 833 1000 l 904 963 q 882 917 889 956 q 868 819 875 879 q 847 722 861 760 q 715 626 804 604 q 724 631 718 628 q 740 649 729 635 q 758 681 751 664 q 765 729 765 699 q 751 796 764 760 q 690 871 733 847 q 610 885 647 894 q 565 844 572 876 q 560 483 554 679 q 581 135 565 288 q 608 60 586 83 q 647 40 629 38 l 667 43 q 553 -11 639 -25 q 445 1 478 0 q 331 -6 413 3 q 244 47 267 -14 z "},"":{"ha":1425,"x_min":-285,"x_max":1406,"o":"m 783 963 q 776 963 781 963 q 759 965 772 964 q 736 965 746 967 q 713 959 726 963 q 694 947 699 956 q 685 924 689 938 q 690 888 681 910 q 860 464 769 668 q 1069 808 1029 713 q 1074 903 1090 872 q 1025 942 1057 935 l 993 950 q 1089 1014 1022 1022 q 1347 1019 1186 1003 q 1390 1009 1375 1022 q 1406 974 1406 996 q 1394 972 1401 974 q 1364 964 1386 971 q 1322 947 1342 957 q 1279 913 1303 936 q 1239 861 1256 890 q 881 272 1143 692 q 591 -144 760 67 q 303 -465 422 -354 q 93 -610 208 -553 q -117 -675 -22 -668 q -258 -621 -211 -682 q -284 -547 -285 -579 q -264 -493 -283 -515 q -222 -458 -244 -471 q -179 -439 -199 -444 l -160 -432 q -137 -521 -160 -493 q -78 -545 -114 -549 q 0 -532 -43 -542 q 257 -369 111 -500 q 514 -74 403 -239 q 685 213 643 119 q 671 347 703 282 q 547 629 615 464 q 438 878 478 794 q 388 942 415 922 q 344 961 361 963 l 329 958 q 464 1015 361 1029 q 575 1007 543 1007 q 694 1017 607 1007 q 783 963 758 1024 z "},"":{"ha":1108,"x_min":169,"x_max":1088,"o":"m 410 50 q 418 48 413 49 q 438 48 424 47 q 465 55 453 49 q 488 80 476 61 q 501 128 499 99 q 520 483 517 289 q 508 849 524 676 q 503 878 506 868 q 429 924 475 928 q 373 887 389 918 q 350 758 357 856 q 400 582 339 600 q 442 581 425 575 q 467 592 458 588 q 475 593 475 597 q 455 531 475 560 q 402 488 435 501 q 333 476 369 475 q 258 508 296 478 q 196 596 221 539 q 169 703 176 638 q 178 842 163 768 q 235 958 193 915 q 336 1015 283 1008 q 493 1008 389 1021 q 504 1007 501 1008 l 507 1007 q 785 1010 588 997 q 801 1010 792 1010 q 815 1011 811 1011 q 939 1009 897 1017 q 1021 961 981 1001 q 1078 844 1063 918 q 1088 706 1094 771 q 1061 597 1081 640 q 981 501 1028 528 q 892 485 933 474 q 822 531 851 497 q 792 606 793 564 q 799 605 792 610 q 823 593 807 600 q 863 593 839 586 q 903 771 914 607 q 879 894 896 868 q 821 925 863 921 q 733 857 764 933 l 733 856 q 726 491 721 694 q 749 138 732 288 q 776 63 754 86 q 817 43 797 40 l 836 46 q 794 -3 821 10 q 721 -10 768 -17 q 613 1 643 1 q 497 -8 582 1 q 410 50 435 -15 z "},"":{"ha":1260,"x_min":75,"x_max":1233,"o":"m 651 401 q 490 246 631 382 q 435 176 451 207 q 417 128 418 144 q 421 79 415 113 q 428 29 426 46 q 415 -12 429 8 q 370 -39 400 -32 q 293 -19 340 -46 q 246 24 260 -1 q 227 78 232 50 q 215 117 222 106 q 164 153 206 133 q 100 204 122 174 q 76 293 63 250 q 150 344 89 336 q 220 340 181 349 q 294 334 260 332 q 364 364 328 336 q 532 499 446 425 q 346 635 431 576 q 266 664 306 663 q 201 653 226 665 q 142 644 175 642 q 81 678 110 647 q 79 768 53 703 q 163 850 106 833 q 210 884 199 861 q 219 930 222 907 q 237 981 217 953 q 307 1026 257 1008 q 375 1019 349 1042 q 408 950 401 996 q 411 894 410 938 q 421 821 413 850 q 451 769 429 792 q 646 597 539 682 q 842 779 757 693 q 884 852 876 814 q 885 918 892 890 q 887 977 878 946 q 932 1032 896 1008 q 1022 1016 964 1053 q 1086 921 1079 979 q 1103 875 1089 890 q 1136 855 1118 860 q 1174 844 1154 850 q 1210 814 1193 838 q 1233 747 1226 790 q 1214 681 1240 703 q 1140 661 1188 658 q 1085 668 1129 661 q 1010 672 1040 675 q 954 650 981 669 q 767 504 868 592 q 863 435 801 478 q 933 386 924 393 q 1013 343 978 354 q 1063 333 1047 332 q 1109 347 1078 335 q 1157 363 1140 358 q 1224 339 1194 371 q 1229 239 1253 307 q 1196 185 1218 204 q 1147 156 1174 167 q 1110 138 1119 146 q 1083 81 1096 126 q 1044 8 1071 36 q 962 -31 1007 -36 q 897 32 917 -26 q 887 106 882 76 q 883 173 892 136 q 840 240 875 210 q 651 401 749 324 z "},"":{"ha":906,"x_min":-1,"x_max":883,"o":"m 226 57 q 235 55 229 56 q 255 55 240 54 q 281 62 269 56 q 303 87 292 68 q 317 135 314 106 q 333 428 329 276 q 314 424 325 424 q 158 418 210 413 q 57 465 106 424 q 4 562 17 500 q -1 674 -8 624 q 19 767 6 725 q 126 974 68 914 q 143 979 143 989 q 165 625 104 738 q 307 539 211 539 l 308 539 q 332 547 329 539 q 335 586 335 554 q 336 647 335 621 q 324 846 333 764 q 295 922 318 893 q 253 956 272 950 l 232 961 q 261 998 242 988 q 324 1003 281 1008 q 597 1006 426 992 q 636 995 625 1008 q 644 958 647 982 q 635 960 640 960 q 613 958 629 961 q 585 945 597 954 q 560 912 572 936 q 546 853 549 888 q 538 603 538 771 q 551 553 540 567 q 586 540 563 540 q 715 653 660 540 q 735 982 771 763 q 739 986 735 988 q 800 908 760 981 q 861 768 833 849 q 883 675 876 725 q 876 561 889 625 q 821 461 863 497 q 716 414 771 419 q 553 418 661 408 q 542 419 549 419 q 561 144 550 256 q 588 70 567 93 q 628 50 610 47 l 647 53 q 606 5 632 18 q 535 -1 579 -8 q 431 8 467 8 q 313 0 394 8 q 226 57 253 -8 z "},"":{"ha":889,"x_min":-25,"x_max":868,"o":"m 290 151 q 290 185 292 168 q 256 267 286 225 q 183 335 225 308 q 61 443 88 397 q -3 701 -14 563 q 103 927 8 833 q 363 1036 199 1021 q 431 1042 401 1043 q 730 946 622 1039 q 850 710 838 853 q 771 417 867 506 q 668 332 725 372 q 558 188 565 254 q 557 153 557 176 l 557 147 q 632 103 558 106 q 721 140 706 101 q 731 215 738 188 q 706 254 724 243 l 689 265 q 815 194 775 279 q 835 122 829 165 q 848 50 842 78 q 868 17 854 22 l 838 -15 q 724 -6 788 -8 q 609 -4 660 -3 q 501 -4 558 -6 l 499 -4 q 449 32 451 -7 q 448 157 444 63 q 460 304 451 251 q 483 383 468 356 q 528 435 497 410 q 565 467 560 460 q 625 667 625 532 q 582 856 625 779 q 461 947 539 933 q 301 897 364 960 q 225 721 238 833 q 224 701 225 714 q 222 682 224 689 l 222 671 q 292 449 222 540 q 328 415 300 438 q 373 364 356 393 q 397 285 390 335 q 403 200 403 250 q 402 94 404 150 q 400 29 400 38 q 390 10 400 18 q 365 1 381 3 q 335 -1 349 -1 q 304 -1 322 -1 q 283 0 286 0 l 275 0 q 7 -7 108 7 l -25 28 q -1 63 -8 33 q 14 140 6 93 q 36 217 22 186 q 171 290 81 307 q 163 286 168 289 q 145 272 157 283 q 126 247 133 261 q 119 209 119 233 q 132 157 119 185 q 218 110 151 115 q 289 146 285 104 q 290 151 290 149 z "},"":{"ha":1136,"x_min":-22,"x_max":1117,"o":"m 536 232 q 471 254 497 235 q 435 299 444 274 q 427 351 426 325 q 438 396 428 378 q 502 455 461 435 q 584 474 543 475 q 664 464 625 472 q 558 728 604 621 q 541 759 547 753 q 525 754 535 765 q 500 708 515 743 l 497 706 q 383 440 468 633 q 275 190 297 246 q 265 126 260 151 q 288 87 269 100 q 325 67 306 74 q 361 61 344 61 l 376 60 q 281 -7 347 -15 q 38 4 129 14 q -6 17 11 1 q -22 58 -22 33 q -11 58 -18 58 q 16 60 -4 57 q 55 72 36 64 q 96 101 74 81 q 135 151 118 121 q 417 788 263 385 l 417 792 q 424 878 429 844 q 401 931 418 913 q 365 956 383 949 q 331 964 346 964 l 317 965 q 395 1031 336 1010 q 518 1040 454 1053 q 601 1007 563 1032 q 665 954 640 982 q 714 883 690 926 q 749 810 738 840 q 777 737 761 781 q 800 676 793 693 q 917 385 853 554 q 1017 133 981 217 q 1061 67 1036 88 q 1101 49 1086 46 l 1117 51 q 990 -7 1086 -22 q 886 3 915 3 q 775 -7 857 3 q 692 49 715 -14 q 699 48 694 49 q 715 46 703 47 q 736 46 726 44 q 758 51 746 47 q 776 65 771 56 q 784 88 781 74 q 779 125 788 103 q 763 177 774 142 q 744 232 751 213 q 688 349 711 324 q 608 372 665 375 q 540 335 558 371 q 529 267 522 300 l 536 232 z "},"":{"ha":967,"x_min":-296,"x_max":944,"o":"m 651 463 q 646 462 650 463 q 640 460 642 461 q 622 456 633 458 q 331 418 476 418 q 339 278 335 338 q 401 134 354 183 q 518 90 447 85 q 586 101 557 93 q 649 127 615 108 q 700 183 682 146 q 718 276 718 221 q 717 349 718 321 q 710 408 717 376 q 690 454 704 440 q 651 463 675 468 m 586 561 q 590 563 588 561 q 593 565 592 564 q 665 637 636 582 q 694 756 694 692 q 676 838 694 804 q 627 888 658 871 q 568 910 596 904 q 503 919 540 917 q 383 871 429 925 q 328 717 336 817 l 328 711 q 328 515 325 617 q 586 561 456 518 m 15 53 q 24 51 18 51 q 44 51 29 50 q 69 59 58 53 q 92 84 81 65 q 106 132 103 103 q 124 438 118 268 q -247 650 -133 490 q -296 762 -287 706 q -288 857 -304 818 q -242 918 -272 896 q -182 940 -217 936 q -125 939 -147 944 l -104 935 q -146 694 -219 808 q 125 533 -72 579 q 113 843 128 715 q 84 917 107 889 q 42 951 61 946 l 21 957 q 50 994 31 983 q 111 1000 69 1006 q 375 1001 192 989 q 383 1003 381 1001 l 411 1003 q 651 1008 563 1015 q 814 954 740 1001 q 903 838 879 911 q 917 701 928 765 q 876 596 907 638 q 761 504 828 531 q 897 404 836 479 q 944 228 958 338 q 844 51 929 119 q 776 10 811 25 q 684 -8 742 -4 q 596 -13 626 -12 q 472 -8 565 -14 q 340 -1 378 -3 l 336 -1 q 280 0 317 -1 q 222 2 243 1 q 167 1 200 3 q 101 -4 133 0 q 15 53 39 -11 z "},"":{"ha":946,"x_min":24,"x_max":925,"o":"m 24 46 q 110 63 71 35 q 164 190 149 92 q 190 708 190 365 q 183 826 188 790 q 57 943 157 967 q 58 951 57 946 q 65 967 58 956 q 81 985 71 978 q 113 998 92 993 q 161 1000 133 1003 q 535 996 228 992 l 814 1010 q 829 863 792 957 q 849 831 836 846 q 874 805 861 815 q 900 786 888 794 q 919 772 913 778 q 925 764 926 767 q 907 749 922 754 q 878 744 892 744 l 865 743 q 842 748 857 744 q 786 774 826 751 q 713 831 746 796 q 578 903 660 888 q 451 875 496 918 q 396 401 390 811 q 410 188 400 301 q 414 154 414 169 l 414 151 q 448 72 421 96 q 499 50 475 47 l 522 53 q 392 0 493 -14 q 196 8 278 17 q 117 -1 183 7 q 48 8 71 -4 q 25 33 25 19 l 24 46 z "},"":{"ha":1121,"x_min":51,"x_max":1100,"o":"m 438 782 q 439 786 438 785 q 444 872 450 839 q 422 924 439 906 q 387 949 406 942 q 353 958 368 957 l 339 958 q 416 1024 357 1003 q 539 1033 475 1046 q 634 994 592 1024 q 707 917 676 965 q 754 836 738 869 q 792 743 771 803 q 819 671 814 683 q 933 387 869 554 q 1035 131 996 219 q 1066 73 1050 97 q 1092 42 1082 49 l 1100 33 q 1072 -2 1094 13 q 1010 -10 1049 -17 q 872 -3 942 1 q 653 -10 743 -11 q 310 0 585 -10 q 306 -1 307 0 q 113 -3 157 -1 q 69 15 86 -4 q 51 60 51 35 q 56 58 53 58 q 72 60 60 57 q 95 70 83 63 q 124 97 107 78 q 157 147 140 117 q 438 782 292 392 m 297 186 q 289 135 283 146 q 326 121 294 124 q 736 111 650 96 q 790 149 797 122 q 786 160 789 153 q 782 172 783 168 q 579 722 682 482 q 562 753 568 747 q 546 749 556 760 q 521 703 536 738 q 518 699 518 700 q 409 449 496 647 q 297 186 322 250 z "},"":{"ha":868,"x_min":7,"x_max":847,"o":"m 847 988 q 839 969 844 981 q 811 927 833 957 q 759 876 789 897 q 675 838 729 854 q 556 824 621 821 q 476 842 515 825 q 453 852 468 844 q 429 862 438 860 q 407 865 421 864 q 376 860 393 865 q 335 842 358 854 q 233 658 261 801 q 281 583 249 614 q 377 536 321 547 q 469 551 433 525 q 488 639 506 578 q 503 654 483 653 q 586 629 543 660 q 619 579 615 608 q 582 469 632 507 q 450 435 532 432 q 217 496 353 438 q 292 219 217 313 q 451 125 367 125 l 467 125 q 583 159 538 132 q 644 221 629 186 q 664 289 660 256 q 664 344 668 322 l 658 368 q 691 358 671 365 q 747 320 711 351 q 792 244 783 289 q 774 148 800 201 q 698 50 747 94 q 574 -21 649 6 q 421 -39 499 -47 q 390 -35 407 -39 q 110 144 206 -3 q 22 352 47 240 q 7 563 -3 464 q 54 750 17 663 q 152 907 97 849 q 304 1006 207 965 q 405 1041 351 1029 q 489 1053 458 1053 l 518 1054 q 564 1006 532 1028 q 571 1002 567 1004 q 576 999 575 1000 q 690 971 622 974 q 803 978 757 968 l 847 988 z "},"":{"ha":863,"x_min":17,"x_max":842,"o":"m 544 -10 q 339 -7 497 -10 q 124 -4 181 -4 q 98 -5 115 -4 q 71 -6 81 -6 q 26 20 43 -7 q 26 65 10 47 q 133 139 86 76 q 338 505 232 307 q 478 800 443 703 q 494 858 490 836 q 374 865 418 864 q 336 867 364 865 q 297 868 308 868 q 263 867 286 868 q 229 860 240 865 q 203 847 218 856 q 178 824 188 839 q 161 789 168 810 q 151 690 143 728 q 176 638 158 653 l 194 622 q 71 717 110 600 q 50 813 57 754 q 37 910 43 872 q 17 954 31 947 l 46 999 q 131 986 94 989 q 222 985 167 983 q 301 986 278 986 l 311 986 q 574 989 410 986 l 576 990 q 653 992 628 990 q 689 993 678 992 q 758 997 719 993 q 804 978 785 1000 q 824 932 824 957 q 807 922 818 929 q 767 883 796 915 q 713 804 738 850 q 594 575 658 704 q 464 307 531 446 q 374 119 397 168 q 435 118 392 118 q 486 116 447 118 q 549 115 525 114 q 605 121 572 117 q 659 139 638 125 q 692 175 681 153 q 707 265 715 231 q 678 317 699 300 l 656 332 q 786 243 743 354 q 807 153 800 208 q 820 62 814 97 q 842 19 826 26 l 811 -21 q 723 -10 761 -12 q 627 -9 685 -8 q 544 -10 569 -10 z "},"":{"ha":1242,"x_min":28,"x_max":1222,"o":"m 588 44 q 596 42 590 43 q 616 42 601 42 q 642 50 631 43 q 665 76 654 57 q 678 124 675 94 q 697 449 690 250 q 351 293 514 399 q 364 135 358 196 q 392 60 369 83 q 433 42 414 38 l 451 44 q 338 -11 422 -25 q 230 1 263 0 q 114 -6 197 3 q 28 47 50 -12 q 36 45 31 46 q 56 46 42 44 q 82 53 71 47 q 104 78 93 60 q 118 126 115 97 q 137 479 133 286 q 125 844 140 672 q 97 920 119 892 q 53 954 74 949 l 33 960 q 63 997 43 986 q 125 1003 82 1008 q 346 1001 233 989 q 421 998 397 1008 q 449 957 444 988 q 439 959 444 958 q 417 956 433 960 q 389 944 401 953 q 365 910 376 935 q 349 851 353 886 q 343 469 336 699 q 699 606 518 575 q 686 847 699 747 q 658 924 681 894 q 614 958 635 953 l 594 964 q 624 1002 604 992 q 685 1007 643 1013 q 907 1006 793 993 q 982 1002 958 1013 q 1010 961 1006 992 q 1000 963 1006 963 q 978 960 994 964 q 950 947 963 957 q 926 914 938 938 q 910 854 914 890 q 901 617 901 756 q 1101 557 1015 606 q 1192 474 1161 522 q 1222 386 1224 426 q 1203 313 1219 346 q 1156 269 1186 286 q 1104 247 1126 251 l 1082 243 q 1075 414 1126 354 q 904 476 1024 474 q 925 133 910 289 q 953 58 931 81 q 994 38 975 35 l 1013 40 q 971 -9 997 4 q 899 -15 944 -22 q 790 -2 822 -3 q 675 -10 757 -1 q 588 44 611 -17 z "},"":{"ha":968,"x_min":11,"x_max":946,"o":"m 579 -19 q 464 -33 518 -35 q 146 110 269 -26 q 11 439 22 247 q 22 611 6 526 q 76 775 38 696 q 188 915 115 854 q 358 1004 260 976 q 486 1024 421 1024 q 806 884 681 1019 q 946 558 932 749 q 936 380 953 468 q 879 210 919 292 q 761 67 839 129 q 579 -19 683 6 m 499 338 q 428 360 457 340 q 390 404 400 379 q 381 455 381 429 q 393 499 382 481 q 478 567 422 544 q 589 588 535 589 q 682 569 643 586 q 724 538 708 556 q 677 754 721 661 q 560 886 633 847 q 461 903 519 906 q 299 769 364 897 q 236 476 233 642 q 290 222 238 329 q 435 89 343 115 q 478 85 456 85 q 634 176 574 86 q 715 403 694 265 q 701 443 715 426 q 663 466 688 460 q 619 474 639 472 q 578 476 599 476 q 503 440 522 475 q 492 372 483 406 l 499 338 z "},"":{"ha":493,"x_min":50,"x_max":474,"o":"m 50 51 q 58 49 53 50 q 78 49 64 49 q 105 56 93 50 q 127 81 117 63 q 140 129 138 100 q 160 482 156 286 q 149 844 164 678 q 120 920 143 892 q 78 954 97 949 l 57 960 q 86 997 67 986 q 147 1001 106 1007 q 368 1001 268 989 q 443 997 419 1008 q 469 956 467 986 q 460 958 465 957 q 439 955 454 958 q 411 943 424 951 q 387 910 399 935 q 371 851 375 886 q 365 489 360 686 q 386 139 371 292 q 414 65 392 88 q 456 44 436 42 l 474 47 q 360 -7 444 -21 q 248 3 286 3 q 129 -7 210 3 q 81 3 99 -10 q 50 51 64 17 z "},"":{"ha":2275,"x_min":18,"x_max":2254,"o":"m 653 833 q 673 899 683 872 q 633 939 663 925 l 606 951 q 635 989 615 978 q 697 994 654 1000 q 963 999 793 982 q 1006 987 990 1001 q 1022 947 1022 972 q 993 941 1011 946 q 925 909 975 936 q 835 842 875 882 q 624 648 742 753 q 458 497 506 543 q 572 375 486 415 q 749 258 649 340 q 920 102 849 175 q 1131 -118 992 29 q 1339 -335 1269 -265 q 1743 -569 1501 -500 q 2065 -583 1944 -629 q 2138 -422 2181 -540 q 2131 -403 2135 -412 q 2239 -458 2206 -410 q 2254 -519 2253 -486 q 2228 -591 2256 -551 q 2149 -658 2201 -631 q 1889 -704 2038 -717 q 1582 -628 1740 -692 q 1276 -460 1424 -564 q 781 -58 1024 -282 q 413 378 539 165 q 336 481 381 433 q 357 131 340 282 q 384 56 363 79 q 425 36 406 33 l 444 39 q 331 -17 415 -31 q 221 -7 256 -7 q 106 -17 186 -7 q 18 42 44 -22 q 26 40 21 40 q 47 40 32 39 q 73 48 61 42 q 95 73 85 54 q 108 121 106 92 q 128 477 124 279 q 117 843 132 675 q 88 919 111 890 q 44 953 65 947 l 24 958 q 53 997 33 986 q 115 1001 72 1007 q 381 1006 213 989 q 426 994 410 1008 q 442 956 442 981 q 432 958 438 957 q 410 955 426 958 q 382 942 394 951 q 358 909 369 933 q 342 850 346 885 q 333 565 331 732 q 398 615 342 572 q 488 684 454 658 q 570 753 521 710 q 653 833 619 797 z "},"":{"ha":1156,"x_min":1,"x_max":1135,"o":"m 713 46 q 719 45 715 46 q 735 43 724 44 q 757 43 747 42 q 779 49 767 44 q 797 62 792 53 q 805 85 801 71 q 799 121 808 99 q 579 722 688 469 q 562 753 568 747 q 546 749 556 760 q 521 703 536 738 q 519 700 519 703 q 408 442 493 638 q 297 186 322 247 q 286 122 282 147 q 308 83 290 96 q 346 64 326 69 q 381 58 365 58 l 397 57 q 303 -10 371 -18 q 60 1 151 11 q 17 15 33 -1 q 1 54 1 31 q 13 53 6 54 q 39 56 19 53 q 77 68 58 60 q 118 97 96 76 q 157 147 140 117 q 438 782 292 392 q 439 786 438 785 q 444 872 450 839 q 422 924 439 906 q 387 949 406 942 q 353 958 368 957 l 339 958 q 416 1024 357 1003 q 539 1033 475 1046 q 634 994 592 1024 q 707 917 676 965 q 754 836 738 869 q 792 743 771 803 q 819 671 814 683 q 937 378 872 547 q 1035 131 1001 210 q 1079 64 1054 85 q 1119 44 1104 43 l 1135 47 q 1010 -10 1104 -25 q 906 -1 938 0 q 794 -10 874 -1 q 713 46 736 -17 z "},"":{"ha":1240,"x_min":7,"x_max":1219,"o":"m 842 46 q 854 46 843 47 q 883 50 865 44 q 917 63 900 56 q 946 92 933 71 q 960 142 958 113 q 954 754 964 304 q 904 633 933 703 q 774 353 847 500 q 686 167 700 206 q 653 144 681 150 q 600 139 625 138 l 576 142 q 551 151 563 143 q 532 171 536 158 q 447 356 519 208 q 317 638 374 503 q 298 681 307 658 q 279 727 289 704 q 265 761 269 750 q 268 144 264 594 q 298 73 268 97 q 357 49 328 49 l 386 49 q 349 -1 372 13 q 285 -7 325 -14 q 190 6 218 4 q 89 -1 161 7 q 7 47 26 -8 q 19 47 8 49 q 48 51 31 46 q 82 64 65 56 q 111 93 99 72 q 125 143 124 114 q 118 857 128 217 q 108 917 118 893 q 83 950 97 942 q 53 962 68 958 q 28 964 39 965 l 18 961 q 44 999 28 989 q 99 1004 60 1010 q 292 1003 149 997 q 357 960 326 1004 q 433 824 394 913 q 531 575 472 736 q 611 363 590 414 q 669 494 629 403 q 733 638 710 586 q 788 758 756 689 q 844 876 819 828 q 890 957 869 925 q 906 982 903 978 l 907 982 l 907 983 q 978 1001 929 1006 q 1018 999 994 1000 q 1053 997 1042 997 q 1083 998 1064 997 q 1126 1001 1103 999 q 1193 998 1172 1008 q 1217 957 1214 988 q 1204 961 1213 958 q 1176 963 1196 964 q 1142 953 1157 963 q 1113 914 1126 943 q 1100 838 1100 885 q 1103 143 1096 568 q 1115 92 1103 113 q 1144 63 1128 71 q 1178 50 1161 54 q 1208 47 1196 46 l 1219 47 q 1183 -2 1206 11 q 1119 -8 1160 -15 q 1024 4 1050 3 q 924 -3 999 6 q 842 46 861 -10 z "},"":{"ha":1085,"x_min":69,"x_max":1065,"o":"m 69 49 q 82 49 71 50 q 110 52 93 47 q 144 65 128 57 q 174 93 161 72 q 188 143 186 114 q 181 856 190 218 q 170 916 181 892 q 145 949 160 940 q 116 962 131 958 q 92 964 101 965 l 81 961 q 106 998 90 988 q 160 1003 122 1008 q 354 1003 267 990 q 383 1004 365 1004 q 435 1003 421 1011 q 506 888 467 983 q 603 646 546 793 q 715 401 661 499 q 768 300 736 364 q 760 840 768 379 q 732 927 760 899 q 678 956 704 956 l 650 956 q 676 993 660 982 q 731 999 693 1004 q 925 997 825 985 q 1031 958 1025 1011 q 1019 962 1026 960 q 993 962 1011 964 q 960 949 975 960 q 934 908 946 939 q 922 829 922 876 q 928 132 919 411 q 964 67 929 81 q 1057 90 1007 60 q 1065 92 1065 96 q 1057 67 1064 88 q 992 -24 1035 7 q 902 -56 949 -56 q 813 -44 856 -57 q 742 -10 771 -32 q 653 112 704 18 q 558 311 603 206 q 449 540 513 417 q 326 736 385 664 q 331 144 326 372 q 343 93 331 114 q 372 64 356 72 q 406 51 389 56 q 436 47 424 47 l 447 49 q 347 -6 421 -19 q 252 7 281 6 q 151 0 224 8 q 69 49 88 -7 z "},"":{"ha":885,"x_min":18,"x_max":864,"o":"m 650 807 q 224 810 429 824 q 169 794 190 808 q 140 764 149 779 q 113 738 131 749 q 65 731 94 726 q 26 778 39 733 q 36 857 14 822 q 48 894 51 878 q 33 923 44 911 q 22 957 22 935 q 40 1011 21 979 q 79 1035 57 1036 q 125 1013 101 1035 q 233 958 175 965 q 629 950 399 939 q 660 952 646 951 q 685 956 674 953 q 703 959 696 958 q 719 965 711 960 q 731 972 728 971 q 742 980 735 972 q 750 989 749 988 q 760 1001 751 990 q 769 1014 768 1013 q 794 1031 778 1026 q 829 1023 810 1035 q 860 979 849 1011 q 863 934 867 947 q 849 902 860 921 q 838 875 839 883 q 848 833 836 863 q 858 779 860 804 q 831 724 856 739 q 769 731 806 708 q 735 761 753 742 q 700 792 718 781 q 650 807 682 804 m 589 443 q 268 444 422 456 q 197 417 229 442 q 131 397 165 393 q 99 435 110 400 q 107 499 89 471 q 106 551 124 521 q 110 622 88 582 q 178 624 138 664 q 260 578 221 583 q 583 567 436 557 q 624 570 608 568 q 651 581 639 572 q 667 591 664 589 q 682 608 671 593 q 694 625 693 622 q 714 637 701 633 q 742 631 726 640 q 767 596 758 621 q 770 560 772 571 q 760 535 768 550 q 750 513 751 519 q 758 480 749 503 q 765 436 768 457 q 743 392 763 404 q 694 397 724 379 q 675 410 688 401 q 657 423 663 419 q 640 432 651 426 q 617 440 629 438 q 589 443 606 442 m 656 14 q 206 15 433 31 q 153 -1 172 13 q 129 -28 135 -14 q 108 -52 124 -43 q 63 -57 92 -61 q 24 -10 36 -54 q 33 68 11 33 q 45 106 49 89 q 31 134 42 122 q 19 168 19 146 q 38 222 18 190 q 76 247 54 247 q 122 225 99 246 q 141 206 129 218 q 159 187 153 193 q 179 174 165 181 q 210 167 193 168 q 633 158 400 143 q 683 163 664 160 q 717 174 703 165 q 735 185 731 182 q 751 205 739 189 q 767 226 763 221 q 791 242 775 238 q 826 234 807 246 q 857 190 846 222 q 861 147 864 160 q 847 114 858 133 q 835 86 836 94 q 845 45 833 75 q 856 -10 857 15 q 828 -65 853 -50 q 767 -58 803 -81 q 734 -28 749 -47 q 703 1 719 -10 q 656 14 688 11 z "},"":{"ha":1011,"x_min":57,"x_max":988,"o":"m 638 0 q 524 -18 579 -18 q 201 117 329 -17 q 57 440 74 250 q 64 613 50 528 q 114 779 78 699 q 221 922 150 860 q 389 1015 292 985 q 515 1039 449 1038 q 840 908 710 1040 q 988 586 969 776 q 983 408 997 496 q 931 237 969 319 q 817 91 893 154 q 638 0 742 28 m 593 904 q 494 917 547 921 q 335 779 397 908 q 281 485 274 650 q 343 232 288 336 q 492 103 399 128 q 535 100 504 100 q 668 170 613 103 q 747 335 724 238 q 767 546 771 433 q 717 769 764 674 q 593 904 671 865 z "},"":{"ha":1018,"x_min":1,"x_max":997,"o":"m 1 56 q 10 53 4 54 q 28 53 15 53 q 53 60 42 54 q 74 85 64 67 q 88 133 85 104 q 106 486 101 290 q 94 849 110 682 q 67 924 89 896 q 26 958 46 953 l 7 964 q 35 1001 18 990 q 93 1006 53 1011 q 276 1000 139 1000 q 284 1001 278 1000 q 293 1001 290 1001 q 724 1000 458 1003 l 735 1000 q 897 1006 833 997 q 969 1001 947 1011 q 994 960 992 990 q 985 962 992 961 q 965 959 979 963 q 938 947 950 956 q 915 915 926 939 q 900 856 903 890 q 894 494 889 694 q 915 143 900 293 q 941 69 921 92 q 979 49 961 46 l 997 51 q 958 3 983 15 q 889 -3 933 -10 q 783 6 815 7 q 669 -3 750 6 q 624 8 642 -6 q 594 56 607 21 q 603 53 597 54 q 622 53 608 53 q 646 60 635 54 q 667 85 657 67 q 681 133 678 104 q 699 486 694 290 q 688 849 703 682 q 687 856 688 850 q 686 863 686 861 q 506 865 639 863 q 307 865 372 867 q 306 856 307 858 q 300 494 294 694 q 321 143 306 293 q 347 69 326 92 q 385 49 367 46 l 403 51 q 364 3 389 15 q 294 -3 339 -10 q 190 6 222 7 q 76 -3 157 6 q 31 8 49 -6 q 1 56 14 21 z "},"":{"ha":1004,"x_min":69,"x_max":986,"o":"m 69 46 q 78 44 72 44 q 98 44 83 43 q 124 51 113 44 q 147 77 136 58 q 160 125 157 96 q 179 479 175 288 q 168 844 183 671 q 139 920 163 892 q 94 954 115 949 l 75 960 q 104 998 85 988 q 167 1003 124 1008 q 443 1006 244 993 q 476 1007 458 1007 q 715 1011 626 1018 q 876 957 803 1004 q 960 859 933 919 q 985 742 988 799 q 963 635 983 685 q 897 532 946 588 q 596 443 801 424 q 435 590 415 461 q 501 660 442 638 q 560 658 550 676 q 561 650 563 656 q 569 571 546 597 q 636 544 592 544 q 678 550 665 547 q 696 556 685 553 q 749 633 736 575 q 756 757 763 692 q 731 839 750 806 q 682 889 713 872 q 625 913 651 906 q 563 922 599 919 q 440 873 488 928 q 385 717 393 818 l 385 711 q 407 133 379 426 q 434 59 413 82 q 475 39 456 36 l 494 42 q 381 -12 465 -26 q 272 -3 301 -3 q 156 -12 242 -3 q 69 46 93 -19 z "},"":{"ha":863,"x_min":26,"x_max":842,"o":"m 319 861 q 413 728 369 799 q 487 598 456 658 q 521 533 518 538 q 522 531 522 532 q 455 367 528 513 q 317 139 382 221 q 304 121 307 128 q 435 118 368 118 q 486 116 447 118 q 549 115 525 114 q 605 121 572 117 q 659 139 638 125 q 692 175 681 153 q 707 265 715 231 q 678 317 699 300 l 656 332 q 786 243 743 354 q 807 153 800 208 q 820 62 814 97 q 842 19 826 26 l 811 -21 q 723 -10 761 -12 q 627 -9 685 -8 q 544 -10 569 -10 q 339 -7 497 -10 q 124 -4 181 -4 q 98 -5 115 -4 q 71 -6 81 -6 q 26 20 43 -7 q 26 65 10 47 q 35 67 29 65 q 58 77 42 69 q 89 95 74 85 q 123 126 104 106 q 156 172 142 147 q 218 281 190 236 q 260 347 246 326 q 312 411 275 367 q 371 485 349 456 q 340 526 353 508 q 317 558 328 543 q 295 589 306 574 q 278 614 285 604 q 260 642 271 624 q 245 668 250 660 q 228 700 240 676 q 210 734 215 724 q 186 778 204 744 q 158 828 168 811 q 104 894 136 868 q 51 928 72 921 l 31 933 q 31 978 14 951 q 75 1004 47 1006 q 105 1003 85 1003 q 135 1001 125 1003 l 253 1001 l 297 1001 l 317 1001 l 536 1001 q 604 1001 564 1001 q 667 1001 644 1001 q 727 1004 690 1001 q 803 1014 764 1007 l 835 972 q 813 930 819 965 q 799 839 806 894 q 778 749 792 783 q 649 660 735 638 q 658 665 653 661 q 676 683 664 669 q 696 713 689 696 q 701 757 703 729 q 683 817 699 785 q 651 853 672 839 q 597 872 631 867 q 542 877 563 876 q 477 876 521 878 q 426 874 433 874 q 310 875 339 874 q 319 861 315 867 z "},"":{"ha":863,"x_min":26,"x_max":842,"o":"m 319 861 q 413 728 369 799 q 487 598 456 658 q 521 533 518 538 q 522 531 522 532 q 455 367 528 513 q 317 139 382 221 q 304 121 307 128 q 435 118 368 118 q 486 116 447 118 q 549 115 525 114 q 605 121 572 117 q 659 139 638 125 q 692 175 681 153 q 707 265 715 231 q 678 317 699 300 l 656 332 q 786 243 743 354 q 807 153 800 208 q 820 62 814 97 q 842 19 826 26 l 811 -21 q 723 -10 761 -12 q 627 -9 685 -8 q 544 -10 569 -10 q 339 -7 497 -10 q 124 -4 181 -4 q 98 -5 115 -4 q 71 -6 81 -6 q 26 20 43 -7 q 26 65 10 47 q 35 67 29 65 q 58 77 42 69 q 89 95 74 85 q 123 126 104 106 q 156 172 142 147 q 218 281 190 236 q 260 347 246 326 q 312 411 275 367 q 371 485 349 456 q 340 526 353 508 q 317 558 328 543 q 295 589 306 574 q 278 614 285 604 q 260 642 271 624 q 245 668 250 660 q 228 700 240 676 q 210 734 215 724 q 186 778 204 744 q 158 828 168 811 q 104 894 136 868 q 51 928 72 921 l 31 933 q 31 978 14 951 q 75 1004 47 1006 q 105 1003 85 1003 q 135 1001 125 1003 l 253 1001 l 297 1001 l 317 1001 l 536 1001 q 604 1001 564 1001 q 667 1001 644 1001 q 727 1004 690 1001 q 803 1014 764 1007 l 835 972 q 813 930 819 965 q 799 839 806 894 q 778 749 792 783 q 649 660 735 638 q 658 665 653 661 q 676 683 664 669 q 696 713 689 696 q 701 757 703 729 q 683 817 699 785 q 651 853 672 839 q 597 872 631 867 q 542 877 563 876 q 477 876 521 878 q 426 874 433 874 q 310 875 339 874 q 319 861 315 867 z "},"":{"ha":924,"x_min":11,"x_max":904,"o":"m 244 47 q 253 45 247 46 q 273 45 258 44 q 299 52 288 46 q 321 77 310 58 q 335 125 332 96 q 353 477 350 285 q 342 840 357 669 l 342 843 q 294 884 332 875 q 215 870 257 893 q 157 796 174 847 q 147 695 139 733 q 172 642 154 657 l 192 626 q 65 722 107 604 q 44 819 51 760 q 31 917 38 879 q 11 963 25 956 l 42 1007 q 127 994 90 997 q 219 993 164 992 q 300 994 275 994 l 307 994 q 428 997 333 994 q 561 997 524 999 q 611 994 583 997 q 676 994 632 994 q 740 993 719 993 q 797 997 760 993 q 872 1007 833 1000 l 904 963 q 882 917 889 956 q 868 819 875 879 q 847 722 861 760 q 715 626 804 604 q 724 631 718 628 q 740 649 729 635 q 758 681 751 664 q 765 729 765 699 q 751 796 764 760 q 690 871 733 847 q 610 885 647 894 q 565 844 572 876 q 560 483 554 679 q 581 135 565 288 q 608 60 586 83 q 647 40 629 38 l 667 43 q 553 -11 639 -25 q 445 1 478 0 q 331 -6 413 3 q 244 47 267 -14 z "},"":{"ha":996,"x_min":-10,"x_max":975,"o":"m 864 225 q 851 135 867 172 q 788 61 835 99 q 619 -7 726 13 q 417 -19 513 -26 q 260 11 322 -11 q 125 94 165 44 q 90 196 85 143 q 81 842 101 665 q 53 918 75 889 q 11 953 31 947 l -10 958 q 19 995 1 985 q 79 1001 38 1006 q 297 1000 186 988 q 372 997 349 1007 q 397 954 394 986 q 388 956 394 956 q 367 953 382 957 q 339 941 351 950 q 315 908 326 932 q 300 849 304 885 q 306 250 281 626 q 307 243 306 246 q 490 140 315 128 q 543 146 519 142 q 583 158 567 150 q 613 172 600 167 q 635 191 626 178 q 649 210 643 204 q 657 232 654 215 q 661 252 660 249 q 664 274 663 256 q 665 294 665 293 q 661 846 682 667 q 633 922 656 893 q 592 957 611 951 l 571 963 q 599 1001 581 990 q 660 1006 618 1011 q 875 1004 765 992 q 949 1001 925 1011 q 975 960 972 990 q 966 962 972 961 q 944 959 960 963 q 917 946 929 956 q 894 913 906 936 q 879 853 882 889 q 867 495 869 742 q 864 225 864 249 z "},"":{"ha":1108,"x_min":169,"x_max":1088,"o":"m 410 50 q 418 48 413 49 q 438 48 424 47 q 465 55 453 49 q 488 80 476 61 q 501 128 499 99 q 520 483 517 289 q 508 849 524 676 q 503 878 506 868 q 429 924 475 928 q 373 887 389 918 q 350 758 357 856 q 400 582 339 600 q 442 581 425 575 q 467 592 458 588 q 475 593 475 597 q 455 531 475 560 q 402 488 435 501 q 333 476 369 475 q 258 508 296 478 q 196 596 221 539 q 169 703 176 638 q 178 842 163 768 q 235 958 193 915 q 336 1015 283 1008 q 493 1008 389 1021 q 504 1007 501 1008 l 507 1007 q 785 1010 588 997 q 801 1010 792 1010 q 815 1011 811 1011 q 939 1009 897 1017 q 1021 961 981 1001 q 1078 844 1063 918 q 1088 706 1094 771 q 1061 597 1081 640 q 981 501 1028 528 q 892 485 933 474 q 822 531 851 497 q 792 606 793 564 q 799 605 792 610 q 823 593 807 600 q 863 593 839 586 q 903 771 914 607 q 879 894 896 868 q 821 925 863 921 q 733 857 764 933 l 733 856 q 726 491 721 694 q 749 138 732 288 q 776 63 754 86 q 817 43 797 40 l 836 46 q 794 -3 821 10 q 721 -10 768 -17 q 613 1 643 1 q 497 -8 582 1 q 410 50 435 -15 z "},"":{"ha":1101,"x_min":65,"x_max":1082,"o":"m 721 815 q 748 912 764 885 q 692 939 732 939 l 651 939 q 695 989 663 967 q 768 1007 728 1011 q 981 1006 857 994 q 1023 988 1007 1008 q 1039 943 1039 968 q 1017 938 1031 942 q 965 908 1003 935 q 894 839 926 882 q 797 710 860 793 q 718 607 735 628 q 694 572 713 600 q 663 528 675 544 q 690 486 672 514 q 718 444 708 458 q 963 147 801 338 q 1030 77 1000 104 q 1071 44 1060 50 l 1082 39 q 954 -18 1049 -33 q 850 -8 888 -8 q 739 -15 813 -7 q 656 42 679 -22 q 664 43 658 42 q 681 51 669 44 q 697 66 692 57 q 699 95 703 75 q 681 140 696 115 q 668 160 676 147 q 653 181 660 172 q 642 199 647 190 l 633 211 l 633 213 q 632 215 632 214 q 588 280 621 232 q 538 354 556 328 q 442 225 503 307 q 381 142 382 143 q 360 66 344 86 q 413 49 375 46 l 450 51 q 351 -11 417 -22 q 129 -8 283 0 q 83 6 101 -10 q 65 44 64 22 q 69 44 67 44 q 83 46 72 43 q 107 55 94 49 q 140 79 119 61 q 183 122 161 97 q 353 326 257 206 q 404 393 367 344 q 460 465 442 442 q 332 653 333 650 q 272 735 322 665 q 192 844 221 806 q 133 912 163 885 q 89 946 103 939 l 74 953 q 200 1010 104 1025 q 415 1008 296 994 q 499 951 476 1013 q 488 949 494 950 q 468 939 482 947 q 447 919 454 931 q 440 888 439 908 q 456 840 440 867 q 589 636 522 736 q 721 815 685 763 z "},"":{"ha":906,"x_min":-1,"x_max":883,"o":"m 226 57 q 235 55 229 56 q 255 55 240 54 q 281 62 269 56 q 303 87 292 68 q 317 135 314 106 q 333 428 329 276 q 314 424 325 424 q 158 418 210 413 q 57 465 106 424 q 4 562 17 500 q -1 674 -8 624 q 19 767 6 725 q 126 974 68 914 q 143 979 143 989 q 165 625 104 738 q 307 539 211 539 l 308 539 q 332 547 329 539 q 335 586 335 554 q 336 647 335 621 q 324 846 333 764 q 295 922 318 893 q 253 956 272 950 l 232 961 q 261 998 242 988 q 324 1003 281 1008 q 597 1006 426 992 q 636 995 625 1008 q 644 958 647 982 q 635 960 640 960 q 613 958 629 961 q 585 945 597 954 q 560 912 572 936 q 546 853 549 888 q 538 603 538 771 q 551 553 540 567 q 586 540 563 540 q 715 653 660 540 q 735 982 771 763 q 739 986 735 988 q 800 908 760 981 q 861 768 833 849 q 883 675 876 725 q 876 561 889 625 q 821 461 863 497 q 716 414 771 419 q 553 418 661 408 q 542 419 549 419 q 561 144 550 256 q 588 70 567 93 q 628 50 610 47 l 647 53 q 606 5 632 18 q 535 -1 579 -8 q 431 8 467 8 q 313 0 394 8 q 226 57 253 -8 z "},"":{"ha":889,"x_min":-25,"x_max":868,"o":"m 290 151 q 290 185 292 168 q 256 267 286 225 q 183 335 225 308 q 61 443 88 397 q -3 701 -14 563 q 103 927 8 833 q 363 1036 199 1021 q 431 1042 401 1043 q 730 946 622 1039 q 850 710 838 853 q 771 417 867 506 q 668 332 725 372 q 558 188 565 254 q 557 153 557 176 l 557 147 q 632 103 558 106 q 721 140 706 101 q 731 215 738 188 q 706 254 724 243 l 689 265 q 815 194 775 279 q 835 122 829 165 q 848 50 842 78 q 868 17 854 22 l 838 -15 q 724 -6 788 -8 q 609 -4 660 -3 q 501 -4 558 -6 l 499 -4 q 449 32 451 -7 q 448 157 444 63 q 460 304 451 251 q 483 383 468 356 q 528 435 497 410 q 565 467 560 460 q 625 667 625 532 q 582 856 625 779 q 461 947 539 933 q 301 897 364 960 q 225 721 238 833 q 224 701 225 714 q 222 682 224 689 l 222 671 q 292 449 222 540 q 328 415 300 438 q 373 364 356 393 q 397 285 390 335 q 403 200 403 250 q 402 94 404 150 q 400 29 400 38 q 390 10 400 18 q 365 1 381 3 q 335 -1 349 -1 q 304 -1 322 -1 q 283 0 286 0 l 275 0 q 7 -7 108 7 l -25 28 q -1 63 -8 33 q 14 140 6 93 q 36 217 22 186 q 171 290 81 307 q 163 286 168 289 q 145 272 157 283 q 126 247 133 261 q 119 209 119 233 q 132 157 119 185 q 218 110 151 115 q 289 146 285 104 q 290 151 290 149 z "},"":{"ha":694,"x_min":-3,"x_max":675,"o":"m 351 347 q 322 413 353 367 q 292 351 293 376 l 292 349 q 347 347 308 343 l 351 347 m 178 450 q 179 447 179 449 q 181 443 181 444 q 203 414 185 422 q 243 408 219 404 q 279 429 267 415 q 288 467 293 446 q 267 496 283 485 q 225 501 247 506 q 189 485 203 499 q 178 454 175 474 l 178 450 m 351 465 q 354 456 351 464 q 394 411 364 421 q 453 415 438 400 q 465 463 476 440 q 424 497 457 486 q 371 499 392 508 q 351 465 353 489 m 458 81 q 499 68 486 72 q 538 58 522 61 q 565 56 553 54 q 581 58 576 57 q 599 67 586 60 q 615 76 611 74 q 653 74 632 85 q 675 29 674 64 q 668 0 675 11 q 649 -19 661 -11 q 633 -33 636 -28 q 631 -62 629 -40 q 626 -103 633 -85 q 592 -131 614 -128 q 547 -110 569 -133 q 530 -81 536 -97 q 514 -54 524 -65 q 481 -32 504 -43 q 336 25 426 -10 q 186 -51 231 -26 q 153 -79 163 -64 q 143 -106 143 -94 q 135 -128 143 -117 q 104 -147 126 -140 q 61 -131 83 -154 q 46 -78 39 -107 q 42 -50 50 -60 q 23 -37 35 -40 q 4 -20 11 -35 q 1 19 -3 -6 q 63 51 10 64 q 78 47 68 50 q 94 42 89 43 q 107 40 99 40 q 124 40 115 39 q 143 46 132 42 q 208 71 178 57 q 140 92 185 78 q 75 85 103 103 q 15 83 47 67 q -3 124 -4 90 q 24 174 -1 158 q 42 203 49 192 q 35 234 35 214 q 63 274 36 254 q 128 251 100 299 q 138 234 132 246 q 147 217 143 222 q 159 203 150 211 q 181 190 168 196 q 332 125 247 158 q 453 188 413 164 q 488 207 475 199 q 508 225 500 215 q 517 239 515 235 q 524 257 519 243 q 529 276 528 271 q 555 301 535 294 q 606 285 575 307 q 621 260 618 274 q 622 232 624 246 q 621 213 619 218 q 640 190 622 204 q 664 158 658 175 q 660 114 674 132 q 615 97 647 96 q 581 105 599 99 q 553 112 563 111 q 513 104 543 113 q 458 81 496 99 m 322 764 q 518 665 460 760 q 518 450 576 571 q 517 447 518 449 q 517 417 513 436 q 519 404 519 406 q 515 368 521 385 q 482 338 504 343 q 447 333 472 333 q 422 329 426 333 q 418 304 413 321 q 422 283 422 288 q 410 254 422 267 q 328 236 392 238 q 288 236 303 235 q 244 251 261 240 q 222 282 226 261 q 225 308 221 292 l 225 311 q 225 321 226 321 q 201 328 222 326 l 199 328 q 174 332 189 329 q 146 349 156 336 q 133 378 138 357 q 129 408 131 396 l 129 421 q 122 453 128 440 l 122 454 l 119 460 q 119 463 119 461 q 117 467 118 465 q 124 657 78 575 q 311 764 175 749 l 315 764 l 322 764 z "},"":{"ha":315,"x_min":74,"x_max":294,"o":"m 294 839 l 196 708 l 74 707 q 183 825 126 785 q 236 845 208 842 q 279 844 264 849 l 294 839 z "},"":{"ha":569,"x_min":328,"x_max":549,"o":"m 328 721 l 426 853 l 549 853 q 439 736 496 775 q 386 715 414 719 q 343 717 358 711 l 328 721 z "},"":{"ha":522,"x_min":33,"x_max":501,"o":"m 251 808 l 154 679 l 33 679 q 142 794 85 756 q 194 815 167 811 q 236 814 222 818 l 251 808 m 501 811 l 404 682 l 283 682 q 392 797 335 760 q 444 817 417 814 q 486 817 472 821 l 501 811 z "},"":{"ha":569,"x_min":74,"x_max":549,"o":"m 328 721 l 426 853 l 549 853 q 439 736 496 775 q 386 715 414 719 q 343 717 358 711 l 328 721 m 74 718 l 172 849 l 294 849 q 185 732 243 771 q 132 712 160 715 q 89 714 104 708 l 74 718 z "},"":{"ha":1389,"x_min":0,"x_max":0,"o":""},"":{"ha":417,"x_min":0,"x_max":0,"o":""}}}
